<svg xmlns="http://www.w3.org/2000/svg" width="40" height="40" viewBox="0 0 40 40">
    <path fill="#272CBA" fill-rule="nonzero" d="M40 15.331v22.667c-.003.215-.04.428-.111.63a.66.66 0 0 1-.556 1.023.655.655 0 0 1-.176-.028 1.986 1.986 0 0 1-1.158.375H2c-.414 0-.817-.13-1.154-.37a.66.66 0 0 1-.734-1 1.976 1.976 0 0 1-.11-.63v-22.67c0-.013.007-.025.007-.038a.632.632 0 0 1 .027-.134.658.658 0 0 1 .038-.115.638.638 0 0 1 .067-.1.655.655 0 0 1 .09-.105c.011-.01.016-.022.027-.031l6.409-4.98v-5.16a2 2 0 0 1 2-2h7.225L18.784.419a1.978 1.978 0 0 1 2.431 0l2.893 2.246h7.225a2 2 0 0 1 2 2v5.16l6.409 4.98c.011.009.016.021.027.03a.655.655 0 0 1 .09.106.643.643 0 0 1 .067.1.69.69 0 0 1 .038.115c.014.044.023.09.027.136.001.013.008.026.008.04zM19.6 1.471l-1.534 1.194h3.867L20.395 1.47a.64.64 0 0 0-.796 0zM2.164 38.665h35.669l-17.44-13.543a.641.641 0 0 0-.795 0L2.165 38.665zm36.501-1.041V16.347l-10.944 8.498a.667.667 0 0 1-.818-1.054l11.119-8.633-4.69-3.644v5.15a.667.667 0 0 1-1.334 0v-12a.667.667 0 0 0-.666-.666H8.666a.667.667 0 0 0-.667.667v12a.667.667 0 0 1-1.333 0v-5.151l-4.69 3.644 11.099 8.618a.667.667 0 1 1-.818 1.054L1.333 16.347v21.277L18.785 24.07a1.977 1.977 0 0 1 2.429 0l17.452 13.554zM13.333 8.664a.667.667 0 1 1 0-1.332h13.333a.667.667 0 1 1 0 1.333H13.333zm14 3.334a.667.667 0 0 1-.667.667H13.333a.667.667 0 1 1 0-1.333h13.333c.368 0 .667.298.667.666zm0 4a.667.667 0 0 1-.667.667h-6a.667.667 0 1 1 0-1.333h6c.368 0 .667.298.667.666z"/>
</svg>
