<svg xmlns="http://www.w3.org/2000/svg" width="40" height="40" viewBox="0 0 40 40">
    <path fill="#272CBA" fill-rule="evenodd" d="M27.031 24.922c.432 0 .782.35.782.781v5.39a5.475 5.475 0 0 1-5.47 5.47H14.69l-.002 2.656a.781.781 0 0 1-1.333.552l-3.209-3.209H5.47A5.475 5.475 0 0 1 0 31.095V19.062a5.475 5.475 0 0 1 5.469-5.468h7.89a.781.781 0 0 1 0 1.562H5.47a3.91 3.91 0 0 0-3.907 3.906v12.032A3.91 3.91 0 0 0 5.47 35h5.076c.32 0 .596.192.717.47l1.864 1.864.002-1.553c0-.432.35-.781.78-.781h8.436a3.91 3.91 0 0 0 3.906-3.906v-5.39c0-.432.35-.782.781-.782zM28.645 0C34.906 0 40 5.094 40 11.355c0 1.814-.415 3.547-1.234 5.153a11.464 11.464 0 0 1-2.985 3.68v4.52a.781.781 0 0 1-1.333.552l-2.921-2.92c-.938.246-1.905.37-2.882.37h-1.977c-6.262 0-11.355-5.094-11.355-11.355S20.405 0 26.668 0h1.977zm5.885 19.182a9.72 9.72 0 0 0 3.907-7.827c0-5.4-4.392-9.793-9.792-9.793h-1.977c-5.4 0-9.793 4.393-9.793 9.793 0 5.4 4.393 9.793 9.793 9.793h1.977c.981 0 1.95-.145 2.88-.43a.78.78 0 0 1 .782.193l1.912 1.911v-3.016c0-.245.115-.476.31-.624zM31.174 8.55a3.29 3.29 0 0 1-2.518 3.447v1.814a.781.781 0 1 1-1.562 0v-1.876c0-.7.479-1.296 1.164-1.45a1.746 1.746 0 1 0-2.129-1.703.781.781 0 0 1-1.562 0 3.32 3.32 0 0 1 1.051-2.418 3.282 3.282 0 0 1 2.49-.881 3.315 3.315 0 0 1 3.066 3.067zm-2.747 7.8a.787.787 0 0 1 .23.552.789.789 0 0 1-.23.553.786.786 0 0 1-1.104 0 .788.788 0 0 1-.23-.553.787.787 0 0 1 .781-.781c.206 0 .408.083.553.228zm-6.943 7.87a.781.781 0 0 1 0 1.562H5a.781.781 0 0 1 0-1.562h16.484zm.553 4.604a.787.787 0 0 1 .229.552.786.786 0 0 1-.782.781.787.787 0 0 1-.552-.229.787.787 0 0 1-.229-.552c0-.205.084-.407.229-.552a.787.787 0 0 1 .552-.23c.206 0 .407.084.553.23zm-3.626-.23a.781.781 0 0 1 0 1.563H5a.781.781 0 0 1 0-1.562h13.411zm-2.005-8.75a.781.781 0 0 1 0 1.563H5a.781.781 0 0 1 0-1.562h11.406z"/>
</svg>
