<svg id="Object" xmlns="http://www.w3.org/2000/svg" viewBox="0 0 366 621"><defs><style>.cls-1,.cls-2{fill:#fbebc9;}.cls-1{fill-rule:evenodd;}</style></defs><title>testimonial-bg-world-left</title><path class="cls-1" d="M357.66,12a3.24,3.24,0,1,1-3.23-3.24A3.23,3.23,0,0,1,357.66,12Z"/><path class="cls-1" d="M339.68,12a3.24,3.24,0,1,1-3.23-3.24A3.23,3.23,0,0,1,339.68,12Z"/><path class="cls-1" d="M348.87,12a3.24,3.24,0,1,1-3.24-3.24A3.24,3.24,0,0,1,348.87,12Z"/><path class="cls-1" d="M338.92,21.38a3.24,3.24,0,1,1-3.23-3.23A3.24,3.24,0,0,1,338.92,21.38Z"/><path class="cls-1" d="M357.66,3.23A3.24,3.24,0,1,1,354.43,0,3.24,3.24,0,0,1,357.66,3.23Z"/><path class="cls-1" d="M302.8,400.6a3.24,3.24,0,1,1-3.24-3.23A3.23,3.23,0,0,1,302.8,400.6Z"/><path class="cls-1" d="M302.8,410a3.24,3.24,0,1,1-3.24-3.24A3.24,3.24,0,0,1,302.8,410Z"/><path class="cls-1" d="M312,400.6a3.24,3.24,0,1,1-3.23-3.23A3.22,3.22,0,0,1,312,400.6Z"/><path class="cls-1" d="M312,410a3.24,3.24,0,1,1-3.23-3.24A3.23,3.23,0,0,1,312,410Z"/><path class="cls-1" d="M321.25,400.6a3.24,3.24,0,1,1-3.24-3.23A3.23,3.23,0,0,1,321.25,400.6Z"/><path class="cls-1" d="M321.25,410a3.24,3.24,0,1,1-3.24-3.24A3.24,3.24,0,0,1,321.25,410Z"/><path class="cls-1" d="M330.6,400.6a3.24,3.24,0,1,1-3.24-3.23A3.23,3.23,0,0,1,330.6,400.6Z"/><path class="cls-1" d="M330.6,410a3.24,3.24,0,1,1-3.24-3.24A3.24,3.24,0,0,1,330.6,410Z"/><path class="cls-1" d="M339.78,400.6a3.24,3.24,0,1,1-3.23-3.23A3.23,3.23,0,0,1,339.78,400.6Z"/><path class="cls-1" d="M339.78,410a3.24,3.24,0,1,1-3.23-3.24A3.23,3.23,0,0,1,339.78,410Z"/><path class="cls-1" d="M302.8,419.29a3.24,3.24,0,1,1-3.24-3.23A3.24,3.24,0,0,1,302.8,419.29Z"/><path class="cls-1" d="M302.8,428.64a3.24,3.24,0,1,1-3.24-3.24A3.24,3.24,0,0,1,302.8,428.64Z"/><path class="cls-1" d="M312,419.29a3.24,3.24,0,1,1-3.23-3.23A3.23,3.23,0,0,1,312,419.29Z"/><path class="cls-1" d="M312,428.64a3.24,3.24,0,1,1-3.23-3.24A3.23,3.23,0,0,1,312,428.64Z"/><path class="cls-1" d="M321.25,419.29a3.24,3.24,0,1,1-3.24-3.23A3.24,3.24,0,0,1,321.25,419.29Z"/><path class="cls-1" d="M321.25,428.64A3.24,3.24,0,1,1,318,425.4,3.24,3.24,0,0,1,321.25,428.64Z"/><circle class="cls-2" cx="327.36" cy="419.29" r="3.24"/><path class="cls-1" d="M330.6,428.64a3.24,3.24,0,1,1-3.24-3.24A3.24,3.24,0,0,1,330.6,428.64Z"/><path class="cls-1" d="M339.78,419.29a3.24,3.24,0,1,1-3.23-3.23A3.24,3.24,0,0,1,339.78,419.29Z"/><path class="cls-1" d="M339.78,428.64a3.24,3.24,0,1,1-3.23-3.24A3.24,3.24,0,0,1,339.78,428.64Z"/><path class="cls-1" d="M302.8,437.5a3.24,3.24,0,1,1-3.24-3.24A3.24,3.24,0,0,1,302.8,437.5Z"/><path class="cls-1" d="M302.8,446.85a3.24,3.24,0,1,1-3.24-3.24A3.24,3.24,0,0,1,302.8,446.85Z"/><path class="cls-1" d="M312,437.5a3.24,3.24,0,1,1-3.23-3.24A3.23,3.23,0,0,1,312,437.5Z"/><path class="cls-1" d="M312,446.85a3.24,3.24,0,1,1-3.23-3.24A3.23,3.23,0,0,1,312,446.85Z"/><path class="cls-1" d="M321.25,437.5a3.24,3.24,0,1,1-3.24-3.24A3.24,3.24,0,0,1,321.25,437.5Z"/><path class="cls-1" d="M321.25,446.85a3.24,3.24,0,1,1-3.24-3.24A3.24,3.24,0,0,1,321.25,446.85Z"/><path class="cls-1" d="M330.6,437.5a3.24,3.24,0,1,1-3.24-3.24A3.24,3.24,0,0,1,330.6,437.5Z"/><path class="cls-1" d="M330.6,446.85a3.24,3.24,0,1,1-3.24-3.24A3.24,3.24,0,0,1,330.6,446.85Z"/><path class="cls-1" d="M339.78,437.5a3.24,3.24,0,1,1-3.23-3.24A3.23,3.23,0,0,1,339.78,437.5Z"/><path class="cls-1" d="M339.78,446.85a3.24,3.24,0,1,1-3.23-3.24A3.23,3.23,0,0,1,339.78,446.85Z"/><path class="cls-1" d="M302.8,456.19a3.24,3.24,0,1,1-3.24-3.24A3.23,3.23,0,0,1,302.8,456.19Z"/><path class="cls-1" d="M302.8,465.54a3.24,3.24,0,1,1-3.24-3.24A3.24,3.24,0,0,1,302.8,465.54Z"/><path class="cls-1" d="M312,456.19a3.24,3.24,0,1,1-3.23-3.24A3.22,3.22,0,0,1,312,456.19Z"/><path class="cls-1" d="M312,465.54a3.24,3.24,0,1,1-3.23-3.24A3.23,3.23,0,0,1,312,465.54Z"/><path class="cls-1" d="M321.25,456.19A3.24,3.24,0,1,1,318,453,3.23,3.23,0,0,1,321.25,456.19Z"/><path class="cls-1" d="M321.25,465.54A3.24,3.24,0,1,1,318,462.3,3.24,3.24,0,0,1,321.25,465.54Z"/><path class="cls-1" d="M330.6,456.19a3.24,3.24,0,1,1-3.24-3.24A3.23,3.23,0,0,1,330.6,456.19Z"/><path class="cls-1" d="M330.6,465.54a3.24,3.24,0,1,1-3.24-3.24A3.24,3.24,0,0,1,330.6,465.54Z"/><path class="cls-1" d="M339.78,456.19a3.24,3.24,0,1,1-3.23-3.24A3.23,3.23,0,0,1,339.78,456.19Z"/><path class="cls-1" d="M339.78,465.54a3.24,3.24,0,1,1-3.23-3.24A3.23,3.23,0,0,1,339.78,465.54Z"/><path class="cls-1" d="M256.57,400.6a3.24,3.24,0,1,1-3.24-3.23A3.23,3.23,0,0,1,256.57,400.6Z"/><path class="cls-1" d="M256.57,410a3.24,3.24,0,1,1-3.24-3.24A3.24,3.24,0,0,1,256.57,410Z"/><path class="cls-1" d="M265.75,400.6a3.24,3.24,0,1,1-3.23-3.23A3.22,3.22,0,0,1,265.75,400.6Z"/><path class="cls-1" d="M265.75,410a3.24,3.24,0,1,1-3.23-3.24A3.23,3.23,0,0,1,265.75,410Z"/><path class="cls-1" d="M275,400.6a3.24,3.24,0,1,1-3.23-3.23A3.23,3.23,0,0,1,275,400.6Z"/><path class="cls-1" d="M275,410a3.24,3.24,0,1,1-3.23-3.24A3.23,3.23,0,0,1,275,410Z"/><path class="cls-1" d="M284.37,400.6a3.24,3.24,0,1,1-3.24-3.23A3.23,3.23,0,0,1,284.37,400.6Z"/><path class="cls-1" d="M284.37,410a3.24,3.24,0,1,1-3.24-3.24A3.24,3.24,0,0,1,284.37,410Z"/><path class="cls-1" d="M293.55,400.6a3.24,3.24,0,1,1-3.23-3.23A3.22,3.22,0,0,1,293.55,400.6Z"/><path class="cls-1" d="M293.55,410a3.24,3.24,0,1,1-3.23-3.24A3.23,3.23,0,0,1,293.55,410Z"/><path class="cls-1" d="M256.57,419.29a3.24,3.24,0,1,1-3.24-3.23A3.24,3.24,0,0,1,256.57,419.29Z"/><path class="cls-1" d="M256.57,428.64a3.24,3.24,0,1,1-3.24-3.24A3.24,3.24,0,0,1,256.57,428.64Z"/><path class="cls-1" d="M265.75,419.29a3.24,3.24,0,1,1-3.23-3.23A3.23,3.23,0,0,1,265.75,419.29Z"/><path class="cls-1" d="M265.75,428.64a3.24,3.24,0,1,1-3.23-3.24A3.23,3.23,0,0,1,265.75,428.64Z"/><path class="cls-1" d="M275,419.29a3.24,3.24,0,1,1-3.23-3.23A3.24,3.24,0,0,1,275,419.29Z"/><path class="cls-1" d="M275,428.64a3.24,3.24,0,1,1-3.23-3.24A3.24,3.24,0,0,1,275,428.64Z"/><path class="cls-1" d="M284.37,419.29a3.24,3.24,0,1,1-3.24-3.23A3.24,3.24,0,0,1,284.37,419.29Z"/><path class="cls-1" d="M284.37,428.64a3.24,3.24,0,1,1-3.24-3.24A3.24,3.24,0,0,1,284.37,428.64Z"/><path class="cls-1" d="M293.55,419.29a3.24,3.24,0,1,1-3.23-3.23A3.23,3.23,0,0,1,293.55,419.29Z"/><path class="cls-1" d="M293.55,428.64a3.24,3.24,0,1,1-3.23-3.24A3.23,3.23,0,0,1,293.55,428.64Z"/><path class="cls-1" d="M256.57,437.5a3.24,3.24,0,1,1-3.24-3.24A3.24,3.24,0,0,1,256.57,437.5Z"/><path class="cls-1" d="M256.57,446.85a3.24,3.24,0,1,1-3.24-3.24A3.24,3.24,0,0,1,256.57,446.85Z"/><path class="cls-1" d="M265.75,437.5a3.24,3.24,0,1,1-3.23-3.24A3.23,3.23,0,0,1,265.75,437.5Z"/><path class="cls-1" d="M265.75,446.85a3.24,3.24,0,1,1-3.23-3.24A3.23,3.23,0,0,1,265.75,446.85Z"/><path class="cls-1" d="M275,437.5a3.24,3.24,0,1,1-3.23-3.24A3.23,3.23,0,0,1,275,437.5Z"/><path class="cls-1" d="M275,446.85a3.24,3.24,0,1,1-3.23-3.24A3.23,3.23,0,0,1,275,446.85Z"/><path class="cls-1" d="M284.37,437.5a3.24,3.24,0,1,1-3.24-3.24A3.24,3.24,0,0,1,284.37,437.5Z"/><path class="cls-1" d="M284.37,446.85a3.24,3.24,0,1,1-3.24-3.24A3.24,3.24,0,0,1,284.37,446.85Z"/><path class="cls-1" d="M293.55,437.5a3.24,3.24,0,1,1-3.23-3.24A3.23,3.23,0,0,1,293.55,437.5Z"/><path class="cls-1" d="M293.55,446.85a3.24,3.24,0,1,1-3.23-3.24A3.23,3.23,0,0,1,293.55,446.85Z"/><path class="cls-1" d="M228.58,400.6a3.24,3.24,0,1,1-3.24-3.23A3.23,3.23,0,0,1,228.58,400.6Z"/><path class="cls-1" d="M228.58,410a3.24,3.24,0,1,1-3.24-3.24A3.24,3.24,0,0,1,228.58,410Z"/><path class="cls-1" d="M237.76,400.6a3.24,3.24,0,1,1-3.23-3.23A3.23,3.23,0,0,1,237.76,400.6Z"/><path class="cls-1" d="M237.76,410a3.24,3.24,0,1,1-3.23-3.24A3.23,3.23,0,0,1,237.76,410Z"/><path class="cls-1" d="M247,400.6a3.24,3.24,0,1,1-3.24-3.23A3.23,3.23,0,0,1,247,400.6Z"/><path class="cls-1" d="M247,410a3.24,3.24,0,1,1-3.24-3.24A3.24,3.24,0,0,1,247,410Z"/><path class="cls-1" d="M228.58,419.29a3.24,3.24,0,1,1-3.24-3.23A3.24,3.24,0,0,1,228.58,419.29Z"/><path class="cls-1" d="M228.58,428.64a3.24,3.24,0,1,1-3.24-3.24A3.24,3.24,0,0,1,228.58,428.64Z"/><path class="cls-1" d="M237.76,419.29a3.24,3.24,0,1,1-3.23-3.23A3.24,3.24,0,0,1,237.76,419.29Z"/><path class="cls-1" d="M237.76,428.64a3.24,3.24,0,1,1-3.23-3.24A3.24,3.24,0,0,1,237.76,428.64Z"/><circle class="cls-2" cx="243.79" cy="419.29" r="3.24"/><path class="cls-1" d="M247,428.64a3.24,3.24,0,1,1-3.24-3.24A3.24,3.24,0,0,1,247,428.64Z"/><path class="cls-1" d="M237.76,437.5a3.24,3.24,0,1,1-3.23-3.24A3.23,3.23,0,0,1,237.76,437.5Z"/><path class="cls-1" d="M247,437.5a3.24,3.24,0,1,1-3.24-3.24A3.24,3.24,0,0,1,247,437.5Z"/><path class="cls-1" d="M219.33,400.6a3.24,3.24,0,1,1-3.23-3.23A3.22,3.22,0,0,1,219.33,400.6Z"/><path class="cls-1" d="M219.33,410a3.24,3.24,0,1,1-3.23-3.24A3.23,3.23,0,0,1,219.33,410Z"/><path class="cls-1" d="M256.57,456.19a3.24,3.24,0,1,1-3.24-3.24A3.23,3.23,0,0,1,256.57,456.19Z"/><path class="cls-1" d="M265.75,456.19a3.24,3.24,0,1,1-3.23-3.24A3.22,3.22,0,0,1,265.75,456.19Z"/><path class="cls-1" d="M275,456.19a3.24,3.24,0,1,1-3.23-3.24A3.23,3.23,0,0,1,275,456.19Z"/><path class="cls-1" d="M275,465.54a3.24,3.24,0,1,1-3.23-3.24A3.23,3.23,0,0,1,275,465.54Z"/><path class="cls-1" d="M284.37,456.19a3.24,3.24,0,1,1-3.24-3.24A3.23,3.23,0,0,1,284.37,456.19Z"/><path class="cls-1" d="M284.37,465.54a3.24,3.24,0,1,1-3.24-3.24A3.24,3.24,0,0,1,284.37,465.54Z"/><path class="cls-1" d="M256.4,465.54a3.24,3.24,0,1,1-3.24-3.24A3.24,3.24,0,0,1,256.4,465.54Z"/><path class="cls-1" d="M265.75,465.54a3.24,3.24,0,1,1-3.24-3.24A3.24,3.24,0,0,1,265.75,465.54Z"/><path class="cls-1" d="M293.55,456.19a3.24,3.24,0,1,1-3.23-3.24A3.22,3.22,0,0,1,293.55,456.19Z"/><path class="cls-1" d="M293.55,465.54a3.24,3.24,0,1,1-3.23-3.24A3.23,3.23,0,0,1,293.55,465.54Z"/><path class="cls-1" d="M302.8,474.82a3.24,3.24,0,1,1-3.24-3.24A3.23,3.23,0,0,1,302.8,474.82Z"/><path class="cls-1" d="M302.8,484.17a3.24,3.24,0,1,1-3.24-3.24A3.24,3.24,0,0,1,302.8,484.17Z"/><path class="cls-1" d="M312,474.82a3.24,3.24,0,1,1-3.23-3.24A3.22,3.22,0,0,1,312,474.82Z"/><path class="cls-1" d="M312,484.17a3.24,3.24,0,1,1-3.23-3.24A3.23,3.23,0,0,1,312,484.17Z"/><path class="cls-1" d="M321.25,474.82a3.24,3.24,0,1,1-3.24-3.24A3.23,3.23,0,0,1,321.25,474.82Z"/><path class="cls-1" d="M321.25,484.17a3.24,3.24,0,1,1-3.24-3.24A3.24,3.24,0,0,1,321.25,484.17Z"/><path class="cls-1" d="M330.6,474.82a3.24,3.24,0,1,1-3.24-3.24A3.23,3.23,0,0,1,330.6,474.82Z"/><path class="cls-1" d="M330.6,484.17a3.24,3.24,0,1,1-3.24-3.24A3.24,3.24,0,0,1,330.6,484.17Z"/><path class="cls-1" d="M339.78,474.82a3.24,3.24,0,1,1-3.23-3.24A3.23,3.23,0,0,1,339.78,474.82Z"/><path class="cls-1" d="M339.78,484.17a3.24,3.24,0,1,1-3.23-3.24A3.23,3.23,0,0,1,339.78,484.17Z"/><path class="cls-1" d="M302.8,493.51a3.24,3.24,0,1,1-3.24-3.23A3.24,3.24,0,0,1,302.8,493.51Z"/><path class="cls-1" d="M302.8,502.86a3.24,3.24,0,1,1-3.24-3.24A3.25,3.25,0,0,1,302.8,502.86Z"/><path class="cls-1" d="M312,493.51a3.24,3.24,0,1,1-3.23-3.23A3.23,3.23,0,0,1,312,493.51Z"/><path class="cls-1" d="M312,502.86a3.24,3.24,0,1,1-3.23-3.24A3.24,3.24,0,0,1,312,502.86Z"/><path class="cls-1" d="M321.25,493.51a3.24,3.24,0,1,1-3.24-3.23A3.24,3.24,0,0,1,321.25,493.51Z"/><path class="cls-1" d="M321.25,502.86a3.24,3.24,0,1,1-3.24-3.24A3.25,3.25,0,0,1,321.25,502.86Z"/><path class="cls-1" d="M330.6,493.51a3.24,3.24,0,1,1-3.24-3.23A3.24,3.24,0,0,1,330.6,493.51Z"/><path class="cls-1" d="M330.6,502.86a3.24,3.24,0,1,1-3.24-3.24A3.25,3.25,0,0,1,330.6,502.86Z"/><path class="cls-1" d="M275.06,484.17a3.24,3.24,0,1,1-3.23-3.24A3.23,3.23,0,0,1,275.06,484.17Z"/><path class="cls-1" d="M255.71,484.17a3.24,3.24,0,1,1-3.23-3.24A3.23,3.23,0,0,1,255.71,484.17Z"/><path class="cls-1" d="M266.28,484.17a3.24,3.24,0,1,1-3.23-3.24A3.23,3.23,0,0,1,266.28,484.17Z"/><path class="cls-1" d="M284.33,474.82a3.24,3.24,0,1,1-3.24-3.24A3.23,3.23,0,0,1,284.33,474.82Z"/><path class="cls-1" d="M284.33,484.17a3.24,3.24,0,1,1-3.24-3.24A3.24,3.24,0,0,1,284.33,484.17Z"/><path class="cls-1" d="M293.68,474.82a3.24,3.24,0,1,1-3.24-3.24A3.23,3.23,0,0,1,293.68,474.82Z"/><path class="cls-1" d="M275,474.82a3.24,3.24,0,1,1-3.24-3.24A3.23,3.23,0,0,1,275,474.82Z"/><path class="cls-1" d="M256.48,474.82a3.24,3.24,0,1,1-3.24-3.24A3.23,3.23,0,0,1,256.48,474.82Z"/><path class="cls-1" d="M265.83,474.82a3.24,3.24,0,1,1-3.24-3.24A3.23,3.23,0,0,1,265.83,474.82Z"/><path class="cls-1" d="M293.68,484.17a3.24,3.24,0,1,1-3.24-3.24A3.24,3.24,0,0,1,293.68,484.17Z"/><path class="cls-1" d="M275.06,493.51a3.24,3.24,0,1,1-3.23-3.23A3.24,3.24,0,0,1,275.06,493.51Z"/><path class="cls-1" d="M284.33,493.51a3.24,3.24,0,1,1-3.24-3.23A3.24,3.24,0,0,1,284.33,493.51Z"/><path class="cls-1" d="M265.93,493.51a3.24,3.24,0,1,1-3.23-3.23A3.24,3.24,0,0,1,265.93,493.51Z"/><path class="cls-1" d="M255.71,493.51a3.24,3.24,0,1,1-3.23-3.23A3.24,3.24,0,0,1,255.71,493.51Z"/><path class="cls-1" d="M284.33,502.86a3.24,3.24,0,1,1-3.24-3.24A3.25,3.25,0,0,1,284.33,502.86Z"/><path class="cls-1" d="M293.68,493.51a3.24,3.24,0,1,1-3.24-3.23A3.24,3.24,0,0,1,293.68,493.51Z"/><path class="cls-1" d="M293.68,502.86a3.24,3.24,0,1,1-3.24-3.24A3.25,3.25,0,0,1,293.68,502.86Z"/><path class="cls-1" d="M274.78,502.86a3.24,3.24,0,1,1-3.23-3.24A3.24,3.24,0,0,1,274.78,502.86Z"/><path class="cls-1" d="M256.31,502.86a3.24,3.24,0,1,1-3.23-3.24A3.24,3.24,0,0,1,256.31,502.86Z"/><path class="cls-1" d="M265.66,502.86a3.24,3.24,0,1,1-3.23-3.24A3.24,3.24,0,0,1,265.66,502.86Z"/><path class="cls-1" d="M339.78,493.51a3.24,3.24,0,1,1-3.23-3.23A3.24,3.24,0,0,1,339.78,493.51Z"/><path class="cls-1" d="M339.78,502.86a3.24,3.24,0,1,1-3.23-3.24A3.24,3.24,0,0,1,339.78,502.86Z"/><path class="cls-1" d="M349,400.6a3.23,3.23,0,1,1-3.23-3.23A3.22,3.22,0,0,1,349,400.6Z"/><path class="cls-1" d="M349,410a3.23,3.23,0,1,1-3.23-3.24A3.23,3.23,0,0,1,349,410Z"/><path class="cls-1" d="M358.21,400.6a3.24,3.24,0,1,1-3.23-3.23A3.23,3.23,0,0,1,358.21,400.6Z"/><path class="cls-1" d="M358.21,410a3.24,3.24,0,1,1-3.23-3.24A3.23,3.23,0,0,1,358.21,410Z"/><path class="cls-1" d="M349,419.29a3.23,3.23,0,1,1-3.23-3.23A3.23,3.23,0,0,1,349,419.29Z"/><path class="cls-1" d="M349,428.64a3.23,3.23,0,1,1-3.23-3.24A3.23,3.23,0,0,1,349,428.64Z"/><path class="cls-1" d="M358.21,419.29a3.24,3.24,0,1,1-3.23-3.23A3.24,3.24,0,0,1,358.21,419.29Z"/><path class="cls-1" d="M358.21,428.64A3.24,3.24,0,1,1,355,425.4,3.24,3.24,0,0,1,358.21,428.64Z"/><path class="cls-1" d="M349,437.5a3.23,3.23,0,1,1-3.23-3.24A3.23,3.23,0,0,1,349,437.5Z"/><path class="cls-1" d="M349,446.85a3.23,3.23,0,1,1-3.23-3.24A3.23,3.23,0,0,1,349,446.85Z"/><path class="cls-1" d="M358.21,437.5a3.24,3.24,0,1,1-3.23-3.24A3.23,3.23,0,0,1,358.21,437.5Z"/><path class="cls-1" d="M358.21,446.85a3.24,3.24,0,1,1-3.23-3.24A3.23,3.23,0,0,1,358.21,446.85Z"/><path class="cls-1" d="M349,456.19a3.23,3.23,0,1,1-3.23-3.24A3.22,3.22,0,0,1,349,456.19Z"/><path class="cls-1" d="M349,465.54a3.23,3.23,0,1,1-3.23-3.24A3.23,3.23,0,0,1,349,465.54Z"/><path class="cls-1" d="M358.21,456.19A3.24,3.24,0,1,1,355,453,3.23,3.23,0,0,1,358.21,456.19Z"/><path class="cls-1" d="M358.21,465.54A3.24,3.24,0,1,1,355,462.3,3.23,3.23,0,0,1,358.21,465.54Z"/><path class="cls-1" d="M349,474.82a3.23,3.23,0,1,1-3.23-3.24A3.22,3.22,0,0,1,349,474.82Z"/><path class="cls-1" d="M349,484.17a3.23,3.23,0,1,1-3.23-3.24A3.23,3.23,0,0,1,349,484.17Z"/><path class="cls-1" d="M349,493.51a3.23,3.23,0,1,1-3.23-3.23A3.23,3.23,0,0,1,349,493.51Z"/><path class="cls-1" d="M302.8,382.36a3.24,3.24,0,1,1-3.24-3.23A3.23,3.23,0,0,1,302.8,382.36Z"/><path class="cls-1" d="M302.8,391.71a3.24,3.24,0,1,1-3.24-3.24A3.24,3.24,0,0,1,302.8,391.71Z"/><path class="cls-1" d="M312,382.36a3.24,3.24,0,1,1-3.23-3.23A3.22,3.22,0,0,1,312,382.36Z"/><path class="cls-1" d="M312,391.71a3.24,3.24,0,1,1-3.23-3.24A3.23,3.23,0,0,1,312,391.71Z"/><path class="cls-1" d="M321.25,382.36a3.24,3.24,0,1,1-3.24-3.23A3.23,3.23,0,0,1,321.25,382.36Z"/><path class="cls-1" d="M321.25,391.71a3.24,3.24,0,1,1-3.24-3.24A3.24,3.24,0,0,1,321.25,391.71Z"/><path class="cls-1" d="M330.6,382.36a3.24,3.24,0,1,1-3.24-3.23A3.23,3.23,0,0,1,330.6,382.36Z"/><path class="cls-1" d="M330.6,391.71a3.24,3.24,0,1,1-3.24-3.24A3.24,3.24,0,0,1,330.6,391.71Z"/><path class="cls-1" d="M339.78,382.36a3.24,3.24,0,1,1-3.23-3.23A3.23,3.23,0,0,1,339.78,382.36Z"/><path class="cls-1" d="M339.78,391.71a3.24,3.24,0,1,1-3.23-3.24A3.23,3.23,0,0,1,339.78,391.71Z"/><path class="cls-1" d="M256.57,382.36a3.24,3.24,0,1,1-3.24-3.23A3.23,3.23,0,0,1,256.57,382.36Z"/><path class="cls-1" d="M256.57,391.71a3.24,3.24,0,1,1-3.24-3.24A3.24,3.24,0,0,1,256.57,391.71Z"/><path class="cls-1" d="M265.75,382.36a3.24,3.24,0,1,1-3.23-3.23A3.22,3.22,0,0,1,265.75,382.36Z"/><path class="cls-1" d="M265.75,391.71a3.24,3.24,0,1,1-3.23-3.24A3.23,3.23,0,0,1,265.75,391.71Z"/><path class="cls-1" d="M275,382.36a3.24,3.24,0,1,1-3.23-3.23A3.23,3.23,0,0,1,275,382.36Z"/><path class="cls-1" d="M275,391.71a3.24,3.24,0,1,1-3.23-3.24A3.23,3.23,0,0,1,275,391.71Z"/><path class="cls-1" d="M284.37,382.36a3.24,3.24,0,1,1-3.24-3.23A3.23,3.23,0,0,1,284.37,382.36Z"/><path class="cls-1" d="M284.37,391.71a3.24,3.24,0,1,1-3.24-3.24A3.24,3.24,0,0,1,284.37,391.71Z"/><path class="cls-1" d="M293.55,382.36a3.24,3.24,0,1,1-3.23-3.23A3.22,3.22,0,0,1,293.55,382.36Z"/><path class="cls-1" d="M293.55,391.71a3.24,3.24,0,1,1-3.23-3.24A3.23,3.23,0,0,1,293.55,391.71Z"/><path class="cls-1" d="M228.58,382.36a3.24,3.24,0,1,1-3.24-3.23A3.23,3.23,0,0,1,228.58,382.36Z"/><path class="cls-1" d="M228.58,391.71a3.24,3.24,0,1,1-3.24-3.24A3.24,3.24,0,0,1,228.58,391.71Z"/><path class="cls-1" d="M237.76,382.36a3.24,3.24,0,1,1-3.23-3.23A3.23,3.23,0,0,1,237.76,382.36Z"/><path class="cls-1" d="M237.76,391.71a3.24,3.24,0,1,1-3.23-3.24A3.23,3.23,0,0,1,237.76,391.71Z"/><path class="cls-1" d="M247,382.36a3.24,3.24,0,1,1-3.24-3.23A3.23,3.23,0,0,1,247,382.36Z"/><path class="cls-1" d="M247,391.71a3.24,3.24,0,1,1-3.24-3.24A3.24,3.24,0,0,1,247,391.71Z"/><path class="cls-1" d="M210.15,382.36a3.24,3.24,0,1,1-3.24-3.23A3.23,3.23,0,0,1,210.15,382.36Z"/><path class="cls-1" d="M210.15,391.71a3.24,3.24,0,1,1-3.24-3.24A3.24,3.24,0,0,1,210.15,391.71Z"/><path class="cls-1" d="M219.33,382.36a3.24,3.24,0,1,1-3.23-3.23A3.22,3.22,0,0,1,219.33,382.36Z"/><path class="cls-1" d="M219.33,391.71a3.24,3.24,0,1,1-3.23-3.24A3.23,3.23,0,0,1,219.33,391.71Z"/><path class="cls-1" d="M349,382.36a3.23,3.23,0,1,1-3.23-3.23A3.22,3.22,0,0,1,349,382.36Z"/><path class="cls-1" d="M349,391.71a3.23,3.23,0,1,1-3.23-3.24A3.23,3.23,0,0,1,349,391.71Z"/><path class="cls-1" d="M358.21,382.36a3.24,3.24,0,1,1-3.23-3.23A3.23,3.23,0,0,1,358.21,382.36Z"/><path class="cls-1" d="M358.21,391.71a3.24,3.24,0,1,1-3.23-3.24A3.23,3.23,0,0,1,358.21,391.71Z"/><path class="cls-1" d="M302.8,363.28a3.24,3.24,0,1,1-3.24-3.24A3.24,3.24,0,0,1,302.8,363.28Z"/><path class="cls-1" d="M302.8,372.62a3.24,3.24,0,1,1-3.24-3.23A3.24,3.24,0,0,1,302.8,372.62Z"/><path class="cls-1" d="M312,363.28a3.24,3.24,0,1,1-3.23-3.24A3.23,3.23,0,0,1,312,363.28Z"/><path class="cls-1" d="M312,372.62a3.24,3.24,0,1,1-3.23-3.23A3.23,3.23,0,0,1,312,372.62Z"/><path class="cls-1" d="M321.25,363.28A3.24,3.24,0,1,1,318,360,3.24,3.24,0,0,1,321.25,363.28Z"/><path class="cls-1" d="M321.25,372.62a3.24,3.24,0,1,1-3.24-3.23A3.24,3.24,0,0,1,321.25,372.62Z"/><path class="cls-1" d="M330.6,363.28a3.24,3.24,0,1,1-3.24-3.24A3.24,3.24,0,0,1,330.6,363.28Z"/><path class="cls-1" d="M330.6,372.62a3.24,3.24,0,1,1-3.24-3.23A3.24,3.24,0,0,1,330.6,372.62Z"/><path class="cls-1" d="M339.78,363.28a3.24,3.24,0,1,1-3.23-3.24A3.23,3.23,0,0,1,339.78,363.28Z"/><path class="cls-1" d="M339.78,372.62a3.24,3.24,0,1,1-3.23-3.23A3.24,3.24,0,0,1,339.78,372.62Z"/><path class="cls-1" d="M256.57,363.28a3.24,3.24,0,1,1-3.24-3.24A3.24,3.24,0,0,1,256.57,363.28Z"/><path class="cls-1" d="M256.57,372.62a3.24,3.24,0,1,1-3.24-3.23A3.24,3.24,0,0,1,256.57,372.62Z"/><path class="cls-1" d="M265.75,363.28a3.24,3.24,0,1,1-3.23-3.24A3.23,3.23,0,0,1,265.75,363.28Z"/><path class="cls-1" d="M265.75,372.62a3.24,3.24,0,1,1-3.23-3.23A3.23,3.23,0,0,1,265.75,372.62Z"/><path class="cls-1" d="M275,363.28a3.24,3.24,0,1,1-3.23-3.24A3.23,3.23,0,0,1,275,363.28Z"/><path class="cls-1" d="M275,372.62a3.24,3.24,0,1,1-3.23-3.23A3.24,3.24,0,0,1,275,372.62Z"/><path class="cls-1" d="M284.37,363.28a3.24,3.24,0,1,1-3.24-3.24A3.24,3.24,0,0,1,284.37,363.28Z"/><path class="cls-1" d="M284.37,372.62a3.24,3.24,0,1,1-3.24-3.23A3.24,3.24,0,0,1,284.37,372.62Z"/><path class="cls-1" d="M293.55,363.28a3.24,3.24,0,1,1-3.23-3.24A3.23,3.23,0,0,1,293.55,363.28Z"/><path class="cls-1" d="M293.55,372.62a3.24,3.24,0,1,1-3.23-3.23A3.23,3.23,0,0,1,293.55,372.62Z"/><path class="cls-1" d="M228.58,363.28a3.24,3.24,0,1,1-3.24-3.24A3.24,3.24,0,0,1,228.58,363.28Z"/><path class="cls-1" d="M228.58,372.62a3.24,3.24,0,1,1-3.24-3.23A3.24,3.24,0,0,1,228.58,372.62Z"/><path class="cls-1" d="M237.76,363.28a3.24,3.24,0,1,1-3.23-3.24A3.23,3.23,0,0,1,237.76,363.28Z"/><path class="cls-1" d="M237.76,372.62a3.24,3.24,0,1,1-3.23-3.23A3.24,3.24,0,0,1,237.76,372.62Z"/><path class="cls-1" d="M247,363.28a3.24,3.24,0,1,1-3.24-3.24A3.24,3.24,0,0,1,247,363.28Z"/><path class="cls-1" d="M247,372.62a3.24,3.24,0,1,1-3.24-3.23A3.24,3.24,0,0,1,247,372.62Z"/><path class="cls-1" d="M210.15,363.28a3.24,3.24,0,1,1-3.24-3.24A3.24,3.24,0,0,1,210.15,363.28Z"/><path class="cls-1" d="M210.15,372.62a3.24,3.24,0,1,1-3.24-3.23A3.24,3.24,0,0,1,210.15,372.62Z"/><path class="cls-1" d="M219.33,363.28A3.24,3.24,0,1,1,216.1,360,3.23,3.23,0,0,1,219.33,363.28Z"/><path class="cls-1" d="M219.33,372.62a3.24,3.24,0,1,1-3.23-3.23A3.23,3.23,0,0,1,219.33,372.62Z"/><path class="cls-1" d="M349,372.62a3.23,3.23,0,1,1-3.23-3.23A3.23,3.23,0,0,1,349,372.62Z"/><path class="cls-1" d="M182.79,207a3.24,3.24,0,1,1-3.23-3.23A3.23,3.23,0,0,1,182.79,207Z"/><path class="cls-1" d="M182.79,216.35a3.24,3.24,0,1,1-3.23-3.24A3.23,3.23,0,0,1,182.79,216.35Z"/><path class="cls-1" d="M192,207a3.24,3.24,0,1,1-3.24-3.23A3.23,3.23,0,0,1,192,207Z"/><path class="cls-1" d="M192,216.35a3.24,3.24,0,1,1-3.24-3.24A3.24,3.24,0,0,1,192,216.35Z"/><path class="cls-1" d="M201.25,207a3.24,3.24,0,1,1-3.24-3.23A3.23,3.23,0,0,1,201.25,207Z"/><path class="cls-1" d="M201.25,216.35a3.24,3.24,0,1,1-3.24-3.24A3.24,3.24,0,0,1,201.25,216.35Z"/><path class="cls-1" d="M210.59,207a3.24,3.24,0,1,1-3.23-3.23A3.23,3.23,0,0,1,210.59,207Z"/><path class="cls-1" d="M210.59,216.35a3.24,3.24,0,1,1-3.23-3.24A3.23,3.23,0,0,1,210.59,216.35Z"/><path class="cls-1" d="M219.78,207a3.24,3.24,0,1,1-3.24-3.23A3.23,3.23,0,0,1,219.78,207Z"/><path class="cls-1" d="M219.78,216.35a3.24,3.24,0,1,1-3.24-3.24A3.24,3.24,0,0,1,219.78,216.35Z"/><path class="cls-1" d="M182.79,225.69a3.24,3.24,0,1,1-3.23-3.23A3.24,3.24,0,0,1,182.79,225.69Z"/><path class="cls-1" d="M210.59,225.69a3.24,3.24,0,1,1-3.23-3.23A3.24,3.24,0,0,1,210.59,225.69Z"/><path class="cls-1" d="M210.59,235a3.24,3.24,0,1,1-3.23-3.23A3.23,3.23,0,0,1,210.59,235Z"/><path class="cls-1" d="M219.53,262.1a3.24,3.24,0,1,1-3.23-3.24A3.24,3.24,0,0,1,219.53,262.1Z"/><path class="cls-1" d="M228.47,262.1a3.24,3.24,0,1,1-3.23-3.24A3.24,3.24,0,0,1,228.47,262.1Z"/><path class="cls-1" d="M246.59,271.51a3.24,3.24,0,1,1-3.24-3.24A3.23,3.23,0,0,1,246.59,271.51Z"/><path class="cls-1" d="M136.56,207a3.24,3.24,0,1,1-3.23-3.23A3.23,3.23,0,0,1,136.56,207Z"/><path class="cls-1" d="M136.56,216.35a3.24,3.24,0,1,1-3.23-3.24A3.23,3.23,0,0,1,136.56,216.35Z"/><path class="cls-1" d="M145.75,207a3.24,3.24,0,1,1-3.23-3.23A3.23,3.23,0,0,1,145.75,207Z"/><path class="cls-1" d="M145.75,216.35a3.24,3.24,0,1,1-3.23-3.24A3.23,3.23,0,0,1,145.75,216.35Z"/><path class="cls-1" d="M155,207a3.24,3.24,0,1,1-3.24-3.23A3.23,3.23,0,0,1,155,207Z"/><path class="cls-1" d="M155,216.35a3.24,3.24,0,1,1-3.24-3.24A3.24,3.24,0,0,1,155,216.35Z"/><path class="cls-1" d="M164.36,207a3.24,3.24,0,1,1-3.23-3.23A3.23,3.23,0,0,1,164.36,207Z"/><path class="cls-1" d="M164.36,216.35a3.24,3.24,0,1,1-3.23-3.24A3.23,3.23,0,0,1,164.36,216.35Z"/><path class="cls-1" d="M173.55,207a3.24,3.24,0,1,1-3.24-3.23A3.23,3.23,0,0,1,173.55,207Z"/><path class="cls-1" d="M173.55,216.35a3.24,3.24,0,1,1-3.24-3.24A3.24,3.24,0,0,1,173.55,216.35Z"/><path class="cls-1" d="M98.91,225.69a3.24,3.24,0,1,1-3.24-3.23A3.24,3.24,0,0,1,98.91,225.69Z"/><path class="cls-1" d="M98.91,235a3.24,3.24,0,1,1-3.24-3.23A3.23,3.23,0,0,1,98.91,235Z"/><path class="cls-1" d="M145.75,225.69a3.24,3.24,0,1,1-3.23-3.23A3.24,3.24,0,0,1,145.75,225.69Z"/><path class="cls-1" d="M145.75,235a3.24,3.24,0,1,1-3.23-3.23A3.23,3.23,0,0,1,145.75,235Z"/><path class="cls-1" d="M155,225.69a3.24,3.24,0,1,1-3.24-3.23A3.24,3.24,0,0,1,155,225.69Z"/><path class="cls-1" d="M164.36,225.69a3.24,3.24,0,1,1-3.23-3.23A3.24,3.24,0,0,1,164.36,225.69Z"/><path class="cls-1" d="M173.55,225.69a3.24,3.24,0,1,1-3.24-3.23A3.24,3.24,0,0,1,173.55,225.69Z"/><path class="cls-1" d="M136.56,243.9a3.24,3.24,0,1,1-3.23-3.24A3.24,3.24,0,0,1,136.56,243.9Z"/><path class="cls-1" d="M136.56,253.25a3.24,3.24,0,1,1-3.23-3.24A3.23,3.23,0,0,1,136.56,253.25Z"/><path class="cls-1" d="M108.57,207a3.24,3.24,0,1,1-3.23-3.23A3.23,3.23,0,0,1,108.57,207Z"/><path class="cls-1" d="M108.57,216.35a3.24,3.24,0,1,1-3.23-3.24A3.23,3.23,0,0,1,108.57,216.35Z"/><path class="cls-1" d="M117.76,207a3.24,3.24,0,1,1-3.24-3.23A3.23,3.23,0,0,1,117.76,207Z"/><path class="cls-1" d="M117.76,216.35a3.24,3.24,0,1,1-3.24-3.24A3.24,3.24,0,0,1,117.76,216.35Z"/><path class="cls-1" d="M127,207a3.24,3.24,0,1,1-3.23-3.23A3.22,3.22,0,0,1,127,207Z"/><path class="cls-1" d="M127,216.35a3.24,3.24,0,1,1-3.23-3.24A3.23,3.23,0,0,1,127,216.35Z"/><path class="cls-1" d="M80.1,225.69a3.23,3.23,0,1,1-3.23-3.23A3.23,3.23,0,0,1,80.1,225.69Z"/><path class="cls-1" d="M80.1,235a3.23,3.23,0,1,1-3.23-3.23A3.22,3.22,0,0,1,80.1,235Z"/><path class="cls-1" d="M89.37,225.69a3.24,3.24,0,1,1-3.23-3.23A3.24,3.24,0,0,1,89.37,225.69Z"/><path class="cls-1" d="M99.33,243.9a3.24,3.24,0,1,1-3.24-3.24A3.24,3.24,0,0,1,99.33,243.9Z"/><path class="cls-1" d="M127,243.9a3.24,3.24,0,1,1-3.23-3.24A3.23,3.23,0,0,1,127,243.9Z"/><path class="cls-1" d="M99.33,207a3.24,3.24,0,1,1-3.24-3.23A3.23,3.23,0,0,1,99.33,207Z"/><path class="cls-1" d="M99.33,216.35a3.24,3.24,0,1,1-3.24-3.24A3.24,3.24,0,0,1,99.33,216.35Z"/><path class="cls-1" d="M90.17,207a3.24,3.24,0,1,1-3.23-3.23A3.23,3.23,0,0,1,90.17,207Z"/><path class="cls-1" d="M90.17,216.35a3.24,3.24,0,1,1-3.23-3.24A3.23,3.23,0,0,1,90.17,216.35Z"/><path class="cls-1" d="M80.93,207a3.24,3.24,0,1,1-3.23-3.23A3.23,3.23,0,0,1,80.93,207Z"/><path class="cls-1" d="M71.31,207a3.24,3.24,0,1,1-3.23-3.23A3.23,3.23,0,0,1,71.31,207Z"/><path class="cls-1" d="M80.93,216.35a3.24,3.24,0,1,1-3.23-3.24A3.23,3.23,0,0,1,80.93,216.35Z"/><path class="cls-1" d="M229,207a3.24,3.24,0,1,1-3.23-3.23A3.23,3.23,0,0,1,229,207Z"/><path class="cls-1" d="M182.79,188.76a3.24,3.24,0,1,1-3.23-3.23A3.24,3.24,0,0,1,182.79,188.76Z"/><path class="cls-1" d="M182.79,198.11a3.24,3.24,0,1,1-3.23-3.23A3.23,3.23,0,0,1,182.79,198.11Z"/><path class="cls-1" d="M192,188.76a3.24,3.24,0,1,1-3.24-3.23A3.24,3.24,0,0,1,192,188.76Z"/><path class="cls-1" d="M192,198.11a3.24,3.24,0,1,1-3.24-3.23A3.23,3.23,0,0,1,192,198.11Z"/><path class="cls-1" d="M201.25,188.76a3.24,3.24,0,1,1-3.24-3.23A3.24,3.24,0,0,1,201.25,188.76Z"/><path class="cls-1" d="M201.25,198.11a3.24,3.24,0,1,1-3.24-3.23A3.23,3.23,0,0,1,201.25,198.11Z"/><path class="cls-1" d="M210.59,188.76a3.24,3.24,0,1,1-3.23-3.23A3.24,3.24,0,0,1,210.59,188.76Z"/><path class="cls-1" d="M210.59,198.11a3.24,3.24,0,1,1-3.23-3.23A3.23,3.23,0,0,1,210.59,198.11Z"/><path class="cls-1" d="M219.78,188.76a3.24,3.24,0,1,1-3.24-3.23A3.24,3.24,0,0,1,219.78,188.76Z"/><path class="cls-1" d="M219.78,198.11a3.24,3.24,0,1,1-3.24-3.23A3.23,3.23,0,0,1,219.78,198.11Z"/><path class="cls-1" d="M136.56,188.76a3.24,3.24,0,1,1-3.23-3.23A3.24,3.24,0,0,1,136.56,188.76Z"/><path class="cls-1" d="M136.56,198.11a3.24,3.24,0,1,1-3.23-3.23A3.23,3.23,0,0,1,136.56,198.11Z"/><path class="cls-1" d="M145.75,188.76a3.24,3.24,0,1,1-3.23-3.23A3.24,3.24,0,0,1,145.75,188.76Z"/><path class="cls-1" d="M145.75,198.11a3.24,3.24,0,1,1-3.23-3.23A3.23,3.23,0,0,1,145.75,198.11Z"/><path class="cls-1" d="M155,188.76a3.24,3.24,0,1,1-3.24-3.23A3.24,3.24,0,0,1,155,188.76Z"/><path class="cls-1" d="M155,198.11a3.24,3.24,0,1,1-3.24-3.23A3.23,3.23,0,0,1,155,198.11Z"/><path class="cls-1" d="M164.36,188.76a3.24,3.24,0,1,1-3.23-3.23A3.24,3.24,0,0,1,164.36,188.76Z"/><path class="cls-1" d="M164.36,198.11a3.24,3.24,0,1,1-3.23-3.23A3.23,3.23,0,0,1,164.36,198.11Z"/><path class="cls-1" d="M173.55,188.76a3.24,3.24,0,1,1-3.24-3.23A3.24,3.24,0,0,1,173.55,188.76Z"/><path class="cls-1" d="M173.55,198.11a3.24,3.24,0,1,1-3.24-3.23A3.23,3.23,0,0,1,173.55,198.11Z"/><path class="cls-1" d="M108.57,188.76a3.24,3.24,0,1,1-3.23-3.23A3.24,3.24,0,0,1,108.57,188.76Z"/><circle class="cls-2" cx="105.34" cy="198.11" r="3.23"/><path class="cls-1" d="M117.76,188.76a3.24,3.24,0,1,1-3.24-3.23A3.24,3.24,0,0,1,117.76,188.76Z"/><path class="cls-1" d="M117.76,198.11a3.24,3.24,0,1,1-3.24-3.23A3.23,3.23,0,0,1,117.76,198.11Z"/><path class="cls-1" d="M108.57,243.15a3.24,3.24,0,1,1-3.23-3.23A3.24,3.24,0,0,1,108.57,243.15Z"/><path class="cls-1" d="M108.57,252.5a3.24,3.24,0,1,1-3.23-3.23A3.23,3.23,0,0,1,108.57,252.5Z"/><path class="cls-1" d="M117.76,243.15a3.24,3.24,0,1,1-3.24-3.23A3.24,3.24,0,0,1,117.76,243.15Z"/><path class="cls-1" d="M117.76,252.5a3.24,3.24,0,1,1-3.24-3.23A3.23,3.23,0,0,1,117.76,252.5Z"/><path class="cls-1" d="M108.57,224.92a3.24,3.24,0,1,1-3.23-3.24A3.23,3.23,0,0,1,108.57,224.92Z"/><path class="cls-1" d="M108.57,234.26a3.24,3.24,0,1,1-3.23-3.23A3.24,3.24,0,0,1,108.57,234.26Z"/><path class="cls-1" d="M117.76,224.92a3.24,3.24,0,1,1-3.24-3.24A3.24,3.24,0,0,1,117.76,224.92Z"/><path class="cls-1" d="M117.76,234.26a3.24,3.24,0,1,1-3.24-3.23A3.24,3.24,0,0,1,117.76,234.26Z"/><path class="cls-1" d="M127,188.76a3.24,3.24,0,1,1-3.23-3.23A3.23,3.23,0,0,1,127,188.76Z"/><circle class="cls-2" cx="123.79" cy="198.11" r="3.23"/><path class="cls-1" d="M90.14,188.76a3.24,3.24,0,1,1-3.23-3.23A3.24,3.24,0,0,1,90.14,188.76Z"/><path class="cls-1" d="M90.14,198.11a3.24,3.24,0,1,1-3.23-3.23A3.23,3.23,0,0,1,90.14,198.11Z"/><path class="cls-1" d="M99.33,188.76a3.24,3.24,0,1,1-3.24-3.23A3.24,3.24,0,0,1,99.33,188.76Z"/><path class="cls-1" d="M99.33,198.11a3.24,3.24,0,1,1-3.24-3.23A3.23,3.23,0,0,1,99.33,198.11Z"/><path class="cls-1" d="M229,188.76a3.24,3.24,0,1,1-3.23-3.23A3.24,3.24,0,0,1,229,188.76Z"/><path class="cls-1" d="M229,198.11a3.24,3.24,0,1,1-3.23-3.23A3.23,3.23,0,0,1,229,198.11Z"/><path class="cls-1" d="M238,188.76a3.24,3.24,0,1,1-3.23-3.23A3.24,3.24,0,0,1,238,188.76Z"/><path class="cls-1" d="M238,198.11a3.24,3.24,0,1,1-3.23-3.23A3.23,3.23,0,0,1,238,198.11Z"/><path class="cls-1" d="M182.79,169.68a3.24,3.24,0,1,1-3.23-3.24A3.23,3.23,0,0,1,182.79,169.68Z"/><path class="cls-1" d="M182.79,179a3.24,3.24,0,1,1-3.23-3.24A3.23,3.23,0,0,1,182.79,179Z"/><path class="cls-1" d="M192,169.68a3.24,3.24,0,1,1-3.24-3.24A3.23,3.23,0,0,1,192,169.68Z"/><path class="cls-1" d="M192,179a3.24,3.24,0,1,1-3.24-3.24A3.24,3.24,0,0,1,192,179Z"/><path class="cls-1" d="M201.25,169.68a3.24,3.24,0,1,1-3.24-3.24A3.23,3.23,0,0,1,201.25,169.68Z"/><path class="cls-1" d="M201.25,179a3.24,3.24,0,1,1-3.24-3.24A3.24,3.24,0,0,1,201.25,179Z"/><path class="cls-1" d="M210.59,169.68a3.24,3.24,0,1,1-3.23-3.24A3.23,3.23,0,0,1,210.59,169.68Z"/><path class="cls-1" d="M210.59,179a3.24,3.24,0,1,1-3.23-3.24A3.23,3.23,0,0,1,210.59,179Z"/><path class="cls-1" d="M219.78,169.68a3.24,3.24,0,1,1-3.24-3.24A3.23,3.23,0,0,1,219.78,169.68Z"/><path class="cls-1" d="M219.78,179a3.24,3.24,0,1,1-3.24-3.24A3.24,3.24,0,0,1,219.78,179Z"/><path class="cls-1" d="M136.56,169.68a3.24,3.24,0,1,1-3.23-3.24A3.23,3.23,0,0,1,136.56,169.68Z"/><path class="cls-1" d="M136.56,179a3.24,3.24,0,1,1-3.23-3.24A3.23,3.23,0,0,1,136.56,179Z"/><path class="cls-1" d="M145.75,169.68a3.24,3.24,0,1,1-3.23-3.24A3.23,3.23,0,0,1,145.75,169.68Z"/><path class="cls-1" d="M145.75,179a3.24,3.24,0,1,1-3.23-3.24A3.23,3.23,0,0,1,145.75,179Z"/><path class="cls-1" d="M155,169.68a3.24,3.24,0,1,1-3.24-3.24A3.23,3.23,0,0,1,155,169.68Z"/><path class="cls-1" d="M155,179a3.24,3.24,0,1,1-3.24-3.24A3.24,3.24,0,0,1,155,179Z"/><path class="cls-1" d="M164.36,169.68a3.24,3.24,0,1,1-3.23-3.24A3.23,3.23,0,0,1,164.36,169.68Z"/><path class="cls-1" d="M164.36,179a3.24,3.24,0,1,1-3.23-3.24A3.23,3.23,0,0,1,164.36,179Z"/><path class="cls-1" d="M173.55,169.68a3.24,3.24,0,1,1-3.24-3.24A3.23,3.23,0,0,1,173.55,169.68Z"/><path class="cls-1" d="M173.55,179a3.24,3.24,0,1,1-3.24-3.24A3.24,3.24,0,0,1,173.55,179Z"/><path class="cls-1" d="M108.57,169.68a3.24,3.24,0,1,1-3.23-3.24A3.23,3.23,0,0,1,108.57,169.68Z"/><path class="cls-1" d="M108.57,179a3.24,3.24,0,1,1-3.23-3.24A3.23,3.23,0,0,1,108.57,179Z"/><path class="cls-1" d="M117.76,169.68a3.24,3.24,0,1,1-3.24-3.24A3.23,3.23,0,0,1,117.76,169.68Z"/><path class="cls-1" d="M117.76,179a3.24,3.24,0,1,1-3.24-3.24A3.24,3.24,0,0,1,117.76,179Z"/><path class="cls-1" d="M127,169.68a3.24,3.24,0,1,1-3.23-3.24A3.22,3.22,0,0,1,127,169.68Z"/><path class="cls-1" d="M127,179a3.24,3.24,0,1,1-3.23-3.24A3.23,3.23,0,0,1,127,179Z"/><path class="cls-1" d="M90.14,169.68a3.24,3.24,0,1,1-3.23-3.24A3.23,3.23,0,0,1,90.14,169.68Z"/><path class="cls-1" d="M90.14,179a3.24,3.24,0,1,1-3.23-3.24A3.23,3.23,0,0,1,90.14,179Z"/><path class="cls-1" d="M99.33,169.68a3.24,3.24,0,1,1-3.24-3.24A3.23,3.23,0,0,1,99.33,169.68Z"/><path class="cls-1" d="M99.33,179a3.24,3.24,0,1,1-3.24-3.24A3.24,3.24,0,0,1,99.33,179Z"/><path class="cls-1" d="M182.79,151.12a3.24,3.24,0,1,1-3.23-3.23A3.24,3.24,0,0,1,182.79,151.12Z"/><path class="cls-1" d="M182.79,160.47a3.24,3.24,0,1,1-3.23-3.24A3.24,3.24,0,0,1,182.79,160.47Z"/><path class="cls-1" d="M192,151.12a3.24,3.24,0,1,1-3.24-3.23A3.24,3.24,0,0,1,192,151.12Z"/><path class="cls-1" d="M192,160.47a3.24,3.24,0,1,1-3.24-3.24A3.24,3.24,0,0,1,192,160.47Z"/><path class="cls-1" d="M201.25,151.12a3.24,3.24,0,1,1-3.24-3.23A3.24,3.24,0,0,1,201.25,151.12Z"/><path class="cls-1" d="M201.25,160.47a3.24,3.24,0,1,1-3.24-3.24A3.24,3.24,0,0,1,201.25,160.47Z"/><path class="cls-1" d="M210.59,151.12a3.24,3.24,0,1,1-3.23-3.23A3.24,3.24,0,0,1,210.59,151.12Z"/><path class="cls-1" d="M210.59,160.47a3.24,3.24,0,1,1-3.23-3.24A3.24,3.24,0,0,1,210.59,160.47Z"/><path class="cls-1" d="M219.78,151.12a3.24,3.24,0,1,1-3.24-3.23A3.24,3.24,0,0,1,219.78,151.12Z"/><path class="cls-1" d="M219.78,160.47a3.24,3.24,0,1,1-3.24-3.24A3.24,3.24,0,0,1,219.78,160.47Z"/><path class="cls-1" d="M136.56,151.12a3.24,3.24,0,1,1-3.23-3.23A3.24,3.24,0,0,1,136.56,151.12Z"/><path class="cls-1" d="M136.56,160.47a3.24,3.24,0,1,1-3.23-3.24A3.24,3.24,0,0,1,136.56,160.47Z"/><path class="cls-1" d="M145.75,151.12a3.24,3.24,0,1,1-3.23-3.23A3.24,3.24,0,0,1,145.75,151.12Z"/><path class="cls-1" d="M145.75,160.47a3.24,3.24,0,1,1-3.23-3.24A3.24,3.24,0,0,1,145.75,160.47Z"/><path class="cls-1" d="M155,151.12a3.24,3.24,0,1,1-3.24-3.23A3.24,3.24,0,0,1,155,151.12Z"/><path class="cls-1" d="M155,160.47a3.24,3.24,0,1,1-3.24-3.24A3.24,3.24,0,0,1,155,160.47Z"/><path class="cls-1" d="M164.36,151.12a3.24,3.24,0,1,1-3.23-3.23A3.24,3.24,0,0,1,164.36,151.12Z"/><path class="cls-1" d="M164.36,160.47a3.24,3.24,0,1,1-3.23-3.24A3.24,3.24,0,0,1,164.36,160.47Z"/><path class="cls-1" d="M173.55,151.12a3.24,3.24,0,1,1-3.24-3.23A3.24,3.24,0,0,1,173.55,151.12Z"/><path class="cls-1" d="M173.55,160.47a3.24,3.24,0,1,1-3.24-3.24A3.24,3.24,0,0,1,173.55,160.47Z"/><path class="cls-1" d="M108.57,151.12a3.24,3.24,0,1,1-3.23-3.23A3.24,3.24,0,0,1,108.57,151.12Z"/><path class="cls-1" d="M108.57,160.47a3.24,3.24,0,1,1-3.23-3.24A3.24,3.24,0,0,1,108.57,160.47Z"/><path class="cls-1" d="M117.76,151.12a3.24,3.24,0,1,1-3.24-3.23A3.24,3.24,0,0,1,117.76,151.12Z"/><path class="cls-1" d="M117.76,160.47a3.24,3.24,0,1,1-3.24-3.24A3.24,3.24,0,0,1,117.76,160.47Z"/><path class="cls-1" d="M127,151.12a3.24,3.24,0,1,1-3.23-3.23A3.23,3.23,0,0,1,127,151.12Z"/><path class="cls-1" d="M127,160.47a3.24,3.24,0,1,1-3.23-3.24A3.23,3.23,0,0,1,127,160.47Z"/><path class="cls-1" d="M99.33,151.12a3.24,3.24,0,1,1-3.24-3.23A3.24,3.24,0,0,1,99.33,151.12Z"/><path class="cls-1" d="M99.33,160.47a3.24,3.24,0,1,1-3.24-3.24A3.24,3.24,0,0,1,99.33,160.47Z"/><path class="cls-1" d="M90.17,151.12a3.24,3.24,0,1,1-3.23-3.23A3.24,3.24,0,0,1,90.17,151.12Z"/><path class="cls-1" d="M90.17,160.47a3.24,3.24,0,1,1-3.23-3.24A3.24,3.24,0,0,1,90.17,160.47Z"/><path class="cls-1" d="M80.93,151.12a3.24,3.24,0,1,1-3.24-3.23A3.24,3.24,0,0,1,80.93,151.12Z"/><path class="cls-1" d="M80.93,160.47a3.24,3.24,0,1,1-3.24-3.24A3.24,3.24,0,0,1,80.93,160.47Z"/><path class="cls-1" d="M71.77,160.47a3.24,3.24,0,1,1-3.23-3.24A3.23,3.23,0,0,1,71.77,160.47Z"/><path class="cls-1" d="M182.79,132.88a3.24,3.24,0,1,1-3.23-3.23A3.24,3.24,0,0,1,182.79,132.88Z"/><path class="cls-1" d="M182.79,142.23a3.24,3.24,0,1,1-3.23-3.23A3.24,3.24,0,0,1,182.79,142.23Z"/><path class="cls-1" d="M192,132.88a3.24,3.24,0,1,1-3.24-3.23A3.24,3.24,0,0,1,192,132.88Z"/><path class="cls-1" d="M192,142.23a3.24,3.24,0,1,1-3.24-3.23A3.24,3.24,0,0,1,192,142.23Z"/><path class="cls-1" d="M201.25,132.88a3.24,3.24,0,1,1-3.24-3.23A3.24,3.24,0,0,1,201.25,132.88Z"/><path class="cls-1" d="M201.25,142.23A3.24,3.24,0,1,1,198,139,3.24,3.24,0,0,1,201.25,142.23Z"/><path class="cls-1" d="M210.59,132.88a3.24,3.24,0,1,1-3.23-3.23A3.24,3.24,0,0,1,210.59,132.88Z"/><path class="cls-1" d="M210.59,142.23a3.24,3.24,0,1,1-3.23-3.23A3.24,3.24,0,0,1,210.59,142.23Z"/><path class="cls-1" d="M219.78,132.88a3.24,3.24,0,1,1-3.24-3.23A3.24,3.24,0,0,1,219.78,132.88Z"/><path class="cls-1" d="M219.78,142.23a3.24,3.24,0,1,1-3.24-3.23A3.24,3.24,0,0,1,219.78,142.23Z"/><path class="cls-1" d="M136.56,132.88a3.24,3.24,0,1,1-3.23-3.23A3.24,3.24,0,0,1,136.56,132.88Z"/><path class="cls-1" d="M136.56,142.23a3.24,3.24,0,1,1-3.23-3.23A3.24,3.24,0,0,1,136.56,142.23Z"/><path class="cls-1" d="M145.75,132.88a3.24,3.24,0,1,1-3.23-3.23A3.24,3.24,0,0,1,145.75,132.88Z"/><path class="cls-1" d="M145.75,142.23a3.24,3.24,0,1,1-3.23-3.23A3.24,3.24,0,0,1,145.75,142.23Z"/><path class="cls-1" d="M155,132.88a3.24,3.24,0,1,1-3.24-3.23A3.24,3.24,0,0,1,155,132.88Z"/><path class="cls-1" d="M155,142.23a3.24,3.24,0,1,1-3.24-3.23A3.24,3.24,0,0,1,155,142.23Z"/><path class="cls-1" d="M164.36,132.88a3.24,3.24,0,1,1-3.23-3.23A3.24,3.24,0,0,1,164.36,132.88Z"/><path class="cls-1" d="M164.36,142.23a3.24,3.24,0,1,1-3.23-3.23A3.24,3.24,0,0,1,164.36,142.23Z"/><path class="cls-1" d="M173.55,132.88a3.24,3.24,0,1,1-3.24-3.23A3.24,3.24,0,0,1,173.55,132.88Z"/><path class="cls-1" d="M173.55,142.23a3.24,3.24,0,1,1-3.24-3.23A3.24,3.24,0,0,1,173.55,142.23Z"/><path class="cls-1" d="M108.57,132.88a3.24,3.24,0,1,1-3.23-3.23A3.24,3.24,0,0,1,108.57,132.88Z"/><path class="cls-1" d="M108.57,142.23a3.24,3.24,0,1,1-3.23-3.23A3.24,3.24,0,0,1,108.57,142.23Z"/><path class="cls-1" d="M117.76,132.88a3.24,3.24,0,1,1-3.24-3.23A3.24,3.24,0,0,1,117.76,132.88Z"/><path class="cls-1" d="M117.76,142.23a3.24,3.24,0,1,1-3.24-3.23A3.24,3.24,0,0,1,117.76,142.23Z"/><path class="cls-1" d="M127,132.88a3.24,3.24,0,1,1-3.23-3.23A3.23,3.23,0,0,1,127,132.88Z"/><path class="cls-1" d="M127,142.23a3.24,3.24,0,1,1-3.23-3.23A3.23,3.23,0,0,1,127,142.23Z"/><path class="cls-1" d="M90.14,132.88a3.24,3.24,0,1,1-3.23-3.23A3.24,3.24,0,0,1,90.14,132.88Z"/><path class="cls-1" d="M90.14,142.23A3.24,3.24,0,1,1,86.91,139,3.24,3.24,0,0,1,90.14,142.23Z"/><path class="cls-1" d="M99.33,132.88a3.24,3.24,0,1,1-3.24-3.23A3.24,3.24,0,0,1,99.33,132.88Z"/><path class="cls-1" d="M99.33,142.23A3.24,3.24,0,1,1,96.09,139,3.24,3.24,0,0,1,99.33,142.23Z"/><path class="cls-1" d="M182.79,113.8a3.24,3.24,0,1,1-3.23-3.23A3.24,3.24,0,0,1,182.79,113.8Z"/><path class="cls-1" d="M182.79,123.15a3.24,3.24,0,1,1-3.23-3.24A3.23,3.23,0,0,1,182.79,123.15Z"/><path class="cls-1" d="M192,113.8a3.24,3.24,0,1,1-3.24-3.23A3.24,3.24,0,0,1,192,113.8Z"/><path class="cls-1" d="M192,123.15a3.24,3.24,0,1,1-3.24-3.24A3.23,3.23,0,0,1,192,123.15Z"/><path class="cls-1" d="M201.25,113.8a3.24,3.24,0,1,1-3.24-3.23A3.24,3.24,0,0,1,201.25,113.8Z"/><path class="cls-1" d="M201.25,123.15a3.24,3.24,0,1,1-3.24-3.24A3.23,3.23,0,0,1,201.25,123.15Z"/><path class="cls-1" d="M210.59,113.8a3.24,3.24,0,1,1-3.23-3.23A3.24,3.24,0,0,1,210.59,113.8Z"/><path class="cls-1" d="M210.59,123.15a3.24,3.24,0,1,1-3.23-3.24A3.23,3.23,0,0,1,210.59,123.15Z"/><path class="cls-1" d="M219.78,113.8a3.24,3.24,0,1,1-3.24-3.23A3.24,3.24,0,0,1,219.78,113.8Z"/><path class="cls-1" d="M219.78,123.15a3.24,3.24,0,1,1-3.24-3.24A3.23,3.23,0,0,1,219.78,123.15Z"/><path class="cls-1" d="M136.56,113.8a3.24,3.24,0,1,1-3.23-3.23A3.24,3.24,0,0,1,136.56,113.8Z"/><path class="cls-1" d="M136.56,123.15a3.24,3.24,0,1,1-3.23-3.24A3.23,3.23,0,0,1,136.56,123.15Z"/><path class="cls-1" d="M145.75,113.8a3.24,3.24,0,1,1-3.23-3.23A3.24,3.24,0,0,1,145.75,113.8Z"/><path class="cls-1" d="M145.75,123.15a3.24,3.24,0,1,1-3.23-3.24A3.23,3.23,0,0,1,145.75,123.15Z"/><path class="cls-1" d="M155,113.8a3.24,3.24,0,1,1-3.24-3.23A3.24,3.24,0,0,1,155,113.8Z"/><path class="cls-1" d="M155,123.15a3.24,3.24,0,1,1-3.24-3.24A3.23,3.23,0,0,1,155,123.15Z"/><path class="cls-1" d="M164.36,113.8a3.24,3.24,0,1,1-3.23-3.23A3.24,3.24,0,0,1,164.36,113.8Z"/><path class="cls-1" d="M164.36,123.15a3.24,3.24,0,1,1-3.23-3.24A3.23,3.23,0,0,1,164.36,123.15Z"/><path class="cls-1" d="M173.55,113.8a3.24,3.24,0,1,1-3.24-3.23A3.24,3.24,0,0,1,173.55,113.8Z"/><path class="cls-1" d="M173.55,123.15a3.24,3.24,0,1,1-3.24-3.24A3.23,3.23,0,0,1,173.55,123.15Z"/><path class="cls-1" d="M108.57,113.8a3.24,3.24,0,1,1-3.23-3.23A3.24,3.24,0,0,1,108.57,113.8Z"/><path class="cls-1" d="M108.57,123.15a3.24,3.24,0,1,1-3.23-3.24A3.23,3.23,0,0,1,108.57,123.15Z"/><path class="cls-1" d="M117.76,113.8a3.24,3.24,0,1,1-3.24-3.23A3.24,3.24,0,0,1,117.76,113.8Z"/><path class="cls-1" d="M117.76,123.15a3.24,3.24,0,1,1-3.24-3.24A3.23,3.23,0,0,1,117.76,123.15Z"/><path class="cls-1" d="M127,113.8a3.24,3.24,0,1,1-3.23-3.23A3.23,3.23,0,0,1,127,113.8Z"/><path class="cls-1" d="M127,123.15a3.24,3.24,0,1,1-3.23-3.24A3.22,3.22,0,0,1,127,123.15Z"/><path class="cls-1" d="M90.14,113.8a3.24,3.24,0,1,1-3.23-3.23A3.24,3.24,0,0,1,90.14,113.8Z"/><path class="cls-1" d="M90.14,123.15a3.24,3.24,0,1,1-3.23-3.24A3.23,3.23,0,0,1,90.14,123.15Z"/><path class="cls-1" d="M99.33,113.8a3.24,3.24,0,1,1-3.24-3.23A3.24,3.24,0,0,1,99.33,113.8Z"/><path class="cls-1" d="M99.33,123.15a3.24,3.24,0,1,1-3.24-3.24A3.23,3.23,0,0,1,99.33,123.15Z"/><path class="cls-1" d="M182.79,95.93a3.24,3.24,0,1,1-3.23-3.24A3.23,3.23,0,0,1,182.79,95.93Z"/><path class="cls-1" d="M182.79,105.28a3.24,3.24,0,1,1-3.23-3.24A3.23,3.23,0,0,1,182.79,105.28Z"/><path class="cls-1" d="M192,95.93a3.24,3.24,0,1,1-3.24-3.24A3.23,3.23,0,0,1,192,95.93Z"/><path class="cls-1" d="M192,105.28a3.24,3.24,0,1,1-3.24-3.24A3.24,3.24,0,0,1,192,105.28Z"/><path class="cls-1" d="M201.25,95.93A3.24,3.24,0,1,1,198,92.69,3.23,3.23,0,0,1,201.25,95.93Z"/><path class="cls-1" d="M201.25,105.28A3.24,3.24,0,1,1,198,102,3.24,3.24,0,0,1,201.25,105.28Z"/><path class="cls-1" d="M210.59,95.93a3.24,3.24,0,1,1-3.23-3.24A3.23,3.23,0,0,1,210.59,95.93Z"/><path class="cls-1" d="M210.59,105.28a3.24,3.24,0,1,1-3.23-3.24A3.23,3.23,0,0,1,210.59,105.28Z"/><path class="cls-1" d="M219.78,95.93a3.24,3.24,0,1,1-3.24-3.24A3.23,3.23,0,0,1,219.78,95.93Z"/><path class="cls-1" d="M219.78,105.28a3.24,3.24,0,1,1-3.24-3.24A3.24,3.24,0,0,1,219.78,105.28Z"/><path class="cls-1" d="M136.56,95.93a3.24,3.24,0,1,1-3.23-3.24A3.23,3.23,0,0,1,136.56,95.93Z"/><path class="cls-1" d="M136.56,105.28a3.24,3.24,0,1,1-3.23-3.24A3.23,3.23,0,0,1,136.56,105.28Z"/><path class="cls-1" d="M145.75,95.93a3.24,3.24,0,1,1-3.23-3.24A3.23,3.23,0,0,1,145.75,95.93Z"/><path class="cls-1" d="M145.75,105.28a3.24,3.24,0,1,1-3.23-3.24A3.23,3.23,0,0,1,145.75,105.28Z"/><path class="cls-1" d="M155,95.93a3.24,3.24,0,1,1-3.24-3.24A3.23,3.23,0,0,1,155,95.93Z"/><path class="cls-1" d="M155,105.28a3.24,3.24,0,1,1-3.24-3.24A3.24,3.24,0,0,1,155,105.28Z"/><path class="cls-1" d="M164.36,95.93a3.24,3.24,0,1,1-3.23-3.24A3.23,3.23,0,0,1,164.36,95.93Z"/><path class="cls-1" d="M164.36,105.28a3.24,3.24,0,1,1-3.23-3.24A3.23,3.23,0,0,1,164.36,105.28Z"/><path class="cls-1" d="M173.55,95.93a3.24,3.24,0,1,1-3.24-3.24A3.23,3.23,0,0,1,173.55,95.93Z"/><path class="cls-1" d="M173.55,105.28a3.24,3.24,0,1,1-3.24-3.24A3.24,3.24,0,0,1,173.55,105.28Z"/><path class="cls-1" d="M108.57,95.93a3.24,3.24,0,1,1-3.23-3.24A3.23,3.23,0,0,1,108.57,95.93Z"/><path class="cls-1" d="M108.57,105.28a3.24,3.24,0,1,1-3.23-3.24A3.23,3.23,0,0,1,108.57,105.28Z"/><path class="cls-1" d="M117.76,95.93a3.24,3.24,0,1,1-3.24-3.24A3.23,3.23,0,0,1,117.76,95.93Z"/><path class="cls-1" d="M117.76,105.28a3.24,3.24,0,1,1-3.24-3.24A3.24,3.24,0,0,1,117.76,105.28Z"/><path class="cls-1" d="M127,95.93a3.24,3.24,0,1,1-3.23-3.24A3.22,3.22,0,0,1,127,95.93Z"/><path class="cls-1" d="M127,105.28a3.24,3.24,0,1,1-3.23-3.24A3.23,3.23,0,0,1,127,105.28Z"/><path class="cls-1" d="M99.33,95.93a3.24,3.24,0,1,1-3.24-3.24A3.23,3.23,0,0,1,99.33,95.93Z"/><path class="cls-1" d="M99.33,105.28A3.24,3.24,0,1,1,96.09,102,3.24,3.24,0,0,1,99.33,105.28Z"/><path class="cls-1" d="M90.17,95.93a3.24,3.24,0,1,1-3.23-3.24A3.23,3.23,0,0,1,90.17,95.93Z"/><path class="cls-1" d="M90.17,105.28A3.24,3.24,0,1,1,86.94,102,3.23,3.23,0,0,1,90.17,105.28Z"/><path class="cls-1" d="M182.79,77.69a3.24,3.24,0,1,1-3.23-3.23A3.24,3.24,0,0,1,182.79,77.69Z"/><path class="cls-1" d="M182.79,87a3.24,3.24,0,1,1-3.23-3.24A3.23,3.23,0,0,1,182.79,87Z"/><path class="cls-1" d="M192,77.69a3.24,3.24,0,1,1-3.24-3.23A3.24,3.24,0,0,1,192,77.69Z"/><path class="cls-1" d="M192,87a3.24,3.24,0,1,1-3.24-3.24A3.23,3.23,0,0,1,192,87Z"/><path class="cls-1" d="M201.25,77.69A3.24,3.24,0,1,1,198,74.46,3.24,3.24,0,0,1,201.25,77.69Z"/><path class="cls-1" d="M201.25,87A3.24,3.24,0,1,1,198,83.8,3.23,3.23,0,0,1,201.25,87Z"/><path class="cls-1" d="M210.59,77.69a3.24,3.24,0,1,1-3.23-3.23A3.24,3.24,0,0,1,210.59,77.69Z"/><path class="cls-1" d="M210.59,87a3.24,3.24,0,1,1-3.23-3.24A3.23,3.23,0,0,1,210.59,87Z"/><path class="cls-1" d="M219.78,77.69a3.24,3.24,0,1,1-3.24-3.23A3.24,3.24,0,0,1,219.78,77.69Z"/><path class="cls-1" d="M219.78,87a3.24,3.24,0,1,1-3.24-3.24A3.23,3.23,0,0,1,219.78,87Z"/><path class="cls-1" d="M136.56,77.69a3.24,3.24,0,1,1-3.23-3.23A3.24,3.24,0,0,1,136.56,77.69Z"/><path class="cls-1" d="M136.56,87a3.24,3.24,0,1,1-3.23-3.24A3.23,3.23,0,0,1,136.56,87Z"/><path class="cls-1" d="M145.75,77.69a3.24,3.24,0,1,1-3.23-3.23A3.24,3.24,0,0,1,145.75,77.69Z"/><path class="cls-1" d="M145.75,87a3.24,3.24,0,1,1-3.23-3.24A3.23,3.23,0,0,1,145.75,87Z"/><path class="cls-1" d="M155,77.69a3.24,3.24,0,1,1-3.24-3.23A3.24,3.24,0,0,1,155,77.69Z"/><path class="cls-1" d="M155,87a3.24,3.24,0,1,1-3.24-3.24A3.23,3.23,0,0,1,155,87Z"/><path class="cls-1" d="M164.36,77.69a3.24,3.24,0,1,1-3.23-3.23A3.24,3.24,0,0,1,164.36,77.69Z"/><path class="cls-1" d="M164.36,87a3.24,3.24,0,1,1-3.23-3.24A3.23,3.23,0,0,1,164.36,87Z"/><path class="cls-1" d="M173.55,77.69a3.24,3.24,0,1,1-3.24-3.23A3.24,3.24,0,0,1,173.55,77.69Z"/><path class="cls-1" d="M173.55,87a3.24,3.24,0,1,1-3.24-3.24A3.23,3.23,0,0,1,173.55,87Z"/><path class="cls-1" d="M108.57,77.69a3.24,3.24,0,1,1-3.23-3.23A3.24,3.24,0,0,1,108.57,77.69Z"/><path class="cls-1" d="M108.57,87a3.24,3.24,0,1,1-3.23-3.24A3.23,3.23,0,0,1,108.57,87Z"/><path class="cls-1" d="M117.76,77.69a3.24,3.24,0,1,1-3.24-3.23A3.24,3.24,0,0,1,117.76,77.69Z"/><path class="cls-1" d="M117.76,87a3.24,3.24,0,1,1-3.24-3.24A3.23,3.23,0,0,1,117.76,87Z"/><path class="cls-1" d="M127,77.69a3.24,3.24,0,1,1-3.23-3.23A3.23,3.23,0,0,1,127,77.69Z"/><path class="cls-1" d="M127,87a3.24,3.24,0,1,1-3.23-3.24A3.22,3.22,0,0,1,127,87Z"/><path class="cls-1" d="M90.14,77.69a3.24,3.24,0,1,1-3.23-3.23A3.24,3.24,0,0,1,90.14,77.69Z"/><path class="cls-1" d="M90.14,87a3.24,3.24,0,1,1-3.23-3.24A3.23,3.23,0,0,1,90.14,87Z"/><path class="cls-1" d="M99.33,77.69a3.24,3.24,0,1,1-3.24-3.23A3.24,3.24,0,0,1,99.33,77.69Z"/><path class="cls-1" d="M99.33,87a3.24,3.24,0,1,1-3.24-3.24A3.23,3.23,0,0,1,99.33,87Z"/><path class="cls-1" d="M182.79,58.61a3.24,3.24,0,1,1-3.23-3.24A3.23,3.23,0,0,1,182.79,58.61Z"/><path class="cls-1" d="M182.79,68a3.24,3.24,0,1,1-3.23-3.23A3.24,3.24,0,0,1,182.79,68Z"/><path class="cls-1" d="M192,58.61a3.24,3.24,0,1,1-3.24-3.24A3.24,3.24,0,0,1,192,58.61Z"/><path class="cls-1" d="M192,68a3.24,3.24,0,1,1-3.24-3.23A3.24,3.24,0,0,1,192,68Z"/><path class="cls-1" d="M201.25,58.61A3.24,3.24,0,1,1,198,55.37,3.24,3.24,0,0,1,201.25,58.61Z"/><path class="cls-1" d="M201.25,68A3.24,3.24,0,1,1,198,64.72,3.24,3.24,0,0,1,201.25,68Z"/><path class="cls-1" d="M210.59,58.61a3.24,3.24,0,1,1-3.23-3.24A3.23,3.23,0,0,1,210.59,58.61Z"/><path class="cls-1" d="M210.59,68a3.24,3.24,0,1,1-3.23-3.23A3.24,3.24,0,0,1,210.59,68Z"/><path class="cls-1" d="M219.78,58.61a3.24,3.24,0,1,1-3.24-3.24A3.24,3.24,0,0,1,219.78,58.61Z"/><path class="cls-1" d="M219.78,68a3.24,3.24,0,1,1-3.24-3.23A3.24,3.24,0,0,1,219.78,68Z"/><path class="cls-1" d="M136.56,58.61a3.24,3.24,0,1,1-3.23-3.24A3.23,3.23,0,0,1,136.56,58.61Z"/><path class="cls-1" d="M136.56,68a3.24,3.24,0,1,1-3.23-3.23A3.24,3.24,0,0,1,136.56,68Z"/><path class="cls-1" d="M145.75,58.61a3.24,3.24,0,1,1-3.23-3.24A3.23,3.23,0,0,1,145.75,58.61Z"/><path class="cls-1" d="M145.75,68a3.24,3.24,0,1,1-3.23-3.23A3.24,3.24,0,0,1,145.75,68Z"/><path class="cls-1" d="M155,58.61a3.24,3.24,0,1,1-3.24-3.24A3.24,3.24,0,0,1,155,58.61Z"/><path class="cls-1" d="M155,68a3.24,3.24,0,1,1-3.24-3.23A3.24,3.24,0,0,1,155,68Z"/><path class="cls-1" d="M164.36,58.61a3.24,3.24,0,1,1-3.23-3.24A3.23,3.23,0,0,1,164.36,58.61Z"/><path class="cls-1" d="M164.36,68a3.24,3.24,0,1,1-3.23-3.23A3.24,3.24,0,0,1,164.36,68Z"/><path class="cls-1" d="M173.55,58.61a3.24,3.24,0,1,1-3.24-3.24A3.24,3.24,0,0,1,173.55,58.61Z"/><path class="cls-1" d="M182.79,49.72a3.24,3.24,0,1,1-3.23-3.24A3.23,3.23,0,0,1,182.79,49.72Z"/><path class="cls-1" d="M145.75,49.72a3.24,3.24,0,1,1-3.23-3.24A3.23,3.23,0,0,1,145.75,49.72Z"/><path class="cls-1" d="M155,49.72a3.24,3.24,0,1,1-3.24-3.24A3.24,3.24,0,0,1,155,49.72Z"/><path class="cls-1" d="M164.36,49.72a3.24,3.24,0,1,1-3.23-3.24A3.23,3.23,0,0,1,164.36,49.72Z"/><path class="cls-1" d="M173.55,49.72a3.24,3.24,0,1,1-3.24-3.24A3.24,3.24,0,0,1,173.55,49.72Z"/><path class="cls-1" d="M173.55,68a3.24,3.24,0,1,1-3.24-3.23A3.24,3.24,0,0,1,173.55,68Z"/><path class="cls-1" d="M256.31,169.68a3.24,3.24,0,1,1-3.24-3.24A3.23,3.23,0,0,1,256.31,169.68Z"/><path class="cls-1" d="M265.5,169.68a3.24,3.24,0,1,1-3.24-3.24A3.23,3.23,0,0,1,265.5,169.68Z"/><path class="cls-1" d="M228.53,169.68a3.24,3.24,0,1,1-3.23-3.24A3.23,3.23,0,0,1,228.53,169.68Z"/><path class="cls-1" d="M237.88,169.68a3.24,3.24,0,1,1-3.24-3.24A3.23,3.23,0,0,1,237.88,169.68Z"/><path class="cls-1" d="M247.07,169.68a3.24,3.24,0,1,1-3.24-3.24A3.23,3.23,0,0,1,247.07,169.68Z"/><path class="cls-1" d="M256.31,179.09a3.24,3.24,0,1,1-3.24-3.23A3.24,3.24,0,0,1,256.31,179.09Z"/><path class="cls-1" d="M237.88,179.09a3.24,3.24,0,1,1-3.24-3.23A3.24,3.24,0,0,1,237.88,179.09Z"/><path class="cls-1" d="M247.07,179.09a3.24,3.24,0,1,1-3.24-3.23A3.24,3.24,0,0,1,247.07,179.09Z"/><path class="cls-1" d="M256.31,151.12a3.24,3.24,0,1,1-3.24-3.23A3.24,3.24,0,0,1,256.31,151.12Z"/><path class="cls-1" d="M256.31,160.47a3.24,3.24,0,1,1-3.24-3.24A3.24,3.24,0,0,1,256.31,160.47Z"/><path class="cls-1" d="M265.5,151.12a3.24,3.24,0,1,1-3.24-3.23A3.24,3.24,0,0,1,265.5,151.12Z"/><path class="cls-1" d="M265.5,160.47a3.24,3.24,0,1,1-3.24-3.24A3.24,3.24,0,0,1,265.5,160.47Z"/><path class="cls-1" d="M274.76,151.12a3.24,3.24,0,1,1-3.23-3.23A3.24,3.24,0,0,1,274.76,151.12Z"/><path class="cls-1" d="M274.76,160.47a3.24,3.24,0,1,1-3.23-3.24A3.24,3.24,0,0,1,274.76,160.47Z"/><path class="cls-1" d="M284.11,151.12a3.24,3.24,0,1,1-3.24-3.23A3.24,3.24,0,0,1,284.11,151.12Z"/><path class="cls-1" d="M293.29,151.12a3.24,3.24,0,1,1-3.23-3.23A3.23,3.23,0,0,1,293.29,151.12Z"/><path class="cls-1" d="M228.53,151.12a3.24,3.24,0,1,1-3.23-3.23A3.24,3.24,0,0,1,228.53,151.12Z"/><path class="cls-1" d="M228.53,160.47a3.24,3.24,0,1,1-3.23-3.24A3.24,3.24,0,0,1,228.53,160.47Z"/><path class="cls-1" d="M237.88,151.12a3.24,3.24,0,1,1-3.24-3.23A3.24,3.24,0,0,1,237.88,151.12Z"/><path class="cls-1" d="M237.88,160.47a3.24,3.24,0,1,1-3.24-3.24A3.24,3.24,0,0,1,237.88,160.47Z"/><path class="cls-1" d="M247.07,151.12a3.24,3.24,0,1,1-3.24-3.23A3.24,3.24,0,0,1,247.07,151.12Z"/><path class="cls-1" d="M247.07,160.47a3.24,3.24,0,1,1-3.24-3.24A3.24,3.24,0,0,1,247.07,160.47Z"/><path class="cls-1" d="M256.31,132.88a3.24,3.24,0,1,1-3.24-3.23A3.24,3.24,0,0,1,256.31,132.88Z"/><path class="cls-1" d="M256.31,142.23a3.24,3.24,0,1,1-3.24-3.23A3.24,3.24,0,0,1,256.31,142.23Z"/><path class="cls-1" d="M265.5,132.88a3.24,3.24,0,1,1-3.24-3.23A3.24,3.24,0,0,1,265.5,132.88Z"/><path class="cls-1" d="M265.5,142.23a3.24,3.24,0,1,1-3.24-3.23A3.24,3.24,0,0,1,265.5,142.23Z"/><path class="cls-1" d="M274.76,132.88a3.24,3.24,0,1,1-3.23-3.23A3.24,3.24,0,0,1,274.76,132.88Z"/><path class="cls-1" d="M274.76,142.23a3.24,3.24,0,1,1-3.23-3.23A3.24,3.24,0,0,1,274.76,142.23Z"/><path class="cls-1" d="M284.11,132.88a3.24,3.24,0,1,1-3.24-3.23A3.24,3.24,0,0,1,284.11,132.88Z"/><path class="cls-1" d="M284.11,142.23a3.24,3.24,0,1,1-3.24-3.23A3.24,3.24,0,0,1,284.11,142.23Z"/><path class="cls-1" d="M293.29,132.88a3.24,3.24,0,1,1-3.23-3.23A3.23,3.23,0,0,1,293.29,132.88Z"/><path class="cls-1" d="M293.29,142.23a3.24,3.24,0,1,1-3.23-3.23A3.23,3.23,0,0,1,293.29,142.23Z"/><path class="cls-1" d="M228.53,132.88a3.24,3.24,0,1,1-3.23-3.23A3.24,3.24,0,0,1,228.53,132.88Z"/><path class="cls-1" d="M228.53,142.23A3.24,3.24,0,1,1,225.3,139,3.24,3.24,0,0,1,228.53,142.23Z"/><path class="cls-1" d="M237.88,132.88a3.24,3.24,0,1,1-3.24-3.23A3.24,3.24,0,0,1,237.88,132.88Z"/><path class="cls-1" d="M237.88,142.23a3.24,3.24,0,1,1-3.24-3.23A3.24,3.24,0,0,1,237.88,142.23Z"/><path class="cls-1" d="M247.07,132.88a3.24,3.24,0,1,1-3.24-3.23A3.24,3.24,0,0,1,247.07,132.88Z"/><path class="cls-1" d="M247.07,142.23a3.24,3.24,0,1,1-3.24-3.23A3.24,3.24,0,0,1,247.07,142.23Z"/><path class="cls-1" d="M274.76,113.8a3.24,3.24,0,1,1-3.23-3.23A3.24,3.24,0,0,1,274.76,113.8Z"/><path class="cls-1" d="M274.76,123.15a3.24,3.24,0,1,1-3.23-3.24A3.23,3.23,0,0,1,274.76,123.15Z"/><path class="cls-1" d="M284.11,113.8a3.24,3.24,0,1,1-3.24-3.23A3.24,3.24,0,0,1,284.11,113.8Z"/><path class="cls-1" d="M284.11,123.15a3.24,3.24,0,1,1-3.24-3.24A3.23,3.23,0,0,1,284.11,123.15Z"/><path class="cls-1" d="M293.29,113.8a3.24,3.24,0,1,1-3.23-3.23A3.23,3.23,0,0,1,293.29,113.8Z"/><path class="cls-1" d="M293.29,123.15a3.24,3.24,0,1,1-3.23-3.24A3.22,3.22,0,0,1,293.29,123.15Z"/><path class="cls-1" d="M302.36,151.12a3.24,3.24,0,1,1-3.24-3.23A3.24,3.24,0,0,1,302.36,151.12Z"/><path class="cls-1" d="M311.7,151.12a3.24,3.24,0,1,1-3.23-3.23A3.24,3.24,0,0,1,311.7,151.12Z"/><path class="cls-1" d="M302.36,132.88a3.24,3.24,0,1,1-3.24-3.23A3.24,3.24,0,0,1,302.36,132.88Z"/><path class="cls-1" d="M302.36,142.23a3.24,3.24,0,1,1-3.24-3.23A3.24,3.24,0,0,1,302.36,142.23Z"/><path class="cls-1" d="M302.36,113.8a3.24,3.24,0,1,1-3.24-3.23A3.24,3.24,0,0,1,302.36,113.8Z"/><path class="cls-1" d="M302.36,123.15a3.24,3.24,0,1,1-3.24-3.24A3.23,3.23,0,0,1,302.36,123.15Z"/><path class="cls-1" d="M311.7,113.8a3.24,3.24,0,1,1-3.23-3.23A3.24,3.24,0,0,1,311.7,113.8Z"/><path class="cls-1" d="M311.7,123.15a3.24,3.24,0,1,1-3.23-3.24A3.23,3.23,0,0,1,311.7,123.15Z"/><path class="cls-1" d="M320.89,113.8a3.24,3.24,0,1,1-3.23-3.23A3.24,3.24,0,0,1,320.89,113.8Z"/><path class="cls-1" d="M320.89,123.15a3.24,3.24,0,1,1-3.23-3.24A3.23,3.23,0,0,1,320.89,123.15Z"/><path class="cls-1" d="M339.72,132.88a3.24,3.24,0,1,1-3.23-3.23A3.24,3.24,0,0,1,339.72,132.88Z"/><path class="cls-1" d="M339.72,142.23a3.24,3.24,0,1,1-3.23-3.23A3.24,3.24,0,0,1,339.72,142.23Z"/><path class="cls-1" d="M348.91,142.23a3.24,3.24,0,1,1-3.24-3.23A3.24,3.24,0,0,1,348.91,142.23Z"/><path class="cls-1" d="M330.37,113.8a3.24,3.24,0,1,1-3.23-3.23A3.24,3.24,0,0,1,330.37,113.8Z"/><path class="cls-1" d="M330.37,123.15a3.24,3.24,0,1,1-3.23-3.24A3.23,3.23,0,0,1,330.37,123.15Z"/><path class="cls-1" d="M339.72,113.8a3.24,3.24,0,1,1-3.23-3.23A3.24,3.24,0,0,1,339.72,113.8Z"/><path class="cls-1" d="M339.72,123.15a3.24,3.24,0,1,1-3.23-3.24A3.23,3.23,0,0,1,339.72,123.15Z"/><path class="cls-1" d="M348.91,113.8a3.24,3.24,0,1,1-3.24-3.23A3.24,3.24,0,0,1,348.91,113.8Z"/><path class="cls-1" d="M302.36,104.91a3.24,3.24,0,1,1-3.24-3.23A3.23,3.23,0,0,1,302.36,104.91Z"/><path class="cls-1" d="M311.7,104.91a3.24,3.24,0,1,1-3.23-3.23A3.23,3.23,0,0,1,311.7,104.91Z"/><path class="cls-1" d="M320.89,104.91a3.24,3.24,0,1,1-3.23-3.23A3.23,3.23,0,0,1,320.89,104.91Z"/><path class="cls-1" d="M330.37,104.91a3.24,3.24,0,1,1-3.23-3.23A3.23,3.23,0,0,1,330.37,104.91Z"/><path class="cls-1" d="M302.36,95.71a3.24,3.24,0,1,1-3.24-3.23A3.24,3.24,0,0,1,302.36,95.71Z"/><path class="cls-1" d="M311.7,95.71a3.24,3.24,0,1,1-3.23-3.23A3.24,3.24,0,0,1,311.7,95.71Z"/><path class="cls-1" d="M320.89,95.71a3.24,3.24,0,1,1-3.23-3.23A3.24,3.24,0,0,1,320.89,95.71Z"/><path class="cls-1" d="M330.37,95.71a3.24,3.24,0,1,1-3.23-3.23A3.24,3.24,0,0,1,330.37,95.71Z"/><path class="cls-1" d="M302.36,86.93a3.24,3.24,0,1,1-3.24-3.24A3.24,3.24,0,0,1,302.36,86.93Z"/><path class="cls-1" d="M311.7,86.93a3.24,3.24,0,1,1-3.23-3.24A3.24,3.24,0,0,1,311.7,86.93Z"/><path class="cls-1" d="M348.91,123.15a3.24,3.24,0,1,1-3.24-3.24A3.23,3.23,0,0,1,348.91,123.15Z"/><path class="cls-1" d="M228.53,113.8a3.24,3.24,0,1,1-3.23-3.23A3.24,3.24,0,0,1,228.53,113.8Z"/><path class="cls-1" d="M228.53,123.15a3.24,3.24,0,1,1-3.23-3.24A3.23,3.23,0,0,1,228.53,123.15Z"/><path class="cls-1" d="M237.88,113.8a3.24,3.24,0,1,1-3.24-3.23A3.24,3.24,0,0,1,237.88,113.8Z"/><path class="cls-1" d="M237.88,123.15a3.24,3.24,0,1,1-3.24-3.24A3.23,3.23,0,0,1,237.88,123.15Z"/><path class="cls-1" d="M247.07,113.8a3.24,3.24,0,1,1-3.24-3.23A3.24,3.24,0,0,1,247.07,113.8Z"/><path class="cls-1" d="M247.07,123.15a3.24,3.24,0,1,1-3.24-3.24A3.23,3.23,0,0,1,247.07,123.15Z"/><path class="cls-1" d="M293.29,95.93a3.24,3.24,0,1,1-3.23-3.24A3.22,3.22,0,0,1,293.29,95.93Z"/><path class="cls-1" d="M293.29,105.28a3.24,3.24,0,1,1-3.23-3.24A3.23,3.23,0,0,1,293.29,105.28Z"/><path class="cls-1" d="M320.94,68.9a3.24,3.24,0,1,1-3.23-3.24A3.23,3.23,0,0,1,320.94,68.9Z"/><path class="cls-1" d="M330.29,68.9a3.24,3.24,0,1,1-3.24-3.24A3.23,3.23,0,0,1,330.29,68.9Z"/><path class="cls-1" d="M330.29,77.73a3.24,3.24,0,1,1-3.24-3.23A3.24,3.24,0,0,1,330.29,77.73Z"/><path class="cls-1" d="M339.47,68.9a3.24,3.24,0,1,1-3.23-3.24A3.22,3.22,0,0,1,339.47,68.9Z"/><path class="cls-1" d="M339.47,59.55a3.24,3.24,0,1,1-3.23-3.23A3.23,3.23,0,0,1,339.47,59.55Z"/><path class="cls-1" d="M349,59.55a3.24,3.24,0,1,1-3.24-3.23A3.24,3.24,0,0,1,349,59.55Z"/><path class="cls-1" d="M339.47,50.55a3.24,3.24,0,1,1-3.23-3.23A3.23,3.23,0,0,1,339.47,50.55Z"/><path class="cls-1" d="M349,50.55a3.24,3.24,0,1,1-3.24-3.23A3.24,3.24,0,0,1,349,50.55Z"/><path class="cls-1" d="M330.29,50.55a3.24,3.24,0,1,1-3.24-3.23A3.24,3.24,0,0,1,330.29,50.55Z"/><path class="cls-1" d="M330.69,41a3.24,3.24,0,1,1-3.23-3.24A3.23,3.23,0,0,1,330.69,41Z"/><path class="cls-1" d="M312.16,41a3.24,3.24,0,1,1-3.24-3.24A3.24,3.24,0,0,1,312.16,41Z"/><path class="cls-1" d="M321.51,41a3.24,3.24,0,1,1-3.24-3.24A3.24,3.24,0,0,1,321.51,41Z"/><path class="cls-1" d="M228.53,95.93a3.24,3.24,0,1,1-3.23-3.24A3.23,3.23,0,0,1,228.53,95.93Z"/><path class="cls-1" d="M228.53,105.28A3.24,3.24,0,1,1,225.3,102,3.23,3.23,0,0,1,228.53,105.28Z"/><path class="cls-1" d="M237.88,105.28a3.24,3.24,0,1,1-3.24-3.24A3.24,3.24,0,0,1,237.88,105.28Z"/><path class="cls-1" d="M228.53,77.69a3.24,3.24,0,1,1-3.23-3.23A3.24,3.24,0,0,1,228.53,77.69Z"/><path class="cls-1" d="M228.53,87a3.24,3.24,0,1,1-3.23-3.24A3.23,3.23,0,0,1,228.53,87Z"/><path class="cls-1" d="M237.88,77.69a3.24,3.24,0,1,1-3.24-3.23A3.24,3.24,0,0,1,237.88,77.69Z"/><path class="cls-1" d="M256.31,58.61a3.24,3.24,0,1,1-3.24-3.24A3.24,3.24,0,0,1,256.31,58.61Z"/><path class="cls-1" d="M256.31,68a3.24,3.24,0,1,1-3.24-3.23A3.24,3.24,0,0,1,256.31,68Z"/><path class="cls-1" d="M265.5,58.61a3.24,3.24,0,1,1-3.24-3.24A3.24,3.24,0,0,1,265.5,58.61Z"/><path class="cls-1" d="M265.5,68a3.24,3.24,0,1,1-3.24-3.23A3.24,3.24,0,0,1,265.5,68Z"/><path class="cls-1" d="M274.76,58.61a3.24,3.24,0,1,1-3.23-3.24A3.23,3.23,0,0,1,274.76,58.61Z"/><path class="cls-1" d="M293.29,58.61a3.24,3.24,0,1,1-3.23-3.24A3.23,3.23,0,0,1,293.29,58.61Z"/><path class="cls-1" d="M228.53,58.61a3.24,3.24,0,1,1-3.23-3.24A3.23,3.23,0,0,1,228.53,58.61Z"/><path class="cls-1" d="M228.53,68a3.24,3.24,0,1,1-3.23-3.23A3.24,3.24,0,0,1,228.53,68Z"/><path class="cls-1" d="M237.88,58.61a3.24,3.24,0,1,1-3.24-3.24A3.24,3.24,0,0,1,237.88,58.61Z"/><path class="cls-1" d="M237.88,68a3.24,3.24,0,1,1-3.24-3.23A3.24,3.24,0,0,1,237.88,68Z"/><path class="cls-1" d="M247.07,58.61a3.24,3.24,0,1,1-3.24-3.24A3.24,3.24,0,0,1,247.07,58.61Z"/><path class="cls-1" d="M210.59,49.72a3.24,3.24,0,1,1-3.23-3.24A3.23,3.23,0,0,1,210.59,49.72Z"/><path class="cls-1" d="M219.78,49.72a3.24,3.24,0,1,1-3.24-3.24A3.24,3.24,0,0,1,219.78,49.72Z"/><path class="cls-1" d="M274.76,49.72a3.24,3.24,0,1,1-3.23-3.24A3.23,3.23,0,0,1,274.76,49.72Z"/><path class="cls-1" d="M237.88,49.72a3.24,3.24,0,1,1-3.24-3.24A3.24,3.24,0,0,1,237.88,49.72Z"/><path class="cls-1" d="M219.78,40.1a3.24,3.24,0,1,1-3.24-3.24A3.23,3.23,0,0,1,219.78,40.1Z"/><path class="cls-1" d="M228.53,40.1a3.24,3.24,0,1,1-3.23-3.24A3.23,3.23,0,0,1,228.53,40.1Z"/><path class="cls-1" d="M247.07,68a3.24,3.24,0,1,1-3.24-3.23A3.24,3.24,0,0,1,247.07,68Z"/><path class="cls-1" d="M108.57,58.61a3.24,3.24,0,1,1-3.23-3.24A3.23,3.23,0,0,1,108.57,58.61Z"/><path class="cls-1" d="M108.57,68a3.24,3.24,0,1,1-3.23-3.23A3.24,3.24,0,0,1,108.57,68Z"/><path class="cls-1" d="M117.76,58.61a3.24,3.24,0,1,1-3.24-3.24A3.24,3.24,0,0,1,117.76,58.61Z"/><path class="cls-1" d="M117.76,68a3.24,3.24,0,1,1-3.24-3.23A3.24,3.24,0,0,1,117.76,68Z"/><path class="cls-1" d="M127,58.61a3.24,3.24,0,1,1-3.23-3.24A3.23,3.23,0,0,1,127,58.61Z"/><path class="cls-1" d="M127,68a3.24,3.24,0,1,1-3.23-3.23A3.23,3.23,0,0,1,127,68Z"/><path class="cls-1" d="M90.14,58.61a3.24,3.24,0,1,1-3.23-3.24A3.23,3.23,0,0,1,90.14,58.61Z"/><path class="cls-1" d="M90.14,68a3.24,3.24,0,1,1-3.23-3.23A3.24,3.24,0,0,1,90.14,68Z"/><path class="cls-1" d="M99.33,58.61a3.24,3.24,0,1,1-3.24-3.24A3.24,3.24,0,0,1,99.33,58.61Z"/><path class="cls-1" d="M99.33,68a3.24,3.24,0,1,1-3.24-3.23A3.24,3.24,0,0,1,99.33,68Z"/><path class="cls-1" d="M80.56,77.69a3.24,3.24,0,1,1-3.24-3.23A3.24,3.24,0,0,1,80.56,77.69Z"/><path class="cls-1" d="M80.56,87a3.24,3.24,0,1,1-3.24-3.24A3.23,3.23,0,0,1,80.56,87Z"/><path class="cls-1" d="M62.13,77.69a3.24,3.24,0,1,1-3.24-3.23A3.24,3.24,0,0,1,62.13,77.69Z"/><path class="cls-1" d="M71.31,77.69a3.24,3.24,0,1,1-3.23-3.23A3.24,3.24,0,0,1,71.31,77.69Z"/><path class="cls-1" d="M71.31,87a3.24,3.24,0,1,1-3.23-3.24A3.23,3.23,0,0,1,71.31,87Z"/><path class="cls-1" d="M80.56,58.61a3.24,3.24,0,1,1-3.24-3.24A3.24,3.24,0,0,1,80.56,58.61Z"/><path class="cls-1" d="M80.56,68a3.24,3.24,0,1,1-3.24-3.23A3.24,3.24,0,0,1,80.56,68Z"/><path class="cls-1" d="M62.13,58.61a3.24,3.24,0,1,1-3.24-3.24A3.24,3.24,0,0,1,62.13,58.61Z"/><path class="cls-1" d="M62.13,68a3.24,3.24,0,1,1-3.24-3.23A3.24,3.24,0,0,1,62.13,68Z"/><path class="cls-1" d="M71.31,58.61a3.24,3.24,0,1,1-3.23-3.24A3.23,3.23,0,0,1,71.31,58.61Z"/><path class="cls-1" d="M71.31,68a3.24,3.24,0,1,1-3.23-3.23A3.24,3.24,0,0,1,71.31,68Z"/><path class="cls-1" d="M52.5,77.69a3.24,3.24,0,1,1-3.24-3.23A3.24,3.24,0,0,1,52.5,77.69Z"/><path class="cls-1" d="M34.07,77.69a3.24,3.24,0,1,1-3.24-3.23A3.24,3.24,0,0,1,34.07,77.69Z"/><path class="cls-1" d="M43.25,77.69A3.24,3.24,0,1,1,40,74.46,3.24,3.24,0,0,1,43.25,77.69Z"/><path class="cls-1" d="M52.5,58.61a3.24,3.24,0,1,1-3.24-3.24A3.24,3.24,0,0,1,52.5,58.61Z"/><path class="cls-1" d="M52.5,68a3.24,3.24,0,1,1-3.24-3.23A3.24,3.24,0,0,1,52.5,68Z"/><path class="cls-1" d="M34.07,68a3.24,3.24,0,1,1-3.24-3.23A3.24,3.24,0,0,1,34.07,68Z"/><path class="cls-1" d="M43.25,58.61A3.24,3.24,0,1,1,40,55.37,3.23,3.23,0,0,1,43.25,58.61Z"/><path class="cls-1" d="M108.57,49.3a3.24,3.24,0,1,1-3.23-3.24A3.23,3.23,0,0,1,108.57,49.3Z"/><path class="cls-1" d="M117.76,49.3a3.24,3.24,0,1,1-3.24-3.24A3.23,3.23,0,0,1,117.76,49.3Z"/><path class="cls-1" d="M127,49.3a3.24,3.24,0,1,1-3.23-3.24A3.22,3.22,0,0,1,127,49.3Z"/><path class="cls-1" d="M90.14,49.3a3.24,3.24,0,1,1-3.23-3.24A3.23,3.23,0,0,1,90.14,49.3Z"/><path class="cls-1" d="M99.33,49.3a3.24,3.24,0,1,1-3.24-3.24A3.23,3.23,0,0,1,99.33,49.3Z"/><path class="cls-1" d="M80.56,49.3a3.24,3.24,0,1,1-3.24-3.24A3.23,3.23,0,0,1,80.56,49.3Z"/><path class="cls-1" d="M62.13,49.3a3.24,3.24,0,1,1-3.24-3.24A3.23,3.23,0,0,1,62.13,49.3Z"/><path class="cls-1" d="M71.31,49.3a3.24,3.24,0,1,1-3.23-3.24A3.23,3.23,0,0,1,71.31,49.3Z"/><path class="cls-1" d="M52.5,49.3a3.24,3.24,0,1,1-3.24-3.24A3.23,3.23,0,0,1,52.5,49.3Z"/><path class="cls-1" d="M43.25,68A3.24,3.24,0,1,1,40,64.72,3.24,3.24,0,0,1,43.25,68Z"/><path class="cls-1" d="M24.9,77.69a3.24,3.24,0,1,1-3.24-3.23A3.24,3.24,0,0,1,24.9,77.69Z"/><path class="cls-1" d="M6.47,77.69a3.24,3.24,0,1,1-3.23-3.23A3.24,3.24,0,0,1,6.47,77.69Z"/><path class="cls-1" d="M15.66,77.69a3.24,3.24,0,1,1-3.24-3.23A3.24,3.24,0,0,1,15.66,77.69Z"/><path class="cls-1" d="M24.9,68a3.24,3.24,0,1,1-3.24-3.23A3.24,3.24,0,0,1,24.9,68Z"/><path class="cls-1" d="M34.07,86.77a3.24,3.24,0,1,1-3.24-3.24A3.23,3.23,0,0,1,34.07,86.77Z"/><path class="cls-1" d="M43.25,86.77A3.24,3.24,0,1,1,40,83.53,3.23,3.23,0,0,1,43.25,86.77Z"/><path class="cls-1" d="M6.47,96.51a3.24,3.24,0,1,1-3.23-3.24A3.23,3.23,0,0,1,6.47,96.51Z"/><path class="cls-1" d="M15.66,96.51a3.24,3.24,0,1,1-3.24-3.24A3.24,3.24,0,0,1,15.66,96.51Z"/><path class="cls-1" d="M24.9,86.77a3.24,3.24,0,1,1-3.24-3.24A3.23,3.23,0,0,1,24.9,86.77Z"/><path class="cls-1" d="M15.7,86.77a3.24,3.24,0,1,1-3.23-3.24A3.23,3.23,0,0,1,15.7,86.77Z"/><path class="cls-1" d="M6.53,86.77A3.24,3.24,0,1,1,3.3,83.53,3.23,3.23,0,0,1,6.53,86.77Z"/><path class="cls-1" d="M71.32,188.76a3.24,3.24,0,1,1-3.23-3.23A3.23,3.23,0,0,1,71.32,188.76Z"/><path class="cls-1" d="M71.32,198.11a3.24,3.24,0,1,1-3.23-3.23A3.22,3.22,0,0,1,71.32,198.11Z"/><path class="cls-1" d="M80.51,188.76a3.24,3.24,0,1,1-3.23-3.23A3.24,3.24,0,0,1,80.51,188.76Z"/><path class="cls-1" d="M80.51,198.11a3.24,3.24,0,1,1-3.23-3.23A3.23,3.23,0,0,1,80.51,198.11Z"/><path class="cls-1" d="M71.32,169.68a3.24,3.24,0,1,1-3.23-3.24A3.22,3.22,0,0,1,71.32,169.68Z"/><path class="cls-1" d="M71.32,179a3.24,3.24,0,1,1-3.23-3.24A3.23,3.23,0,0,1,71.32,179Z"/><path class="cls-1" d="M62.54,179a3.24,3.24,0,1,1-3.23-3.24A3.23,3.23,0,0,1,62.54,179Z"/><path class="cls-1" d="M80.51,169.68a3.24,3.24,0,1,1-3.23-3.24A3.23,3.23,0,0,1,80.51,169.68Z"/><path class="cls-1" d="M80.51,179a3.24,3.24,0,1,1-3.23-3.24A3.23,3.23,0,0,1,80.51,179Z"/><path class="cls-1" d="M136.56,281.42a3.24,3.24,0,1,1-3.23-3.23A3.24,3.24,0,0,1,136.56,281.42Z"/><path class="cls-1" d="M127,281.42a3.24,3.24,0,1,1-3.23-3.23A3.23,3.23,0,0,1,127,281.42Z"/><path class="cls-1" d="M136.56,262.34a3.24,3.24,0,1,1-3.23-3.24A3.23,3.23,0,0,1,136.56,262.34Z"/><path class="cls-1" d="M136.56,271.68a3.24,3.24,0,1,1-3.23-3.23A3.24,3.24,0,0,1,136.56,271.68Z"/><path class="cls-1" d="M108.57,262.34a3.24,3.24,0,1,1-3.23-3.24A3.23,3.23,0,0,1,108.57,262.34Z"/><path class="cls-1" d="M108.57,271.68a3.24,3.24,0,1,1-3.23-3.23A3.24,3.24,0,0,1,108.57,271.68Z"/><path class="cls-1" d="M117.76,262.34a3.24,3.24,0,1,1-3.24-3.24A3.24,3.24,0,0,1,117.76,262.34Z"/><path class="cls-1" d="M117.76,271.68a3.24,3.24,0,1,1-3.24-3.23A3.24,3.24,0,0,1,117.76,271.68Z"/><path class="cls-1" d="M127,262.34a3.24,3.24,0,1,1-3.23-3.24A3.23,3.23,0,0,1,127,262.34Z"/><path class="cls-1" d="M89.76,253.77a3.24,3.24,0,1,1-3.24-3.24A3.24,3.24,0,0,1,89.76,253.77Z"/><path class="cls-1" d="M127,253.77a3.24,3.24,0,1,1-3.23-3.24A3.23,3.23,0,0,1,127,253.77Z"/><path class="cls-1" d="M136.56,225.5a3.24,3.24,0,1,1-3.23-3.23A3.24,3.24,0,0,1,136.56,225.5Z"/><path class="cls-1" d="M136.56,234.85a3.24,3.24,0,1,1-3.23-3.24A3.23,3.23,0,0,1,136.56,234.85Z"/><path class="cls-1" d="M127,225.5a3.24,3.24,0,1,1-3.23-3.23A3.23,3.23,0,0,1,127,225.5Z"/><path class="cls-1" d="M127,235.37a3.24,3.24,0,1,1-3.23-3.24A3.22,3.22,0,0,1,127,235.37Z"/><path class="cls-1" d="M127,271.68a3.24,3.24,0,1,1-3.23-3.23A3.23,3.23,0,0,1,127,271.68Z"/><path class="cls-1" d="M173.27,271.75a3.24,3.24,0,1,1-3.24-3.23A3.23,3.23,0,0,1,173.27,271.75Z"/><path class="cls-1" d="M181.27,271.75a3.24,3.24,0,1,1-3.24-3.23A3.23,3.23,0,0,1,181.27,271.75Z"/><path class="cls-1" d="M181.27,262.34A3.24,3.24,0,1,1,178,259.1,3.24,3.24,0,0,1,181.27,262.34Z"/><path class="cls-1" d="M173.27,281.09a3.24,3.24,0,1,1-3.24-3.23A3.24,3.24,0,0,1,173.27,281.09Z"/><path class="cls-1" d="M173.27,290.33A3.24,3.24,0,1,1,170,287.1,3.24,3.24,0,0,1,173.27,290.33Z"/><path class="cls-1" d="M173.27,299.68a3.24,3.24,0,1,1-3.24-3.23A3.23,3.23,0,0,1,173.27,299.68Z"/><path class="cls-1" d="M164.09,290.33a3.24,3.24,0,1,1-3.23-3.23A3.24,3.24,0,0,1,164.09,290.33Z"/><path class="cls-1" d="M154.68,290.33a3.24,3.24,0,1,1-3.24-3.23A3.24,3.24,0,0,1,154.68,290.33Z"/><path class="cls-1" d="M164.09,299.68a3.24,3.24,0,1,1-3.23-3.23A3.23,3.23,0,0,1,164.09,299.68Z"/><path class="cls-1" d="M191.85,290.33a3.24,3.24,0,1,1-3.23-3.23A3.23,3.23,0,0,1,191.85,290.33Z"/><path class="cls-1" d="M191.85,299.68a3.24,3.24,0,1,1-3.23-3.23A3.22,3.22,0,0,1,191.85,299.68Z"/><path class="cls-1" d="M182.68,290.33a3.24,3.24,0,1,1-3.24-3.23A3.24,3.24,0,0,1,182.68,290.33Z"/><path class="cls-1" d="M182.68,299.68a3.24,3.24,0,1,1-3.24-3.23A3.23,3.23,0,0,1,182.68,299.68Z"/><path class="cls-1" d="M191.85,308.45a3.24,3.24,0,1,1-3.23-3.23A3.23,3.23,0,0,1,191.85,308.45Z"/><path class="cls-1" d="M191.85,317.8a3.24,3.24,0,1,1-3.23-3.24A3.23,3.23,0,0,1,191.85,317.8Z"/><path class="cls-1" d="M182.68,308.45a3.24,3.24,0,1,1-3.24-3.23A3.24,3.24,0,0,1,182.68,308.45Z"/><path class="cls-1" d="M145.28,271.75a3.24,3.24,0,1,1-3.24-3.23A3.23,3.23,0,0,1,145.28,271.75Z"/><path class="cls-1" d="M145.28,281.09a3.24,3.24,0,1,1-3.24-3.23A3.24,3.24,0,0,1,145.28,281.09Z"/><path class="cls-1" d="M154.46,281.09a3.24,3.24,0,1,1-3.23-3.23A3.24,3.24,0,0,1,154.46,281.09Z"/><path class="cls-1" d="M163.73,281.09a3.24,3.24,0,1,1-3.24-3.23A3.24,3.24,0,0,1,163.73,281.09Z"/><path class="cls-1" d="M229,179a3.24,3.24,0,1,1-3.23-3.24A3.23,3.23,0,0,1,229,179Z"/><path class="cls-1" d="M358.21,372.62a3.24,3.24,0,1,1-3.23-3.23A3.24,3.24,0,0,1,358.21,372.62Z"/><path class="cls-1" d="M302.8,354.48a3.24,3.24,0,1,1-3.24-3.24A3.24,3.24,0,0,1,302.8,354.48Z"/><path class="cls-1" d="M312,354.48a3.24,3.24,0,1,1-3.23-3.24A3.23,3.23,0,0,1,312,354.48Z"/><path class="cls-1" d="M321.25,354.48a3.24,3.24,0,1,1-3.24-3.24A3.24,3.24,0,0,1,321.25,354.48Z"/><path class="cls-1" d="M330.6,354.48a3.24,3.24,0,1,1-3.24-3.24A3.24,3.24,0,0,1,330.6,354.48Z"/><path class="cls-1" d="M256.57,354.48a3.24,3.24,0,1,1-3.24-3.24A3.24,3.24,0,0,1,256.57,354.48Z"/><path class="cls-1" d="M265.75,354.48a3.24,3.24,0,1,1-3.23-3.24A3.23,3.23,0,0,1,265.75,354.48Z"/><path class="cls-1" d="M275,354.48a3.24,3.24,0,1,1-3.23-3.24A3.23,3.23,0,0,1,275,354.48Z"/><path class="cls-1" d="M284.37,354.48a3.24,3.24,0,1,1-3.24-3.24A3.24,3.24,0,0,1,284.37,354.48Z"/><path class="cls-1" d="M293.55,354.48a3.24,3.24,0,1,1-3.23-3.24A3.23,3.23,0,0,1,293.55,354.48Z"/><path class="cls-1" d="M228.58,354.48a3.24,3.24,0,1,1-3.24-3.24A3.24,3.24,0,0,1,228.58,354.48Z"/><path class="cls-1" d="M237.76,354.48a3.24,3.24,0,1,1-3.23-3.24A3.23,3.23,0,0,1,237.76,354.48Z"/><path class="cls-1" d="M247,354.48a3.24,3.24,0,1,1-3.24-3.24A3.24,3.24,0,0,1,247,354.48Z"/><path class="cls-1" d="M210.15,354.48a3.24,3.24,0,1,1-3.24-3.24A3.24,3.24,0,0,1,210.15,354.48Z"/><path class="cls-1" d="M219.33,354.48a3.24,3.24,0,1,1-3.23-3.24A3.23,3.23,0,0,1,219.33,354.48Z"/><path class="cls-1" d="M302.8,345.15a3.24,3.24,0,1,1-3.24-3.24A3.24,3.24,0,0,1,302.8,345.15Z"/><path class="cls-1" d="M312,345.15a3.24,3.24,0,1,1-3.23-3.24A3.23,3.23,0,0,1,312,345.15Z"/><path class="cls-1" d="M302.8,336.14a3.24,3.24,0,1,1-3.24-3.24A3.24,3.24,0,0,1,302.8,336.14Z"/><path class="cls-1" d="M312,336.14a3.24,3.24,0,1,1-3.23-3.24A3.23,3.23,0,0,1,312,336.14Z"/><path class="cls-1" d="M321.25,345.15a3.24,3.24,0,1,1-3.24-3.24A3.24,3.24,0,0,1,321.25,345.15Z"/><path class="cls-1" d="M330.6,345.15a3.24,3.24,0,1,1-3.24-3.24A3.24,3.24,0,0,1,330.6,345.15Z"/><path class="cls-1" d="M256.57,345.15a3.24,3.24,0,1,1-3.24-3.24A3.24,3.24,0,0,1,256.57,345.15Z"/><path class="cls-1" d="M265.75,345.15a3.24,3.24,0,1,1-3.23-3.24A3.23,3.23,0,0,1,265.75,345.15Z"/><path class="cls-1" d="M275,345.15a3.24,3.24,0,1,1-3.23-3.24A3.23,3.23,0,0,1,275,345.15Z"/><path class="cls-1" d="M284.37,345.15a3.24,3.24,0,1,1-3.24-3.24A3.24,3.24,0,0,1,284.37,345.15Z"/><path class="cls-1" d="M293.55,345.15a3.24,3.24,0,1,1-3.23-3.24A3.23,3.23,0,0,1,293.55,345.15Z"/><path class="cls-1" d="M228.58,345.15a3.24,3.24,0,1,1-3.24-3.24A3.24,3.24,0,0,1,228.58,345.15Z"/><path class="cls-1" d="M237.76,345.15a3.24,3.24,0,1,1-3.23-3.24A3.23,3.23,0,0,1,237.76,345.15Z"/><path class="cls-1" d="M247,345.15a3.24,3.24,0,1,1-3.24-3.24A3.24,3.24,0,0,1,247,345.15Z"/><path class="cls-1" d="M219.33,345.15a3.24,3.24,0,1,1-3.23-3.24A3.23,3.23,0,0,1,219.33,345.15Z"/><path class="cls-1" d="M256.57,336.24a3.24,3.24,0,1,1-3.24-3.24A3.23,3.23,0,0,1,256.57,336.24Z"/><path class="cls-1" d="M265.75,336.24a3.24,3.24,0,1,1-3.23-3.24A3.22,3.22,0,0,1,265.75,336.24Z"/><path class="cls-1" d="M275,336.24a3.24,3.24,0,1,1-3.23-3.24A3.23,3.23,0,0,1,275,336.24Z"/><path class="cls-1" d="M284.37,336.24a3.24,3.24,0,1,1-3.24-3.24A3.23,3.23,0,0,1,284.37,336.24Z"/><path class="cls-1" d="M293.55,336.24a3.24,3.24,0,1,1-3.23-3.24A3.22,3.22,0,0,1,293.55,336.24Z"/><path class="cls-1" d="M284.37,326.94a3.24,3.24,0,1,1-3.24-3.23A3.23,3.23,0,0,1,284.37,326.94Z"/><path class="cls-1" d="M293.55,326.94a3.24,3.24,0,1,1-3.23-3.23A3.22,3.22,0,0,1,293.55,326.94Z"/><path class="cls-1" d="M228.58,336.24a3.24,3.24,0,1,1-3.24-3.24A3.23,3.23,0,0,1,228.58,336.24Z"/><path class="cls-1" d="M237.76,336.24a3.24,3.24,0,1,1-3.23-3.24A3.23,3.23,0,0,1,237.76,336.24Z"/><path class="cls-1" d="M247,336.24a3.24,3.24,0,1,1-3.24-3.24A3.23,3.23,0,0,1,247,336.24Z"/><path class="cls-1" d="M219.33,336.24A3.24,3.24,0,1,1,216.1,333,3.22,3.22,0,0,1,219.33,336.24Z"/><path class="cls-1" d="M256.57,326.49a3.24,3.24,0,1,1-3.24-3.24A3.24,3.24,0,0,1,256.57,326.49Z"/><path class="cls-1" d="M265.75,326.49a3.24,3.24,0,1,1-3.23-3.24A3.23,3.23,0,0,1,265.75,326.49Z"/><path class="cls-1" d="M275,326.49a3.24,3.24,0,1,1-3.23-3.24A3.23,3.23,0,0,1,275,326.49Z"/><path class="cls-1" d="M228.58,326.49a3.24,3.24,0,1,1-3.24-3.24A3.24,3.24,0,0,1,228.58,326.49Z"/><path class="cls-1" d="M237.76,326.49a3.24,3.24,0,1,1-3.23-3.24A3.23,3.23,0,0,1,237.76,326.49Z"/><path class="cls-1" d="M247,326.49a3.24,3.24,0,1,1-3.24-3.24A3.24,3.24,0,0,1,247,326.49Z"/><path class="cls-1" d="M256.57,317.29a3.24,3.24,0,1,1-3.24-3.24A3.24,3.24,0,0,1,256.57,317.29Z"/><path class="cls-1" d="M256.57,308.09a3.24,3.24,0,1,1-3.24-3.24A3.24,3.24,0,0,1,256.57,308.09Z"/><path class="cls-1" d="M265.75,317.29a3.24,3.24,0,1,1-3.23-3.24A3.23,3.23,0,0,1,265.75,317.29Z"/><path class="cls-1" d="M275,317.29a3.24,3.24,0,1,1-3.23-3.24A3.23,3.23,0,0,1,275,317.29Z"/><path class="cls-1" d="M283.39,317.29a3.24,3.24,0,1,1-3.24-3.24A3.24,3.24,0,0,1,283.39,317.29Z"/><path class="cls-1" d="M228.58,317.29a3.24,3.24,0,1,1-3.24-3.24A3.24,3.24,0,0,1,228.58,317.29Z"/><path class="cls-1" d="M237.76,317.29a3.24,3.24,0,1,1-3.23-3.24A3.23,3.23,0,0,1,237.76,317.29Z"/><path class="cls-1" d="M237.76,308.09a3.24,3.24,0,1,1-3.23-3.24A3.23,3.23,0,0,1,237.76,308.09Z"/><path class="cls-1" d="M247,317.29a3.24,3.24,0,1,1-3.24-3.24A3.24,3.24,0,0,1,247,317.29Z"/><path class="cls-1" d="M219.33,326.49a3.24,3.24,0,1,1-3.23-3.24A3.23,3.23,0,0,1,219.33,326.49Z"/><path class="cls-1" d="M211,326.49a3.24,3.24,0,1,1-3.23-3.24A3.23,3.23,0,0,1,211,326.49Z"/><path class="cls-1" d="M201.35,326.49a3.24,3.24,0,1,1-3.23-3.24A3.23,3.23,0,0,1,201.35,326.49Z"/><path class="cls-1" d="M321.25,335.55a3.24,3.24,0,1,1-3.24-3.24A3.24,3.24,0,0,1,321.25,335.55Z"/><path class="cls-1" d="M321,512.14a3.24,3.24,0,1,1-3.23-3.24A3.24,3.24,0,0,1,321,512.14Z"/><path class="cls-1" d="M321,521.48a3.24,3.24,0,1,1-3.23-3.23A3.25,3.25,0,0,1,321,521.48Z"/><path class="cls-1" d="M330.22,512.14A3.24,3.24,0,1,1,327,508.9,3.24,3.24,0,0,1,330.22,512.14Z"/><path class="cls-1" d="M330.22,521.48a3.24,3.24,0,1,1-3.24-3.23A3.25,3.25,0,0,1,330.22,521.48Z"/><path class="cls-1" d="M339.49,512.14a3.24,3.24,0,1,1-3.24-3.24A3.24,3.24,0,0,1,339.49,512.14Z"/><path class="cls-1" d="M293.46,512.14a3.24,3.24,0,1,1-3.24-3.24A3.24,3.24,0,0,1,293.46,512.14Z"/><path class="cls-1" d="M302.65,512.14a3.24,3.24,0,1,1-3.24-3.24A3.24,3.24,0,0,1,302.65,512.14Z"/><path class="cls-1" d="M311.91,512.14a3.24,3.24,0,1,1-3.23-3.24A3.24,3.24,0,0,1,311.91,512.14Z"/><path class="cls-1" d="M321,530.84a3.24,3.24,0,1,1-3.23-3.24A3.23,3.23,0,0,1,321,530.84Z"/><path class="cls-1" d="M321,540.18A3.24,3.24,0,1,1,317.8,537,3.24,3.24,0,0,1,321,540.18Z"/><path class="cls-1" d="M303,549a3.24,3.24,0,1,1-3.24-3.23A3.23,3.23,0,0,1,303,549Z"/><path class="cls-1" d="M330.22,605.05a3.24,3.24,0,1,1-3.24-3.23A3.24,3.24,0,0,1,330.22,605.05Z"/><path class="cls-1" d="M293.47,521.48a3.24,3.24,0,1,1-3.24-3.23A3.25,3.25,0,0,1,293.47,521.48Z"/><path class="cls-1" d="M302.65,521.48a3.24,3.24,0,1,1-3.23-3.23A3.25,3.25,0,0,1,302.65,521.48Z"/><path class="cls-1" d="M311.92,521.48a3.24,3.24,0,1,1-3.24-3.23A3.25,3.25,0,0,1,311.92,521.48Z"/><path class="cls-1" d="M293.47,530.84a3.24,3.24,0,1,1-3.24-3.24A3.24,3.24,0,0,1,293.47,530.84Z"/><path class="cls-1" d="M293.47,540.18a3.24,3.24,0,1,1-3.24-3.23A3.24,3.24,0,0,1,293.47,540.18Z"/><path class="cls-1" d="M302.65,530.84a3.24,3.24,0,1,1-3.23-3.24A3.23,3.23,0,0,1,302.65,530.84Z"/><path class="cls-1" d="M302.65,540.18a3.24,3.24,0,1,1-3.23-3.23A3.24,3.24,0,0,1,302.65,540.18Z"/><path class="cls-1" d="M311.92,530.84a3.24,3.24,0,1,1-3.24-3.24A3.24,3.24,0,0,1,311.92,530.84Z"/><path class="cls-1" d="M265.44,512.14a3.24,3.24,0,1,1-3.23-3.24A3.23,3.23,0,0,1,265.44,512.14Z"/><path class="cls-1" d="M274.63,512.14a3.24,3.24,0,1,1-3.23-3.24A3.24,3.24,0,0,1,274.63,512.14Z"/><path class="cls-1" d="M283.9,512.14a3.24,3.24,0,1,1-3.24-3.24A3.24,3.24,0,0,1,283.9,512.14Z"/><path class="cls-1" d="M265.45,521.48a3.24,3.24,0,1,1-3.23-3.23A3.25,3.25,0,0,1,265.45,521.48Z"/><path class="cls-1" d="M274.64,521.48a3.24,3.24,0,1,1-3.24-3.23A3.25,3.25,0,0,1,274.64,521.48Z"/><path class="cls-1" d="M283.9,521.48a3.23,3.23,0,1,1-3.23-3.23A3.25,3.25,0,0,1,283.9,521.48Z"/><path class="cls-1" d="M265.45,530.84a3.24,3.24,0,1,1-3.23-3.24A3.23,3.23,0,0,1,265.45,530.84Z"/><path class="cls-1" d="M274.64,530.84a3.24,3.24,0,1,1-3.24-3.24A3.24,3.24,0,0,1,274.64,530.84Z"/><path class="cls-1" d="M283.9,530.84a3.23,3.23,0,1,1-3.23-3.24A3.23,3.23,0,0,1,283.9,530.84Z"/><path class="cls-1" d="M311.92,540.18a3.24,3.24,0,1,1-3.24-3.23A3.24,3.24,0,0,1,311.92,540.18Z"/><path class="cls-1" d="M293.47,549a3.24,3.24,0,1,1-3.24-3.23A3.23,3.23,0,0,1,293.47,549Z"/><path class="cls-1" d="M284.14,549a3.24,3.24,0,1,1-3.23-3.23A3.23,3.23,0,0,1,284.14,549Z"/><path class="cls-1" d="M274.65,540.18a3.24,3.24,0,1,1-3.23-3.23A3.24,3.24,0,0,1,274.65,540.18Z"/><path class="cls-1" d="M283.84,540.18A3.24,3.24,0,1,1,280.6,537,3.24,3.24,0,0,1,283.84,540.18Z"/><path class="cls-1" d="M274.65,549a3.24,3.24,0,1,1-3.23-3.23A3.23,3.23,0,0,1,274.65,549Z"/><path class="cls-1" d="M274.64,557.8a3.24,3.24,0,1,1-3.24-3.24A3.24,3.24,0,0,1,274.64,557.8Z"/><path class="cls-1" d="M274.64,567.14a3.24,3.24,0,1,1-3.24-3.23A3.24,3.24,0,0,1,274.64,567.14Z"/><path class="cls-1" d="M274.65,576.49a3.24,3.24,0,1,1-3.23-3.24A3.24,3.24,0,0,1,274.65,576.49Z"/><path class="cls-1" d="M284.13,567.14a3.24,3.24,0,1,1-3.23-3.23A3.24,3.24,0,0,1,284.13,567.14Z"/><path class="cls-1" d="M284.14,576.49a3.24,3.24,0,1,1-3.23-3.24A3.24,3.24,0,0,1,284.14,576.49Z"/><path class="cls-1" d="M274.65,585.35a3.24,3.24,0,1,1-3.23-3.23A3.23,3.23,0,0,1,274.65,585.35Z"/><path class="cls-1" d="M283.85,585.35a3.24,3.24,0,1,1-3.24-3.23A3.23,3.23,0,0,1,283.85,585.35Z"/><path class="cls-1" d="M265.45,549a3.24,3.24,0,1,1-3.23-3.23A3.23,3.23,0,0,1,265.45,549Z"/><path class="cls-1" d="M293.47,558.39a3.24,3.24,0,1,1-3.24-3.24A3.24,3.24,0,0,1,293.47,558.39Z"/><path class="cls-1" d="M284.77,558.39a3.24,3.24,0,1,1-3.24-3.24A3.24,3.24,0,0,1,284.77,558.39Z"/><path class="cls-1" d="M265.33,539.77a3.24,3.24,0,1,1-3.24-3.23A3.24,3.24,0,0,1,265.33,539.77Z"/><path class="cls-1" d="M293.47,567.73a3.24,3.24,0,1,1-3.24-3.23A3.24,3.24,0,0,1,293.47,567.73Z"/><path class="cls-1" d="M293.47,577.08a3.24,3.24,0,1,1-3.24-3.23A3.23,3.23,0,0,1,293.47,577.08Z"/><path class="cls-1" d="M293.47,585.77a3.24,3.24,0,1,1-3.24-3.24A3.24,3.24,0,0,1,293.47,585.77Z"/><path class="cls-1" d="M284.14,594.38a3.24,3.24,0,1,1-3.23-3.23A3.23,3.23,0,0,1,284.14,594.38Z"/><path class="cls-1" d="M293.47,595a3.24,3.24,0,1,1-3.24-3.24A3.24,3.24,0,0,1,293.47,595Z"/><path class="cls-1" d="M293.47,603.65a3.24,3.24,0,1,1-3.24-3.23A3.24,3.24,0,0,1,293.47,603.65Z"/><path class="cls-1" d="M302.65,586.36a3.24,3.24,0,1,1-3.23-3.23A3.24,3.24,0,0,1,302.65,586.36Z"/><path class="cls-1" d="M302.65,614.4a3.24,3.24,0,1,1-3.23-3.24A3.24,3.24,0,0,1,302.65,614.4Z"/><path class="cls-1" d="M311.92,614.4a3.24,3.24,0,1,1-3.24-3.24A3.24,3.24,0,0,1,311.92,614.4Z"/><path class="cls-1" d="M364.12,8.8A3.24,3.24,0,1,0,366,14.66V9.41A3.22,3.22,0,0,0,364.12,8.8Z"/><path class="cls-1" d="M363.61,18.15a3.24,3.24,0,1,0,2.39,5.4V19.21A3.22,3.22,0,0,0,363.61,18.15Z"/><path class="cls-1" d="M363.61,0a3.24,3.24,0,0,0,0,6.47A3.19,3.19,0,0,0,366,5.4V1.07A3.23,3.23,0,0,0,363.61,0Z"/><path class="cls-1" d="M364.24,397.37a3.23,3.23,0,1,0,1.76,5.94v-5.42A3.22,3.22,0,0,0,364.24,397.37Z"/><path class="cls-1" d="M364.24,406.71a3.24,3.24,0,0,0,0,6.47,3.3,3.3,0,0,0,1.76-.52v-5.43A3.22,3.22,0,0,0,364.24,406.71Z"/><path class="cls-1" d="M364.24,416.06A3.24,3.24,0,1,0,366,422v-5.42A3.22,3.22,0,0,0,364.24,416.06Z"/><path class="cls-1" d="M364.24,425.4a3.24,3.24,0,1,0,1.76,6v-5.42A3.23,3.23,0,0,0,364.24,425.4Z"/><path class="cls-1" d="M364.24,434.26a3.24,3.24,0,1,0,1.76,5.95v-5.42A3.23,3.23,0,0,0,364.24,434.26Z"/><path class="cls-1" d="M364.24,443.61a3.24,3.24,0,1,0,1.76,5.94v-5.42A3.3,3.3,0,0,0,364.24,443.61Z"/><path class="cls-1" d="M364.24,453A3.24,3.24,0,1,0,366,458.9v-5.42A3.23,3.23,0,0,0,364.24,453Z"/><path class="cls-1" d="M364.24,462.3a3.24,3.24,0,1,0,1.76,5.95v-5.43A3.3,3.3,0,0,0,364.24,462.3Z"/><path class="cls-1" d="M364.24,379.13a3.23,3.23,0,1,0,1.76,5.94v-5.42A3.22,3.22,0,0,0,364.24,379.13Z"/><path class="cls-1" d="M364.24,388.47a3.24,3.24,0,1,0,1.76,5.95V389A3.23,3.23,0,0,0,364.24,388.47Z"/></svg>