<svg id="Object" xmlns="http://www.w3.org/2000/svg" xmlns:xlink="http://www.w3.org/1999/xlink" viewBox="0 0 336 554"><defs><style>.cls-1{fill:none;}.cls-2{clip-path:url(#clip-path);}.cls-3,.cls-4{fill:#fbebc9;}.cls-3{fill-rule:evenodd;}</style><clipPath id="clip-path"><rect class="cls-1" width="336" height="554"/></clipPath></defs><title>testimonial-bg-world-right</title><g class="cls-2"><path class="cls-3" d="M8.75,132.39a3.24,3.24,0,1,1-3.24-3.23A3.24,3.24,0,0,1,8.75,132.39Z"/><path class="cls-3" d="M8.74,179a3.24,3.24,0,1,1-3.24-3.24A3.24,3.24,0,0,1,8.74,179Z"/><path class="cls-3" d="M8.74,188.29a3.24,3.24,0,1,1-3.24-3.23A3.24,3.24,0,0,1,8.74,188.29Z"/><path class="cls-3" d="M18.08,179a3.23,3.23,0,1,1-3.23-3.24A3.23,3.23,0,0,1,18.08,179Z"/><path class="cls-3" d="M18.08,188.29a3.23,3.23,0,1,1-3.23-3.23A3.24,3.24,0,0,1,18.08,188.29Z"/><path class="cls-3" d="M27.27,179A3.24,3.24,0,1,1,24,175.71,3.23,3.23,0,0,1,27.27,179Z"/><path class="cls-3" d="M27.27,188.29A3.24,3.24,0,1,1,24,185.06,3.24,3.24,0,0,1,27.27,188.29Z"/><path class="cls-3" d="M8.74,197.64a3.24,3.24,0,1,1-3.24-3.23A3.23,3.23,0,0,1,8.74,197.64Z"/><path class="cls-3" d="M8.74,207a3.24,3.24,0,1,1-3.24-3.24A3.23,3.23,0,0,1,8.74,207Z"/><path class="cls-3" d="M18.08,197.64a3.23,3.23,0,1,1-3.23-3.23A3.23,3.23,0,0,1,18.08,197.64Z"/><path class="cls-3" d="M18.08,207a3.23,3.23,0,1,1-3.23-3.24A3.23,3.23,0,0,1,18.08,207Z"/><path class="cls-3" d="M27.27,197.64A3.24,3.24,0,1,1,24,194.41,3.23,3.23,0,0,1,27.27,197.64Z"/><path class="cls-3" d="M27.27,207A3.24,3.24,0,1,1,24,203.75,3.23,3.23,0,0,1,27.27,207Z"/><path class="cls-3" d="M8.74,215.85a3.24,3.24,0,1,1-3.24-3.24A3.24,3.24,0,0,1,8.74,215.85Z"/><path class="cls-3" d="M8.74,225.19A3.24,3.24,0,1,1,5.5,222,3.24,3.24,0,0,1,8.74,225.19Z"/><path class="cls-3" d="M18.08,215.85a3.23,3.23,0,1,1-3.23-3.24A3.23,3.23,0,0,1,18.08,215.85Z"/><path class="cls-3" d="M18.08,225.19A3.23,3.23,0,1,1,14.85,222,3.24,3.24,0,0,1,18.08,225.19Z"/><path class="cls-3" d="M27.27,215.85A3.24,3.24,0,1,1,24,212.61,3.23,3.23,0,0,1,27.27,215.85Z"/><path class="cls-3" d="M27.27,225.19A3.24,3.24,0,1,1,24,222,3.24,3.24,0,0,1,27.27,225.19Z"/><path class="cls-3" d="M8.74,234.54A3.24,3.24,0,1,1,5.5,231.3,3.23,3.23,0,0,1,8.74,234.54Z"/><path class="cls-3" d="M8.74,243.88a3.24,3.24,0,1,1-3.24-3.23A3.24,3.24,0,0,1,8.74,243.88Z"/><path class="cls-3" d="M18.08,234.54a3.23,3.23,0,1,1-3.23-3.24A3.23,3.23,0,0,1,18.08,234.54Z"/><path class="cls-3" d="M18.08,243.88a3.23,3.23,0,1,1-3.23-3.23A3.24,3.24,0,0,1,18.08,243.88Z"/><path class="cls-3" d="M27.27,234.54A3.24,3.24,0,1,1,24,231.3,3.23,3.23,0,0,1,27.27,234.54Z"/><path class="cls-3" d="M27.27,243.88A3.24,3.24,0,1,1,24,240.65,3.24,3.24,0,0,1,27.27,243.88Z"/><path class="cls-3" d="M8.74,253.17a3.24,3.24,0,1,1-3.24-3.24A3.24,3.24,0,0,1,8.74,253.17Z"/><path class="cls-3" d="M8.74,262.51a3.24,3.24,0,1,1-3.24-3.23A3.24,3.24,0,0,1,8.74,262.51Z"/><path class="cls-3" d="M18.08,253.17a3.23,3.23,0,1,1-3.23-3.24A3.23,3.23,0,0,1,18.08,253.17Z"/><path class="cls-3" d="M18.08,262.51a3.23,3.23,0,1,1-3.23-3.23A3.24,3.24,0,0,1,18.08,262.51Z"/><path class="cls-3" d="M27.27,253.17A3.24,3.24,0,1,1,24,249.93,3.23,3.23,0,0,1,27.27,253.17Z"/><path class="cls-3" d="M27.27,262.51A3.24,3.24,0,1,1,24,259.28,3.24,3.24,0,0,1,27.27,262.51Z"/><path class="cls-3" d="M8.74,271.86a3.24,3.24,0,1,1-3.24-3.24A3.24,3.24,0,0,1,8.74,271.86Z"/><path class="cls-3" d="M8.74,281.21A3.24,3.24,0,1,1,5.5,278,3.24,3.24,0,0,1,8.74,281.21Z"/><path class="cls-3" d="M18.08,271.86a3.23,3.23,0,1,1-3.23-3.24A3.24,3.24,0,0,1,18.08,271.86Z"/><path class="cls-3" d="M36.51,179a3.24,3.24,0,1,1-3.23-3.24A3.23,3.23,0,0,1,36.51,179Z"/><path class="cls-3" d="M36.51,188.29a3.24,3.24,0,1,1-3.23-3.23A3.23,3.23,0,0,1,36.51,188.29Z"/><path class="cls-3" d="M45.7,179a3.24,3.24,0,1,1-3.24-3.24A3.24,3.24,0,0,1,45.7,179Z"/><path class="cls-3" d="M45.7,188.29a3.24,3.24,0,1,1-3.24-3.23A3.24,3.24,0,0,1,45.7,188.29Z"/><path class="cls-3" d="M55,179a3.24,3.24,0,1,1-3.24-3.24A3.24,3.24,0,0,1,55,179Z"/><path class="cls-3" d="M55,188.29a3.24,3.24,0,1,1-3.24-3.23A3.24,3.24,0,0,1,55,188.29Z"/><path class="cls-3" d="M64.31,179a3.24,3.24,0,1,1-3.23-3.24A3.23,3.23,0,0,1,64.31,179Z"/><path class="cls-3" d="M64.31,188.29a3.24,3.24,0,1,1-3.23-3.23A3.24,3.24,0,0,1,64.31,188.29Z"/><path class="cls-3" d="M36.51,197.64a3.24,3.24,0,1,1-3.23-3.23A3.22,3.22,0,0,1,36.51,197.64Z"/><path class="cls-3" d="M36.51,207a3.24,3.24,0,1,1-3.23-3.24A3.22,3.22,0,0,1,36.51,207Z"/><path class="cls-3" d="M45.7,197.64a3.24,3.24,0,1,1-3.24-3.23A3.23,3.23,0,0,1,45.7,197.64Z"/><path class="cls-3" d="M45.7,207a3.24,3.24,0,1,1-3.24-3.24A3.23,3.23,0,0,1,45.7,207Z"/><path class="cls-3" d="M55,197.64a3.24,3.24,0,1,1-3.24-3.23A3.23,3.23,0,0,1,55,197.64Z"/><path class="cls-3" d="M55,207a3.24,3.24,0,1,1-3.24-3.24A3.23,3.23,0,0,1,55,207Z"/><path class="cls-3" d="M64.31,197.64a3.24,3.24,0,1,1-3.23-3.23A3.23,3.23,0,0,1,64.31,197.64Z"/><path class="cls-3" d="M64.31,207a3.24,3.24,0,1,1-3.23-3.24A3.23,3.23,0,0,1,64.31,207Z"/><path class="cls-3" d="M36.51,215.85a3.24,3.24,0,1,1-3.23-3.24A3.23,3.23,0,0,1,36.51,215.85Z"/><path class="cls-3" d="M36.51,225.19A3.24,3.24,0,1,1,33.28,222,3.23,3.23,0,0,1,36.51,225.19Z"/><path class="cls-3" d="M45.7,215.85a3.24,3.24,0,1,1-3.24-3.24A3.24,3.24,0,0,1,45.7,215.85Z"/><path class="cls-3" d="M45.7,225.19A3.24,3.24,0,1,1,42.46,222,3.24,3.24,0,0,1,45.7,225.19Z"/><path class="cls-3" d="M55,215.85a3.24,3.24,0,1,1-3.24-3.24A3.24,3.24,0,0,1,55,215.85Z"/><path class="cls-3" d="M55,225.19A3.24,3.24,0,1,1,51.73,222,3.24,3.24,0,0,1,55,225.19Z"/><path class="cls-3" d="M64.31,215.85a3.24,3.24,0,1,1-3.23-3.24A3.23,3.23,0,0,1,64.31,215.85Z"/><path class="cls-3" d="M64.31,225.19A3.24,3.24,0,1,1,61.08,222,3.24,3.24,0,0,1,64.31,225.19Z"/><path class="cls-3" d="M36.51,234.54a3.24,3.24,0,1,1-3.23-3.24A3.22,3.22,0,0,1,36.51,234.54Z"/><path class="cls-3" d="M36.51,243.88a3.24,3.24,0,1,1-3.23-3.23A3.23,3.23,0,0,1,36.51,243.88Z"/><path class="cls-3" d="M45.7,234.54a3.24,3.24,0,1,1-3.24-3.24A3.23,3.23,0,0,1,45.7,234.54Z"/><path class="cls-3" d="M45.7,243.88a3.24,3.24,0,1,1-3.24-3.23A3.24,3.24,0,0,1,45.7,243.88Z"/><path class="cls-3" d="M55,234.54a3.24,3.24,0,1,1-3.24-3.24A3.23,3.23,0,0,1,55,234.54Z"/><path class="cls-3" d="M55,243.88a3.24,3.24,0,1,1-3.24-3.23A3.24,3.24,0,0,1,55,243.88Z"/><path class="cls-3" d="M64.31,234.54a3.24,3.24,0,1,1-3.23-3.24A3.23,3.23,0,0,1,64.31,234.54Z"/><path class="cls-3" d="M64.31,243.88a3.24,3.24,0,1,1-3.23-3.23A3.24,3.24,0,0,1,64.31,243.88Z"/><path class="cls-3" d="M36.51,253.17a3.24,3.24,0,1,1-3.23-3.24A3.23,3.23,0,0,1,36.51,253.17Z"/><path class="cls-3" d="M45.7,253.17a3.24,3.24,0,1,1-3.24-3.24A3.24,3.24,0,0,1,45.7,253.17Z"/><path class="cls-3" d="M55,253.17a3.24,3.24,0,1,1-3.24-3.24A3.24,3.24,0,0,1,55,253.17Z"/><path class="cls-3" d="M55,262.51a3.24,3.24,0,1,1-3.24-3.23A3.24,3.24,0,0,1,55,262.51Z"/><path class="cls-3" d="M64.31,253.17a3.24,3.24,0,1,1-3.23-3.24A3.23,3.23,0,0,1,64.31,253.17Z"/><path class="cls-3" d="M64.31,262.51a3.24,3.24,0,1,1-3.23-3.23A3.24,3.24,0,0,1,64.31,262.51Z"/><path class="cls-3" d="M64.31,271.86a3.24,3.24,0,1,1-3.23-3.24A3.24,3.24,0,0,1,64.31,271.86Z"/><path class="cls-3" d="M64.31,281.21A3.24,3.24,0,1,1,61.08,278,3.23,3.23,0,0,1,64.31,281.21Z"/><path class="cls-3" d="M8.74,160.71a3.24,3.24,0,1,1-3.24-3.23A3.23,3.23,0,0,1,8.74,160.71Z"/><path class="cls-3" d="M8.74,170.06a3.24,3.24,0,1,1-3.24-3.24A3.24,3.24,0,0,1,8.74,170.06Z"/><path class="cls-3" d="M18.08,160.71a3.23,3.23,0,1,1-3.23-3.23A3.23,3.23,0,0,1,18.08,160.71Z"/><path class="cls-3" d="M18.08,170.06a3.23,3.23,0,1,1-3.23-3.24A3.23,3.23,0,0,1,18.08,170.06Z"/><path class="cls-3" d="M27.27,160.71A3.24,3.24,0,1,1,24,157.48,3.23,3.23,0,0,1,27.27,160.71Z"/><path class="cls-3" d="M27.27,170.06A3.24,3.24,0,1,1,24,166.82,3.23,3.23,0,0,1,27.27,170.06Z"/><path class="cls-3" d="M36.51,160.71a3.24,3.24,0,1,1-3.23-3.23A3.22,3.22,0,0,1,36.51,160.71Z"/><path class="cls-3" d="M36.51,170.06a3.24,3.24,0,1,1-3.23-3.24A3.23,3.23,0,0,1,36.51,170.06Z"/><path class="cls-3" d="M45.7,160.71a3.24,3.24,0,1,1-3.24-3.23A3.23,3.23,0,0,1,45.7,160.71Z"/><path class="cls-3" d="M45.7,170.06a3.24,3.24,0,1,1-3.24-3.24A3.24,3.24,0,0,1,45.7,170.06Z"/><path class="cls-3" d="M55,160.71a3.24,3.24,0,1,1-3.24-3.23A3.23,3.23,0,0,1,55,160.71Z"/><path class="cls-3" d="M55,170.06a3.24,3.24,0,1,1-3.24-3.24A3.24,3.24,0,0,1,55,170.06Z"/><path class="cls-3" d="M64.31,160.71a3.24,3.24,0,1,1-3.23-3.23A3.23,3.23,0,0,1,64.31,160.71Z"/><path class="cls-3" d="M64.31,170.06a3.24,3.24,0,1,1-3.23-3.24A3.23,3.23,0,0,1,64.31,170.06Z"/><path class="cls-3" d="M8.74,141.62a3.24,3.24,0,1,1-3.24-3.23A3.24,3.24,0,0,1,8.74,141.62Z"/><path class="cls-3" d="M8.74,151a3.24,3.24,0,1,1-3.24-3.23A3.24,3.24,0,0,1,8.74,151Z"/><path class="cls-3" d="M18.08,141.62a3.23,3.23,0,1,1-3.23-3.23A3.24,3.24,0,0,1,18.08,141.62Z"/><path class="cls-3" d="M18.08,151a3.23,3.23,0,1,1-3.23-3.23A3.24,3.24,0,0,1,18.08,151Z"/><path class="cls-3" d="M27.27,141.62A3.24,3.24,0,1,1,24,138.39,3.24,3.24,0,0,1,27.27,141.62Z"/><path class="cls-3" d="M27.27,151A3.24,3.24,0,1,1,24,147.74,3.24,3.24,0,0,1,27.27,151Z"/><path class="cls-3" d="M27.32,123.59a3.24,3.24,0,1,1-3.23-3.23A3.24,3.24,0,0,1,27.32,123.59Z"/><path class="cls-3" d="M36.51,123.59a3.24,3.24,0,1,1-3.24-3.23A3.24,3.24,0,0,1,36.51,123.59Z"/><path class="cls-3" d="M45.78,123.59a3.24,3.24,0,1,1-3.24-3.23A3.25,3.25,0,0,1,45.78,123.59Z"/><path class="cls-3" d="M55.12,123.59a3.24,3.24,0,1,1-3.23-3.23A3.24,3.24,0,0,1,55.12,123.59Z"/><path class="cls-3" d="M64.31,123.59a3.24,3.24,0,1,1-3.24-3.23A3.24,3.24,0,0,1,64.31,123.59Z"/><path class="cls-3" d="M73.55,123.59a3.24,3.24,0,1,1-3.24-3.23A3.24,3.24,0,0,1,73.55,123.59Z"/><path class="cls-3" d="M82.74,123.59a3.24,3.24,0,1,1-3.24-3.23A3.24,3.24,0,0,1,82.74,123.59Z"/><path class="cls-3" d="M92,123.59a3.24,3.24,0,1,1-3.24-3.23A3.24,3.24,0,0,1,92,123.59Z"/><path class="cls-3" d="M27.32,114.27A3.24,3.24,0,1,1,24.09,111,3.23,3.23,0,0,1,27.32,114.27Z"/><path class="cls-3" d="M36.51,114.27A3.24,3.24,0,1,1,33.27,111,3.24,3.24,0,0,1,36.51,114.27Z"/><path class="cls-3" d="M9,123.59a3.24,3.24,0,1,1-3.23-3.23A3.23,3.23,0,0,1,9,123.59Z"/><path class="cls-3" d="M18.2,123.59A3.24,3.24,0,1,1,15,120.36,3.24,3.24,0,0,1,18.2,123.59Z"/><path class="cls-3" d="M27.32,132.92a3.24,3.24,0,1,1-3.23-3.23A3.24,3.24,0,0,1,27.32,132.92Z"/><path class="cls-3" d="M36.51,132.92a3.24,3.24,0,1,1-3.24-3.23A3.24,3.24,0,0,1,36.51,132.92Z"/><path class="cls-3" d="M45.78,132.92a3.24,3.24,0,1,1-3.24-3.23A3.25,3.25,0,0,1,45.78,132.92Z"/><path class="cls-3" d="M55.12,132.92a3.24,3.24,0,1,1-3.23-3.23A3.24,3.24,0,0,1,55.12,132.92Z"/><path class="cls-3" d="M64.31,132.92a3.24,3.24,0,1,1-3.24-3.23A3.24,3.24,0,0,1,64.31,132.92Z"/><path class="cls-3" d="M18.2,132.92A3.24,3.24,0,1,1,15,129.69,3.24,3.24,0,0,1,18.2,132.92Z"/><path class="cls-3" d="M9,114.27A3.24,3.24,0,1,1,5.78,111,3.23,3.23,0,0,1,9,114.27Z"/><path class="cls-3" d="M18.2,114.27A3.24,3.24,0,1,1,15,111,3.24,3.24,0,0,1,18.2,114.27Z"/><path class="cls-3" d="M45.78,114.27A3.24,3.24,0,1,1,42.54,111,3.24,3.24,0,0,1,45.78,114.27Z"/><path class="cls-3" d="M55.12,114.27A3.24,3.24,0,1,1,51.89,111,3.23,3.23,0,0,1,55.12,114.27Z"/><path class="cls-3" d="M64.31,114.27A3.24,3.24,0,1,1,61.07,111,3.24,3.24,0,0,1,64.31,114.27Z"/><path class="cls-3" d="M73.55,114.27A3.24,3.24,0,1,1,70.31,111,3.24,3.24,0,0,1,73.55,114.27Z"/><path class="cls-3" d="M82.74,114.27A3.24,3.24,0,1,1,79.5,111,3.24,3.24,0,0,1,82.74,114.27Z"/><path class="cls-3" d="M92,114.27A3.24,3.24,0,1,1,88.77,111,3.24,3.24,0,0,1,92,114.27Z"/><path class="cls-3" d="M27.32,49.47a3.24,3.24,0,1,1-3.23-3.24A3.23,3.23,0,0,1,27.32,49.47Z"/><path class="cls-3" d="M36.51,49.47a3.24,3.24,0,1,1-3.24-3.24A3.24,3.24,0,0,1,36.51,49.47Z"/><path class="cls-3" d="M45.78,49.47a3.24,3.24,0,1,1-3.24-3.24A3.24,3.24,0,0,1,45.78,49.47Z"/><path class="cls-3" d="M55.12,49.47a3.24,3.24,0,1,1-3.23-3.24A3.23,3.23,0,0,1,55.12,49.47Z"/><path class="cls-3" d="M64.31,49.47a3.24,3.24,0,1,1-3.24-3.24A3.24,3.24,0,0,1,64.31,49.47Z"/><path class="cls-3" d="M73.55,49.47a3.24,3.24,0,1,1-3.24-3.24A3.24,3.24,0,0,1,73.55,49.47Z"/><path class="cls-3" d="M82.74,49.47a3.24,3.24,0,1,1-3.24-3.24A3.24,3.24,0,0,1,82.74,49.47Z"/><path class="cls-3" d="M92,49.47a3.24,3.24,0,1,1-3.24-3.24A3.24,3.24,0,0,1,92,49.47Z"/><path class="cls-3" d="M27.32,40.66a3.24,3.24,0,1,1-3.23-3.23A3.24,3.24,0,0,1,27.32,40.66Z"/><path class="cls-3" d="M36.51,40.66a3.24,3.24,0,1,1-3.24-3.23A3.24,3.24,0,0,1,36.51,40.66Z"/><path class="cls-3" d="M45.78,40.66a3.24,3.24,0,1,1-3.24-3.23A3.25,3.25,0,0,1,45.78,40.66Z"/><path class="cls-3" d="M55.12,40.66a3.24,3.24,0,1,1-3.23-3.23A3.24,3.24,0,0,1,55.12,40.66Z"/><path class="cls-3" d="M64.31,40.66a3.24,3.24,0,1,1-3.24-3.23A3.24,3.24,0,0,1,64.31,40.66Z"/><path class="cls-3" d="M9,49.47a3.24,3.24,0,1,1-3.23-3.24A3.23,3.23,0,0,1,9,49.47Z"/><path class="cls-3" d="M18.2,49.47A3.24,3.24,0,1,1,15,46.23,3.24,3.24,0,0,1,18.2,49.47Z"/><path class="cls-3" d="M9,40.66a3.24,3.24,0,1,1-3.23-3.23A3.23,3.23,0,0,1,9,40.66Z"/><path class="cls-3" d="M18.2,40.66A3.24,3.24,0,1,1,15,37.43,3.24,3.24,0,0,1,18.2,40.66Z"/><path class="cls-3" d="M82.89,96a3.24,3.24,0,1,1-3.23-3.24A3.23,3.23,0,0,1,82.89,96Z"/><path class="cls-3" d="M82.89,105.37a3.24,3.24,0,1,1-3.23-3.24A3.23,3.23,0,0,1,82.89,105.37Z"/><path class="cls-3" d="M92.08,96a3.24,3.24,0,1,1-3.24-3.24A3.24,3.24,0,0,1,92.08,96Z"/><path class="cls-3" d="M92.08,105.37a3.24,3.24,0,1,1-3.24-3.24A3.24,3.24,0,0,1,92.08,105.37Z"/><path class="cls-3" d="M36.66,96a3.24,3.24,0,1,1-3.23-3.24A3.23,3.23,0,0,1,36.66,96Z"/><path class="cls-3" d="M36.66,105.37a3.24,3.24,0,1,1-3.23-3.24A3.23,3.23,0,0,1,36.66,105.37Z"/><path class="cls-3" d="M45.85,96a3.24,3.24,0,1,1-3.24-3.24A3.24,3.24,0,0,1,45.85,96Z"/><path class="cls-3" d="M45.85,105.37a3.24,3.24,0,1,1-3.24-3.24A3.24,3.24,0,0,1,45.85,105.37Z"/><path class="cls-3" d="M55.11,96a3.24,3.24,0,1,1-3.23-3.24A3.23,3.23,0,0,1,55.11,96Z"/><path class="cls-3" d="M55.11,105.37a3.24,3.24,0,1,1-3.23-3.24A3.23,3.23,0,0,1,55.11,105.37Z"/><path class="cls-3" d="M64.46,96a3.24,3.24,0,1,1-3.23-3.24A3.23,3.23,0,0,1,64.46,96Z"/><path class="cls-3" d="M64.46,105.37a3.24,3.24,0,1,1-3.23-3.24A3.23,3.23,0,0,1,64.46,105.37Z"/><path class="cls-3" d="M73.65,96a3.24,3.24,0,1,1-3.23-3.24A3.23,3.23,0,0,1,73.65,96Z"/><path class="cls-3" d="M73.65,105.37a3.24,3.24,0,1,1-3.23-3.24A3.23,3.23,0,0,1,73.65,105.37Z"/><path class="cls-3" d="M8.67,96a3.24,3.24,0,1,1-3.24-3.24A3.24,3.24,0,0,1,8.67,96Z"/><path class="cls-3" d="M8.67,105.37a3.24,3.24,0,1,1-3.24-3.24A3.24,3.24,0,0,1,8.67,105.37Z"/><path class="cls-3" d="M17.86,96a3.24,3.24,0,1,1-3.24-3.24A3.24,3.24,0,0,1,17.86,96Z"/><path class="cls-3" d="M17.86,105.37a3.24,3.24,0,1,1-3.24-3.24A3.24,3.24,0,0,1,17.86,105.37Z"/><circle class="cls-4" cx="23.89" cy="96.02" r="3.24"/><path class="cls-3" d="M27.12,105.37a3.24,3.24,0,1,1-3.23-3.24A3.23,3.23,0,0,1,27.12,105.37Z"/><path class="cls-3" d="M82.89,77.78a3.24,3.24,0,1,1-3.23-3.24A3.23,3.23,0,0,1,82.89,77.78Z"/><path class="cls-3" d="M82.89,87.13a3.24,3.24,0,1,1-3.23-3.24A3.23,3.23,0,0,1,82.89,87.13Z"/><path class="cls-3" d="M92.08,77.78a3.24,3.24,0,1,1-3.24-3.24A3.23,3.23,0,0,1,92.08,77.78Z"/><path class="cls-3" d="M92.08,87.13a3.24,3.24,0,1,1-3.24-3.24A3.24,3.24,0,0,1,92.08,87.13Z"/><path class="cls-3" d="M36.66,77.78a3.24,3.24,0,1,1-3.23-3.24A3.23,3.23,0,0,1,36.66,77.78Z"/><path class="cls-3" d="M36.66,87.13a3.24,3.24,0,1,1-3.23-3.24A3.23,3.23,0,0,1,36.66,87.13Z"/><path class="cls-3" d="M45.85,77.78a3.24,3.24,0,1,1-3.24-3.24A3.23,3.23,0,0,1,45.85,77.78Z"/><path class="cls-3" d="M45.85,87.13a3.24,3.24,0,1,1-3.24-3.24A3.24,3.24,0,0,1,45.85,87.13Z"/><path class="cls-3" d="M55.11,77.78a3.24,3.24,0,1,1-3.23-3.24A3.22,3.22,0,0,1,55.11,77.78Z"/><path class="cls-3" d="M55.11,87.13a3.24,3.24,0,1,1-3.23-3.24A3.23,3.23,0,0,1,55.11,87.13Z"/><path class="cls-3" d="M64.46,77.78a3.24,3.24,0,1,1-3.23-3.24A3.23,3.23,0,0,1,64.46,77.78Z"/><path class="cls-3" d="M64.46,87.13a3.24,3.24,0,1,1-3.23-3.24A3.23,3.23,0,0,1,64.46,87.13Z"/><path class="cls-3" d="M73.65,77.78a3.24,3.24,0,1,1-3.23-3.24A3.23,3.23,0,0,1,73.65,77.78Z"/><path class="cls-3" d="M73.65,87.13a3.24,3.24,0,1,1-3.23-3.24A3.23,3.23,0,0,1,73.65,87.13Z"/><path class="cls-3" d="M8.67,77.78a3.24,3.24,0,1,1-3.24-3.24A3.23,3.23,0,0,1,8.67,77.78Z"/><path class="cls-3" d="M8.67,87.13a3.24,3.24,0,1,1-3.24-3.24A3.24,3.24,0,0,1,8.67,87.13Z"/><path class="cls-3" d="M17.86,77.78a3.24,3.24,0,1,1-3.24-3.24A3.23,3.23,0,0,1,17.86,77.78Z"/><path class="cls-3" d="M17.86,87.13a3.24,3.24,0,1,1-3.24-3.24A3.24,3.24,0,0,1,17.86,87.13Z"/><path class="cls-3" d="M27.12,77.78a3.24,3.24,0,1,1-3.23-3.24A3.23,3.23,0,0,1,27.12,77.78Z"/><path class="cls-3" d="M27.12,87.13a3.24,3.24,0,1,1-3.23-3.24A3.23,3.23,0,0,1,27.12,87.13Z"/><path class="cls-3" d="M82.89,58.69a3.24,3.24,0,1,1-3.23-3.23A3.24,3.24,0,0,1,82.89,58.69Z"/><path class="cls-3" d="M82.89,68a3.24,3.24,0,1,1-3.23-3.23A3.23,3.23,0,0,1,82.89,68Z"/><path class="cls-3" d="M92.08,58.69a3.24,3.24,0,1,1-3.24-3.23A3.24,3.24,0,0,1,92.08,58.69Z"/><path class="cls-3" d="M92.08,68a3.24,3.24,0,1,1-3.24-3.23A3.23,3.23,0,0,1,92.08,68Z"/><path class="cls-3" d="M36.66,58.69a3.24,3.24,0,1,1-3.23-3.23A3.24,3.24,0,0,1,36.66,58.69Z"/><path class="cls-3" d="M36.66,68a3.24,3.24,0,1,1-3.23-3.23A3.23,3.23,0,0,1,36.66,68Z"/><path class="cls-3" d="M45.85,58.69a3.24,3.24,0,1,1-3.24-3.23A3.24,3.24,0,0,1,45.85,58.69Z"/><path class="cls-3" d="M45.85,68a3.24,3.24,0,1,1-3.24-3.23A3.23,3.23,0,0,1,45.85,68Z"/><path class="cls-3" d="M55.11,58.69a3.24,3.24,0,1,1-3.23-3.23A3.23,3.23,0,0,1,55.11,58.69Z"/><path class="cls-3" d="M55.11,68a3.24,3.24,0,1,1-3.23-3.23A3.22,3.22,0,0,1,55.11,68Z"/><path class="cls-3" d="M64.46,58.69a3.24,3.24,0,1,1-3.23-3.23A3.24,3.24,0,0,1,64.46,58.69Z"/><path class="cls-3" d="M64.46,68a3.24,3.24,0,1,1-3.23-3.23A3.23,3.23,0,0,1,64.46,68Z"/><path class="cls-3" d="M73.65,58.69a3.24,3.24,0,1,1-3.23-3.23A3.24,3.24,0,0,1,73.65,58.69Z"/><path class="cls-3" d="M73.65,68a3.24,3.24,0,1,1-3.23-3.23A3.23,3.23,0,0,1,73.65,68Z"/><path class="cls-3" d="M8.67,58.69a3.24,3.24,0,1,1-3.24-3.23A3.24,3.24,0,0,1,8.67,58.69Z"/><path class="cls-3" d="M8.67,68a3.24,3.24,0,1,1-3.24-3.23A3.23,3.23,0,0,1,8.67,68Z"/><path class="cls-3" d="M17.86,58.69a3.24,3.24,0,1,1-3.24-3.23A3.24,3.24,0,0,1,17.86,58.69Z"/><path class="cls-3" d="M17.86,68a3.24,3.24,0,1,1-3.24-3.23A3.23,3.23,0,0,1,17.86,68Z"/><path class="cls-3" d="M27.12,58.69a3.24,3.24,0,1,1-3.23-3.23A3.24,3.24,0,0,1,27.12,58.69Z"/><circle class="cls-4" cx="23.89" cy="68.04" r="3.23"/><path class="cls-3" d="M110.94,123.59a3.24,3.24,0,1,1-3.23-3.23A3.24,3.24,0,0,1,110.94,123.59Z"/><path class="cls-3" d="M120.13,123.59a3.24,3.24,0,1,1-3.24-3.23A3.24,3.24,0,0,1,120.13,123.59Z"/><path class="cls-3" d="M129.4,123.59a3.24,3.24,0,1,1-3.24-3.23A3.24,3.24,0,0,1,129.4,123.59Z"/><path class="cls-3" d="M138.74,123.59a3.24,3.24,0,1,1-3.23-3.23A3.23,3.23,0,0,1,138.74,123.59Z"/><path class="cls-3" d="M147.93,123.59a3.24,3.24,0,1,1-3.23-3.23A3.24,3.24,0,0,1,147.93,123.59Z"/><path class="cls-3" d="M157.17,123.59a3.24,3.24,0,1,1-3.23-3.23A3.24,3.24,0,0,1,157.17,123.59Z"/><path class="cls-3" d="M166.36,123.59a3.24,3.24,0,1,1-3.24-3.23A3.24,3.24,0,0,1,166.36,123.59Z"/><path class="cls-3" d="M175.62,123.59a3.24,3.24,0,1,1-3.23-3.23A3.23,3.23,0,0,1,175.62,123.59Z"/><path class="cls-3" d="M166.36,132.23a3.24,3.24,0,1,1-3.24-3.23A3.24,3.24,0,0,1,166.36,132.23Z"/><path class="cls-3" d="M175.62,132.23a3.24,3.24,0,1,1-3.23-3.23A3.23,3.23,0,0,1,175.62,132.23Z"/><path class="cls-3" d="M110.94,114.27a3.24,3.24,0,1,1-3.23-3.24A3.23,3.23,0,0,1,110.94,114.27Z"/><path class="cls-3" d="M120.13,114.27a3.24,3.24,0,1,1-3.24-3.24A3.24,3.24,0,0,1,120.13,114.27Z"/><path class="cls-3" d="M101.82,123.59a3.24,3.24,0,1,1-3.23-3.23A3.24,3.24,0,0,1,101.82,123.59Z"/><path class="cls-3" d="M101.82,114.27A3.24,3.24,0,1,1,98.59,111,3.23,3.23,0,0,1,101.82,114.27Z"/><path class="cls-3" d="M129.4,114.27a3.24,3.24,0,1,1-3.24-3.24A3.24,3.24,0,0,1,129.4,114.27Z"/><path class="cls-3" d="M138.74,114.27a3.24,3.24,0,1,1-3.23-3.24A3.23,3.23,0,0,1,138.74,114.27Z"/><path class="cls-3" d="M147.93,114.27A3.24,3.24,0,1,1,144.7,111,3.23,3.23,0,0,1,147.93,114.27Z"/><path class="cls-3" d="M157.17,114.27a3.24,3.24,0,1,1-3.23-3.24A3.23,3.23,0,0,1,157.17,114.27Z"/><path class="cls-3" d="M166.36,114.27a3.24,3.24,0,1,1-3.24-3.24A3.24,3.24,0,0,1,166.36,114.27Z"/><path class="cls-3" d="M175.62,114.27a3.24,3.24,0,1,1-3.23-3.24A3.23,3.23,0,0,1,175.62,114.27Z"/><path class="cls-3" d="M110.94,49.47a3.24,3.24,0,1,1-3.23-3.24A3.23,3.23,0,0,1,110.94,49.47Z"/><path class="cls-3" d="M120.13,49.47a3.24,3.24,0,1,1-3.24-3.24A3.24,3.24,0,0,1,120.13,49.47Z"/><path class="cls-3" d="M129.4,49.47a3.24,3.24,0,1,1-3.24-3.24A3.24,3.24,0,0,1,129.4,49.47Z"/><path class="cls-3" d="M138.74,49.47a3.24,3.24,0,1,1-3.23-3.24A3.23,3.23,0,0,1,138.74,49.47Z"/><path class="cls-3" d="M147.93,49.47a3.24,3.24,0,1,1-3.23-3.24A3.23,3.23,0,0,1,147.93,49.47Z"/><path class="cls-3" d="M157.17,49.47a3.24,3.24,0,1,1-3.23-3.24A3.23,3.23,0,0,1,157.17,49.47Z"/><path class="cls-3" d="M166.36,49.47a3.24,3.24,0,1,1-3.24-3.24A3.24,3.24,0,0,1,166.36,49.47Z"/><path class="cls-3" d="M175.62,49.47a3.24,3.24,0,1,1-3.23-3.24A3.23,3.23,0,0,1,175.62,49.47Z"/><path class="cls-3" d="M101.82,49.47a3.24,3.24,0,1,1-3.23-3.24A3.23,3.23,0,0,1,101.82,49.47Z"/><path class="cls-3" d="M110.94,40.42a3.24,3.24,0,1,1-3.23-3.24A3.23,3.23,0,0,1,110.94,40.42Z"/><path class="cls-3" d="M120.13,40.42a3.24,3.24,0,1,1-3.24-3.24A3.24,3.24,0,0,1,120.13,40.42Z"/><path class="cls-3" d="M101.82,40.42a3.24,3.24,0,1,1-3.23-3.24A3.23,3.23,0,0,1,101.82,40.42Z"/><path class="cls-3" d="M101.82,29.36a3.24,3.24,0,1,1-3.23-3.24A3.24,3.24,0,0,1,101.82,29.36Z"/><circle class="cls-4" cx="117.04" cy="96.02" r="3.24"/><path class="cls-3" d="M120.28,105.37a3.24,3.24,0,1,1-3.24-3.24A3.24,3.24,0,0,1,120.28,105.37Z"/><path class="cls-3" d="M129.47,96a3.24,3.24,0,1,1-3.24-3.24A3.24,3.24,0,0,1,129.47,96Z"/><path class="cls-3" d="M129.47,105.37a3.24,3.24,0,1,1-3.24-3.24A3.24,3.24,0,0,1,129.47,105.37Z"/><path class="cls-3" d="M138.73,96a3.24,3.24,0,1,1-3.23-3.24A3.23,3.23,0,0,1,138.73,96Z"/><path class="cls-3" d="M138.73,105.37a3.24,3.24,0,1,1-3.23-3.24A3.23,3.23,0,0,1,138.73,105.37Z"/><path class="cls-3" d="M148.08,96a3.24,3.24,0,1,1-3.23-3.24A3.23,3.23,0,0,1,148.08,96Z"/><path class="cls-3" d="M148.08,105.37a3.24,3.24,0,1,1-3.23-3.24A3.23,3.23,0,0,1,148.08,105.37Z"/><path class="cls-3" d="M157.27,96A3.24,3.24,0,1,1,154,92.78,3.24,3.24,0,0,1,157.27,96Z"/><path class="cls-3" d="M157.27,105.37a3.24,3.24,0,1,1-3.24-3.24A3.24,3.24,0,0,1,157.27,105.37Z"/><path class="cls-3" d="M101.47,96a3.23,3.23,0,1,1-3.23-3.24A3.23,3.23,0,0,1,101.47,96Z"/><path class="cls-3" d="M101.47,105.37a3.23,3.23,0,1,1-3.23-3.24A3.23,3.23,0,0,1,101.47,105.37Z"/><path class="cls-3" d="M110.74,96a3.24,3.24,0,1,1-3.23-3.24A3.23,3.23,0,0,1,110.74,96Z"/><path class="cls-3" d="M110.74,105.37a3.24,3.24,0,1,1-3.23-3.24A3.23,3.23,0,0,1,110.74,105.37Z"/><path class="cls-3" d="M73.55,150.89a3.24,3.24,0,1,1-3.24-3.23A3.24,3.24,0,0,1,73.55,150.89Z"/><path class="cls-3" d="M82.74,150.89a3.24,3.24,0,1,1-3.24-3.23A3.24,3.24,0,0,1,82.74,150.89Z"/><path class="cls-3" d="M92,150.89a3.24,3.24,0,1,1-3.24-3.23A3.24,3.24,0,0,1,92,150.89Z"/><path class="cls-3" d="M73.55,141.56a3.24,3.24,0,1,1-3.24-3.23A3.24,3.24,0,0,1,73.55,141.56Z"/><path class="cls-3" d="M82.74,141.56a3.24,3.24,0,1,1-3.24-3.23A3.24,3.24,0,0,1,82.74,141.56Z"/><path class="cls-3" d="M92,141.56a3.24,3.24,0,1,1-3.24-3.23A3.24,3.24,0,0,1,92,141.56Z"/><path class="cls-3" d="M82.89,132.66a3.24,3.24,0,1,1-3.23-3.23A3.24,3.24,0,0,1,82.89,132.66Z"/><path class="cls-3" d="M92.08,132.66a3.24,3.24,0,1,1-3.24-3.23A3.24,3.24,0,0,1,92.08,132.66Z"/><path class="cls-3" d="M73.65,132.66a3.24,3.24,0,1,1-3.23-3.23A3.24,3.24,0,0,1,73.65,132.66Z"/><path class="cls-3" d="M110.94,150.89a3.24,3.24,0,1,1-3.23-3.23A3.24,3.24,0,0,1,110.94,150.89Z"/><path class="cls-3" d="M120.13,150.89a3.24,3.24,0,1,1-3.24-3.23A3.24,3.24,0,0,1,120.13,150.89Z"/><path class="cls-3" d="M129.4,150.89a3.24,3.24,0,1,1-3.24-3.23A3.24,3.24,0,0,1,129.4,150.89Z"/><path class="cls-3" d="M138.74,150.89a3.24,3.24,0,1,1-3.23-3.23A3.23,3.23,0,0,1,138.74,150.89Z"/><path class="cls-3" d="M147.93,150.89a3.24,3.24,0,1,1-3.23-3.23A3.24,3.24,0,0,1,147.93,150.89Z"/><path class="cls-3" d="M157.17,150.89a3.24,3.24,0,1,1-3.23-3.23A3.24,3.24,0,0,1,157.17,150.89Z"/><path class="cls-3" d="M166.36,150.89a3.24,3.24,0,1,1-3.24-3.23A3.24,3.24,0,0,1,166.36,150.89Z"/><path class="cls-3" d="M175.62,150.89a3.24,3.24,0,1,1-3.23-3.23A3.23,3.23,0,0,1,175.62,150.89Z"/><path class="cls-3" d="M110.94,141.56a3.24,3.24,0,1,1-3.23-3.23A3.24,3.24,0,0,1,110.94,141.56Z"/><path class="cls-3" d="M120.13,141.56a3.24,3.24,0,1,1-3.24-3.23A3.24,3.24,0,0,1,120.13,141.56Z"/><path class="cls-3" d="M101.82,150.89a3.24,3.24,0,1,1-3.23-3.23A3.24,3.24,0,0,1,101.82,150.89Z"/><path class="cls-3" d="M101.82,141.56a3.24,3.24,0,1,1-3.23-3.23A3.24,3.24,0,0,1,101.82,141.56Z"/><path class="cls-3" d="M129.4,141.56a3.24,3.24,0,1,1-3.24-3.23A3.24,3.24,0,0,1,129.4,141.56Z"/><path class="cls-3" d="M138.74,141.56a3.24,3.24,0,1,1-3.23-3.23A3.23,3.23,0,0,1,138.74,141.56Z"/><path class="cls-3" d="M147.93,141.56a3.24,3.24,0,1,1-3.23-3.23A3.24,3.24,0,0,1,147.93,141.56Z"/><path class="cls-3" d="M157.17,141.56a3.24,3.24,0,1,1-3.23-3.23A3.24,3.24,0,0,1,157.17,141.56Z"/><path class="cls-3" d="M166.36,141.56a3.24,3.24,0,1,1-3.24-3.23A3.24,3.24,0,0,1,166.36,141.56Z"/><path class="cls-3" d="M175.62,141.56a3.24,3.24,0,1,1-3.23-3.23A3.23,3.23,0,0,1,175.62,141.56Z"/><path class="cls-3" d="M73.55,170a3.24,3.24,0,1,1-3.24-3.23A3.24,3.24,0,0,1,73.55,170Z"/><path class="cls-3" d="M82.74,170a3.24,3.24,0,1,1-3.24-3.23A3.24,3.24,0,0,1,82.74,170Z"/><path class="cls-3" d="M92,170a3.24,3.24,0,1,1-3.24-3.23A3.24,3.24,0,0,1,92,170Z"/><path class="cls-3" d="M73.55,160.66a3.24,3.24,0,1,1-3.24-3.23A3.24,3.24,0,0,1,73.55,160.66Z"/><path class="cls-3" d="M82.74,160.66a3.24,3.24,0,1,1-3.24-3.23A3.24,3.24,0,0,1,82.74,160.66Z"/><path class="cls-3" d="M92,160.66a3.24,3.24,0,1,1-3.24-3.23A3.24,3.24,0,0,1,92,160.66Z"/><path class="cls-3" d="M110.94,170a3.24,3.24,0,1,1-3.23-3.23A3.24,3.24,0,0,1,110.94,170Z"/><path class="cls-3" d="M120.13,170a3.24,3.24,0,1,1-3.24-3.23A3.24,3.24,0,0,1,120.13,170Z"/><path class="cls-3" d="M129.4,170a3.24,3.24,0,1,1-3.24-3.23A3.24,3.24,0,0,1,129.4,170Z"/><path class="cls-3" d="M138.74,170a3.24,3.24,0,1,1-3.23-3.23A3.23,3.23,0,0,1,138.74,170Z"/><path class="cls-3" d="M147.93,170a3.24,3.24,0,1,1-3.23-3.23A3.24,3.24,0,0,1,147.93,170Z"/><path class="cls-3" d="M157.17,170a3.24,3.24,0,1,1-3.23-3.23A3.24,3.24,0,0,1,157.17,170Z"/><path class="cls-3" d="M166.36,170a3.24,3.24,0,1,1-3.24-3.23A3.24,3.24,0,0,1,166.36,170Z"/><path class="cls-3" d="M175.62,170a3.24,3.24,0,1,1-3.23-3.23A3.23,3.23,0,0,1,175.62,170Z"/><path class="cls-3" d="M110.94,160.66a3.24,3.24,0,1,1-3.23-3.23A3.24,3.24,0,0,1,110.94,160.66Z"/><path class="cls-3" d="M120.13,160.66a3.24,3.24,0,1,1-3.24-3.23A3.24,3.24,0,0,1,120.13,160.66Z"/><path class="cls-3" d="M101.82,170a3.24,3.24,0,1,1-3.23-3.23A3.24,3.24,0,0,1,101.82,170Z"/><path class="cls-3" d="M101.82,160.66a3.24,3.24,0,1,1-3.23-3.23A3.24,3.24,0,0,1,101.82,160.66Z"/><path class="cls-3" d="M129.4,160.66a3.24,3.24,0,1,1-3.24-3.23A3.24,3.24,0,0,1,129.4,160.66Z"/><path class="cls-3" d="M138.74,160.66a3.24,3.24,0,1,1-3.23-3.23A3.23,3.23,0,0,1,138.74,160.66Z"/><path class="cls-3" d="M147.93,160.66a3.24,3.24,0,1,1-3.23-3.23A3.24,3.24,0,0,1,147.93,160.66Z"/><path class="cls-3" d="M157.17,160.66a3.24,3.24,0,1,1-3.23-3.23A3.24,3.24,0,0,1,157.17,160.66Z"/><path class="cls-3" d="M166.36,160.66a3.24,3.24,0,1,1-3.24-3.23A3.24,3.24,0,0,1,166.36,160.66Z"/><path class="cls-3" d="M175.62,160.66a3.24,3.24,0,1,1-3.23-3.23A3.23,3.23,0,0,1,175.62,160.66Z"/><path class="cls-3" d="M184.61,123.59a3.24,3.24,0,1,1-3.24-3.23A3.24,3.24,0,0,1,184.61,123.59Z"/><path class="cls-3" d="M184.61,132.23a3.24,3.24,0,1,1-3.24-3.23A3.24,3.24,0,0,1,184.61,132.23Z"/><path class="cls-3" d="M184.61,150.89a3.24,3.24,0,1,1-3.24-3.23A3.24,3.24,0,0,1,184.61,150.89Z"/><path class="cls-3" d="M184.61,141.56a3.24,3.24,0,1,1-3.24-3.23A3.24,3.24,0,0,1,184.61,141.56Z"/><path class="cls-3" d="M203.27,132.23A3.24,3.24,0,1,1,200,129,3.24,3.24,0,0,1,203.27,132.23Z"/><path class="cls-3" d="M203.27,141.56a3.24,3.24,0,1,1-3.24-3.23A3.24,3.24,0,0,1,203.27,141.56Z"/><path class="cls-3" d="M193.51,123.8a3.24,3.24,0,1,1-3.23-3.23A3.23,3.23,0,0,1,193.51,123.8Z"/><path class="cls-3" d="M193.94,141.56a3.24,3.24,0,1,1-3.23-3.23A3.24,3.24,0,0,1,193.94,141.56Z"/><path class="cls-3" d="M184.61,160.66a3.24,3.24,0,1,1-3.24-3.23A3.24,3.24,0,0,1,184.61,160.66Z"/><path class="cls-3" d="M73.55,188.65a3.24,3.24,0,1,1-3.24-3.23A3.24,3.24,0,0,1,73.55,188.65Z"/><path class="cls-3" d="M82.74,188.65a3.24,3.24,0,1,1-3.24-3.23A3.24,3.24,0,0,1,82.74,188.65Z"/><path class="cls-3" d="M92,188.65a3.24,3.24,0,1,1-3.24-3.23A3.24,3.24,0,0,1,92,188.65Z"/><path class="cls-3" d="M73.55,179.32a3.24,3.24,0,1,1-3.24-3.23A3.24,3.24,0,0,1,73.55,179.32Z"/><path class="cls-3" d="M82.74,179.32a3.24,3.24,0,1,1-3.24-3.23A3.24,3.24,0,0,1,82.74,179.32Z"/><path class="cls-3" d="M92,179.32a3.24,3.24,0,1,1-3.24-3.23A3.24,3.24,0,0,1,92,179.32Z"/><path class="cls-3" d="M110.94,188.65a3.24,3.24,0,1,1-3.23-3.23A3.24,3.24,0,0,1,110.94,188.65Z"/><path class="cls-3" d="M120.13,188.65a3.24,3.24,0,1,1-3.24-3.23A3.24,3.24,0,0,1,120.13,188.65Z"/><path class="cls-3" d="M129.4,188.65a3.24,3.24,0,1,1-3.24-3.23A3.24,3.24,0,0,1,129.4,188.65Z"/><path class="cls-3" d="M138.74,188.65a3.24,3.24,0,1,1-3.23-3.23A3.23,3.23,0,0,1,138.74,188.65Z"/><path class="cls-3" d="M147.93,188.65a3.24,3.24,0,1,1-3.23-3.23A3.24,3.24,0,0,1,147.93,188.65Z"/><path class="cls-3" d="M166.36,188.65a3.24,3.24,0,1,1-3.24-3.23A3.24,3.24,0,0,1,166.36,188.65Z"/><path class="cls-3" d="M175.62,188.65a3.24,3.24,0,1,1-3.23-3.23A3.23,3.23,0,0,1,175.62,188.65Z"/><path class="cls-3" d="M175.34,197.64a3.24,3.24,0,1,1-3.23-3.23A3.23,3.23,0,0,1,175.34,197.64Z"/><path class="cls-3" d="M184.61,197.64a3.24,3.24,0,1,1-3.24-3.23A3.23,3.23,0,0,1,184.61,197.64Z"/><path class="cls-3" d="M221.93,160.66a3.24,3.24,0,1,1-3.24-3.23A3.24,3.24,0,0,1,221.93,160.66Z"/><path class="cls-3" d="M221.93,178.29a3.24,3.24,0,1,1-3.24-3.24A3.23,3.23,0,0,1,221.93,178.29Z"/><path class="cls-3" d="M212.94,160.66a3.24,3.24,0,1,1-3.23-3.23A3.24,3.24,0,0,1,212.94,160.66Z"/><path class="cls-3" d="M221.93,188.65a3.24,3.24,0,1,1-3.24-3.23A3.24,3.24,0,0,1,221.93,188.65Z"/><path class="cls-3" d="M221.64,197.64a3.24,3.24,0,1,1-3.23-3.23A3.22,3.22,0,0,1,221.64,197.64Z"/><path class="cls-3" d="M213.35,197.64a3.24,3.24,0,1,1-3.23-3.23A3.23,3.23,0,0,1,213.35,197.64Z"/><path class="cls-3" d="M203.27,197.64a3.24,3.24,0,1,1-3.24-3.23A3.23,3.23,0,0,1,203.27,197.64Z"/><path class="cls-3" d="M110.94,179.32a3.24,3.24,0,1,1-3.23-3.23A3.24,3.24,0,0,1,110.94,179.32Z"/><path class="cls-3" d="M120.13,179.32a3.24,3.24,0,1,1-3.24-3.23A3.24,3.24,0,0,1,120.13,179.32Z"/><path class="cls-3" d="M101.82,188.65a3.24,3.24,0,1,1-3.23-3.23A3.24,3.24,0,0,1,101.82,188.65Z"/><path class="cls-3" d="M101.82,179.32a3.24,3.24,0,1,1-3.23-3.23A3.24,3.24,0,0,1,101.82,179.32Z"/><path class="cls-3" d="M129.4,179.32a3.24,3.24,0,1,1-3.24-3.23A3.24,3.24,0,0,1,129.4,179.32Z"/><path class="cls-3" d="M138.74,179.32a3.24,3.24,0,1,1-3.23-3.23A3.23,3.23,0,0,1,138.74,179.32Z"/><path class="cls-3" d="M147.93,179.32a3.24,3.24,0,1,1-3.23-3.23A3.24,3.24,0,0,1,147.93,179.32Z"/><path class="cls-3" d="M73.55,206.87a3.24,3.24,0,1,1-3.24-3.24A3.24,3.24,0,0,1,73.55,206.87Z"/><path class="cls-3" d="M82.74,206.87a3.24,3.24,0,1,1-3.24-3.24A3.24,3.24,0,0,1,82.74,206.87Z"/><path class="cls-3" d="M92,206.87a3.24,3.24,0,1,1-3.24-3.24A3.24,3.24,0,0,1,92,206.87Z"/><path class="cls-3" d="M73.55,197.54a3.24,3.24,0,1,1-3.24-3.24A3.24,3.24,0,0,1,73.55,197.54Z"/><path class="cls-3" d="M82.74,197.54a3.24,3.24,0,1,1-3.24-3.24A3.24,3.24,0,0,1,82.74,197.54Z"/><path class="cls-3" d="M92,197.54a3.24,3.24,0,1,1-3.24-3.24A3.24,3.24,0,0,1,92,197.54Z"/><path class="cls-3" d="M110.94,206.87a3.24,3.24,0,1,1-3.23-3.24A3.24,3.24,0,0,1,110.94,206.87Z"/><path class="cls-3" d="M120.13,206.87a3.24,3.24,0,1,1-3.24-3.24A3.24,3.24,0,0,1,120.13,206.87Z"/><path class="cls-3" d="M129.4,206.87a3.24,3.24,0,1,1-3.24-3.24A3.24,3.24,0,0,1,129.4,206.87Z"/><path class="cls-3" d="M138.74,206.87a3.24,3.24,0,1,1-3.23-3.24A3.23,3.23,0,0,1,138.74,206.87Z"/><path class="cls-3" d="M147.93,206.87a3.24,3.24,0,1,1-3.23-3.24A3.24,3.24,0,0,1,147.93,206.87Z"/><path class="cls-3" d="M110.94,197.54a3.24,3.24,0,1,1-3.23-3.24A3.24,3.24,0,0,1,110.94,197.54Z"/><path class="cls-3" d="M120.13,197.54a3.24,3.24,0,1,1-3.24-3.24A3.24,3.24,0,0,1,120.13,197.54Z"/><path class="cls-3" d="M101.82,206.87a3.24,3.24,0,1,1-3.23-3.24A3.24,3.24,0,0,1,101.82,206.87Z"/><path class="cls-3" d="M101.82,197.54a3.24,3.24,0,1,1-3.23-3.24A3.24,3.24,0,0,1,101.82,197.54Z"/><path class="cls-3" d="M129.4,197.54a3.24,3.24,0,1,1-3.24-3.24A3.24,3.24,0,0,1,129.4,197.54Z"/><path class="cls-3" d="M138.74,197.54a3.24,3.24,0,1,1-3.23-3.24A3.23,3.23,0,0,1,138.74,197.54Z"/><path class="cls-3" d="M147.93,197.54a3.24,3.24,0,1,1-3.23-3.24A3.24,3.24,0,0,1,147.93,197.54Z"/><path class="cls-3" d="M73.55,226a3.24,3.24,0,1,1-3.24-3.24A3.24,3.24,0,0,1,73.55,226Z"/><path class="cls-3" d="M82.74,226a3.24,3.24,0,1,1-3.24-3.24A3.24,3.24,0,0,1,82.74,226Z"/><path class="cls-3" d="M92,226a3.24,3.24,0,1,1-3.24-3.24A3.24,3.24,0,0,1,92,226Z"/><path class="cls-3" d="M73.55,216.64a3.24,3.24,0,1,1-3.24-3.23A3.24,3.24,0,0,1,73.55,216.64Z"/><path class="cls-3" d="M82.74,216.64a3.24,3.24,0,1,1-3.24-3.23A3.24,3.24,0,0,1,82.74,216.64Z"/><path class="cls-3" d="M92,216.64a3.24,3.24,0,1,1-3.24-3.23A3.24,3.24,0,0,1,92,216.64Z"/><path class="cls-3" d="M110.94,226a3.24,3.24,0,1,1-3.23-3.24A3.23,3.23,0,0,1,110.94,226Z"/><path class="cls-3" d="M120.13,226a3.24,3.24,0,1,1-3.24-3.24A3.24,3.24,0,0,1,120.13,226Z"/><path class="cls-3" d="M129.4,226a3.24,3.24,0,1,1-3.24-3.24A3.24,3.24,0,0,1,129.4,226Z"/><path class="cls-3" d="M138.74,226a3.24,3.24,0,1,1-3.23-3.24A3.23,3.23,0,0,1,138.74,226Z"/><path class="cls-3" d="M147.93,226a3.24,3.24,0,1,1-3.23-3.24A3.23,3.23,0,0,1,147.93,226Z"/><path class="cls-3" d="M110.94,216.64a3.24,3.24,0,1,1-3.23-3.23A3.24,3.24,0,0,1,110.94,216.64Z"/><path class="cls-3" d="M120.13,216.64a3.24,3.24,0,1,1-3.24-3.23A3.24,3.24,0,0,1,120.13,216.64Z"/><path class="cls-3" d="M101.82,226a3.24,3.24,0,1,1-3.23-3.24A3.23,3.23,0,0,1,101.82,226Z"/><path class="cls-3" d="M101.82,216.64a3.24,3.24,0,1,1-3.23-3.23A3.24,3.24,0,0,1,101.82,216.64Z"/><path class="cls-3" d="M129.4,216.64a3.24,3.24,0,1,1-3.24-3.23A3.24,3.24,0,0,1,129.4,216.64Z"/><path class="cls-3" d="M138.74,216.64a3.24,3.24,0,1,1-3.23-3.23A3.23,3.23,0,0,1,138.74,216.64Z"/><path class="cls-3" d="M147.93,216.64a3.24,3.24,0,1,1-3.23-3.23A3.24,3.24,0,0,1,147.93,216.64Z"/><path class="cls-3" d="M73.55,244.63a3.24,3.24,0,1,1-3.24-3.23A3.24,3.24,0,0,1,73.55,244.63Z"/><path class="cls-3" d="M82.74,244.63a3.24,3.24,0,1,1-3.24-3.23A3.24,3.24,0,0,1,82.74,244.63Z"/><path class="cls-3" d="M92,244.63a3.24,3.24,0,1,1-3.24-3.23A3.24,3.24,0,0,1,92,244.63Z"/><path class="cls-3" d="M73.55,235.3a3.24,3.24,0,1,1-3.24-3.24A3.24,3.24,0,0,1,73.55,235.3Z"/><path class="cls-3" d="M82.74,235.3a3.24,3.24,0,1,1-3.24-3.24A3.24,3.24,0,0,1,82.74,235.3Z"/><path class="cls-3" d="M92,235.3a3.24,3.24,0,1,1-3.24-3.24A3.24,3.24,0,0,1,92,235.3Z"/><path class="cls-3" d="M110.94,244.63a3.24,3.24,0,1,1-3.23-3.23A3.24,3.24,0,0,1,110.94,244.63Z"/><path class="cls-3" d="M120.13,244.63a3.24,3.24,0,1,1-3.24-3.23A3.24,3.24,0,0,1,120.13,244.63Z"/><path class="cls-3" d="M129.4,244.63a3.24,3.24,0,1,1-3.24-3.23A3.24,3.24,0,0,1,129.4,244.63Z"/><path class="cls-3" d="M138.74,244.63a3.24,3.24,0,1,1-3.23-3.23A3.23,3.23,0,0,1,138.74,244.63Z"/><path class="cls-3" d="M147.93,244.63a3.24,3.24,0,1,1-3.23-3.23A3.24,3.24,0,0,1,147.93,244.63Z"/><path class="cls-3" d="M110.94,235.3a3.24,3.24,0,1,1-3.23-3.24A3.24,3.24,0,0,1,110.94,235.3Z"/><path class="cls-3" d="M120.13,235.3a3.24,3.24,0,1,1-3.24-3.24A3.24,3.24,0,0,1,120.13,235.3Z"/><path class="cls-3" d="M101.82,244.63a3.24,3.24,0,1,1-3.23-3.23A3.24,3.24,0,0,1,101.82,244.63Z"/><path class="cls-3" d="M101.82,235.3a3.24,3.24,0,1,1-3.23-3.24A3.24,3.24,0,0,1,101.82,235.3Z"/><path class="cls-3" d="M129.4,235.3a3.24,3.24,0,1,1-3.24-3.24A3.24,3.24,0,0,1,129.4,235.3Z"/><path class="cls-3" d="M138.74,235.3a3.24,3.24,0,1,1-3.23-3.24A3.23,3.23,0,0,1,138.74,235.3Z"/><path class="cls-3" d="M147.93,235.3a3.24,3.24,0,1,1-3.23-3.24A3.24,3.24,0,0,1,147.93,235.3Z"/><path class="cls-3" d="M156.91,226a3.24,3.24,0,1,1-3.23-3.24A3.23,3.23,0,0,1,156.91,226Z"/><path class="cls-3" d="M164.52,226a3.24,3.24,0,1,1-3.23-3.24A3.23,3.23,0,0,1,164.52,226Z"/><path class="cls-3" d="M169,254a3.24,3.24,0,1,1-3.23-3.23A3.23,3.23,0,0,1,169,254Z"/><path class="cls-3" d="M175.58,280.44a3.24,3.24,0,1,1-3.24-3.23A3.24,3.24,0,0,1,175.58,280.44Z"/><path class="cls-3" d="M175.58,290.12a3.24,3.24,0,1,1-3.24-3.24A3.23,3.23,0,0,1,175.58,290.12Z"/><path class="cls-3" d="M184.56,300.14a3.24,3.24,0,1,1-3.23-3.23A3.23,3.23,0,0,1,184.56,300.14Z"/><path class="cls-3" d="M194.24,308.21A3.24,3.24,0,1,1,191,305,3.24,3.24,0,0,1,194.24,308.21Z"/><path class="cls-3" d="M186.29,317.54a3.24,3.24,0,1,1-3.23-3.24A3.24,3.24,0,0,1,186.29,317.54Z"/><path class="cls-3" d="M166.25,317.54A3.24,3.24,0,1,1,163,314.3,3.24,3.24,0,0,1,166.25,317.54Z"/><path class="cls-3" d="M193.89,326.87a3.24,3.24,0,1,1-3.23-3.23A3.24,3.24,0,0,1,193.89,326.87Z"/><path class="cls-3" d="M201.84,326.87a3.24,3.24,0,1,1-3.23-3.23A3.24,3.24,0,0,1,201.84,326.87Z"/><path class="cls-3" d="M156.91,216.64a3.24,3.24,0,1,1-3.23-3.23A3.24,3.24,0,0,1,156.91,216.64Z"/><path class="cls-3" d="M156.91,244.63a3.24,3.24,0,1,1-3.23-3.23A3.24,3.24,0,0,1,156.91,244.63Z"/><path class="cls-3" d="M156.91,235.3a3.24,3.24,0,1,1-3.23-3.24A3.24,3.24,0,0,1,156.91,235.3Z"/><path class="cls-3" d="M73.55,262.16a3.24,3.24,0,1,1-3.24-3.24A3.24,3.24,0,0,1,73.55,262.16Z"/><path class="cls-3" d="M82.74,262.16a3.24,3.24,0,1,1-3.24-3.24A3.24,3.24,0,0,1,82.74,262.16Z"/><path class="cls-3" d="M92,262.16a3.24,3.24,0,1,1-3.24-3.24A3.24,3.24,0,0,1,92,262.16Z"/><path class="cls-3" d="M73.55,252.83a3.24,3.24,0,1,1-3.24-3.24A3.24,3.24,0,0,1,73.55,252.83Z"/><circle class="cls-4" cx="79.5" cy="252.83" r="3.24"/><path class="cls-3" d="M92,252.83a3.24,3.24,0,1,1-3.24-3.24A3.24,3.24,0,0,1,92,252.83Z"/><path class="cls-3" d="M110.94,262.16a3.24,3.24,0,1,1-3.23-3.24A3.23,3.23,0,0,1,110.94,262.16Z"/><path class="cls-3" d="M120.13,262.16a3.24,3.24,0,1,1-3.24-3.24A3.24,3.24,0,0,1,120.13,262.16Z"/><path class="cls-3" d="M129.4,262.16a3.24,3.24,0,1,1-3.24-3.24A3.24,3.24,0,0,1,129.4,262.16Z"/><path class="cls-3" d="M110.94,252.83a3.24,3.24,0,1,1-3.23-3.24A3.23,3.23,0,0,1,110.94,252.83Z"/><path class="cls-3" d="M120.13,252.83a3.24,3.24,0,1,1-3.24-3.24A3.24,3.24,0,0,1,120.13,252.83Z"/><path class="cls-3" d="M101.82,262.16a3.24,3.24,0,1,1-3.23-3.24A3.23,3.23,0,0,1,101.82,262.16Z"/><path class="cls-3" d="M101.82,252.83a3.24,3.24,0,1,1-3.23-3.24A3.23,3.23,0,0,1,101.82,252.83Z"/><path class="cls-3" d="M129.4,252.83a3.24,3.24,0,1,1-3.24-3.24A3.24,3.24,0,0,1,129.4,252.83Z"/><path class="cls-3" d="M138.74,252.83a3.24,3.24,0,1,1-3.23-3.24A3.23,3.23,0,0,1,138.74,252.83Z"/><path class="cls-3" d="M147.93,252.83a3.24,3.24,0,1,1-3.23-3.24A3.23,3.23,0,0,1,147.93,252.83Z"/><path class="cls-3" d="M193.59,410.15a3.24,3.24,0,1,1-3.23-3.24A3.23,3.23,0,0,1,193.59,410.15Z"/><path class="cls-3" d="M212.25,362.11a3.24,3.24,0,1,1-3.23-3.23A3.24,3.24,0,0,1,212.25,362.11Z"/><path class="cls-3" d="M212.25,353.82a3.24,3.24,0,1,1-3.23-3.23A3.24,3.24,0,0,1,212.25,353.82Z"/><path class="cls-3" d="M221.72,428.36a3.24,3.24,0,1,1-3.24-3.23A3.24,3.24,0,0,1,221.72,428.36Z"/><path class="cls-3" d="M231,428.36a3.24,3.24,0,1,1-3.24-3.23A3.24,3.24,0,0,1,231,428.36Z"/><path class="cls-3" d="M203.41,428.36a3.24,3.24,0,1,1-3.24-3.23A3.24,3.24,0,0,1,203.41,428.36Z"/><path class="cls-3" d="M231,419a3.24,3.24,0,1,1-3.24-3.23A3.24,3.24,0,0,1,231,419Z"/><path class="cls-3" d="M240.33,419a3.24,3.24,0,1,1-3.23-3.23A3.24,3.24,0,0,1,240.33,419Z"/><path class="cls-3" d="M193.59,447.47a3.24,3.24,0,1,1-3.23-3.24A3.23,3.23,0,0,1,193.59,447.47Z"/><path class="cls-3" d="M193.59,438.14a3.24,3.24,0,1,1-3.23-3.24A3.23,3.23,0,0,1,193.59,438.14Z"/><path class="cls-3" d="M212.53,447.47a3.24,3.24,0,1,1-3.23-3.24A3.23,3.23,0,0,1,212.53,447.47Z"/><path class="cls-3" d="M221.72,447.47a3.24,3.24,0,1,1-3.24-3.24A3.24,3.24,0,0,1,221.72,447.47Z"/><path class="cls-3" d="M231,447.47a3.24,3.24,0,1,1-3.24-3.24A3.24,3.24,0,0,1,231,447.47Z"/><path class="cls-3" d="M240.33,447.47a3.24,3.24,0,1,1-3.23-3.24A3.23,3.23,0,0,1,240.33,447.47Z"/><path class="cls-3" d="M249.52,372.83a3.24,3.24,0,1,1-3.24-3.24A3.23,3.23,0,0,1,249.52,372.83Z"/><path class="cls-3" d="M231.21,372.83a3.24,3.24,0,1,1-3.24-3.24A3.23,3.23,0,0,1,231.21,372.83Z"/><path class="cls-3" d="M212.53,438.14a3.24,3.24,0,1,1-3.23-3.24A3.23,3.23,0,0,1,212.53,438.14Z"/><path class="cls-3" d="M221.72,438.14a3.24,3.24,0,1,1-3.24-3.24A3.24,3.24,0,0,1,221.72,438.14Z"/><path class="cls-3" d="M203.41,447.47a3.24,3.24,0,1,1-3.24-3.24A3.24,3.24,0,0,1,203.41,447.47Z"/><path class="cls-3" d="M203.41,438.14a3.24,3.24,0,1,1-3.24-3.24A3.24,3.24,0,0,1,203.41,438.14Z"/><path class="cls-3" d="M231,438.14a3.24,3.24,0,1,1-3.24-3.24A3.24,3.24,0,0,1,231,438.14Z"/><path class="cls-3" d="M240.33,438.14a3.24,3.24,0,1,1-3.23-3.24A3.23,3.23,0,0,1,240.33,438.14Z"/><path class="cls-3" d="M193.59,466.12a3.24,3.24,0,1,1-3.23-3.23A3.24,3.24,0,0,1,193.59,466.12Z"/><path class="cls-3" d="M193.59,456.79a3.24,3.24,0,1,1-3.23-3.23A3.24,3.24,0,0,1,193.59,456.79Z"/><path class="cls-3" d="M212.53,466.12a3.24,3.24,0,1,1-3.23-3.23A3.24,3.24,0,0,1,212.53,466.12Z"/><path class="cls-3" d="M221.72,466.12a3.24,3.24,0,1,1-3.24-3.23A3.24,3.24,0,0,1,221.72,466.12Z"/><path class="cls-3" d="M231,466.12a3.24,3.24,0,1,1-3.24-3.23A3.24,3.24,0,0,1,231,466.12Z"/><path class="cls-3" d="M240.33,466.12a3.24,3.24,0,1,1-3.23-3.23A3.24,3.24,0,0,1,240.33,466.12Z"/><path class="cls-3" d="M212.53,456.79a3.24,3.24,0,1,1-3.23-3.23A3.24,3.24,0,0,1,212.53,456.79Z"/><path class="cls-3" d="M221.72,456.79a3.24,3.24,0,1,1-3.24-3.23A3.24,3.24,0,0,1,221.72,456.79Z"/><path class="cls-3" d="M203.41,466.12a3.24,3.24,0,1,1-3.24-3.23A3.24,3.24,0,0,1,203.41,466.12Z"/><path class="cls-3" d="M203.41,456.79a3.24,3.24,0,1,1-3.24-3.23A3.24,3.24,0,0,1,203.41,456.79Z"/><path class="cls-3" d="M231,456.79a3.24,3.24,0,1,1-3.24-3.23A3.24,3.24,0,0,1,231,456.79Z"/><path class="cls-3" d="M240.33,456.79a3.24,3.24,0,1,1-3.23-3.23A3.24,3.24,0,0,1,240.33,456.79Z"/><path class="cls-3" d="M249.52,382.16a3.24,3.24,0,1,1-3.24-3.24A3.24,3.24,0,0,1,249.52,382.16Z"/><path class="cls-3" d="M240.19,382.16a3.24,3.24,0,1,1-3.24-3.24A3.24,3.24,0,0,1,240.19,382.16Z"/><path class="cls-3" d="M193.59,483.65a3.24,3.24,0,1,1-3.23-3.24A3.23,3.23,0,0,1,193.59,483.65Z"/><path class="cls-3" d="M193.59,474.32a3.24,3.24,0,1,1-3.23-3.24A3.23,3.23,0,0,1,193.59,474.32Z"/><path class="cls-3" d="M212.53,483.65a3.24,3.24,0,1,1-3.23-3.24A3.23,3.23,0,0,1,212.53,483.65Z"/><path class="cls-3" d="M221.72,483.65a3.24,3.24,0,1,1-3.24-3.24A3.23,3.23,0,0,1,221.72,483.65Z"/><path class="cls-3" d="M231,483.65a3.24,3.24,0,1,1-3.24-3.24A3.23,3.23,0,0,1,231,483.65Z"/><path class="cls-3" d="M212.53,474.32a3.24,3.24,0,1,1-3.23-3.24A3.23,3.23,0,0,1,212.53,474.32Z"/><path class="cls-3" d="M221.72,474.32a3.24,3.24,0,1,1-3.24-3.24A3.24,3.24,0,0,1,221.72,474.32Z"/><path class="cls-3" d="M203.41,483.65a3.24,3.24,0,1,1-3.24-3.24A3.23,3.23,0,0,1,203.41,483.65Z"/><path class="cls-3" d="M203.41,474.32a3.24,3.24,0,1,1-3.24-3.24A3.24,3.24,0,0,1,203.41,474.32Z"/><path class="cls-3" d="M231,474.32a3.24,3.24,0,1,1-3.24-3.24A3.24,3.24,0,0,1,231,474.32Z"/><path class="cls-3" d="M240.33,474.32a3.24,3.24,0,1,1-3.23-3.24A3.23,3.23,0,0,1,240.33,474.32Z"/><path class="cls-3" d="M193.59,493.42a3.24,3.24,0,1,1-3.23-3.24A3.24,3.24,0,0,1,193.59,493.42Z"/><path class="cls-3" d="M212.53,493.42a3.24,3.24,0,1,1-3.23-3.24A3.24,3.24,0,0,1,212.53,493.42Z"/><path class="cls-3" d="M221.72,493.42a3.24,3.24,0,1,1-3.24-3.24A3.24,3.24,0,0,1,221.72,493.42Z"/><path class="cls-3" d="M231,493.42a3.24,3.24,0,1,1-3.24-3.24A3.24,3.24,0,0,1,231,493.42Z"/><path class="cls-3" d="M240.33,493.42a3.24,3.24,0,1,1-3.23-3.24A3.24,3.24,0,0,1,240.33,493.42Z"/><path class="cls-3" d="M249.52,493.42a3.24,3.24,0,1,1-3.24-3.24A3.24,3.24,0,0,1,249.52,493.42Z"/><path class="cls-3" d="M203.41,493.42a3.24,3.24,0,1,1-3.24-3.24A3.24,3.24,0,0,1,203.41,493.42Z"/><path class="cls-3" d="M193.59,502.31a3.24,3.24,0,1,1-3.23-3.24A3.23,3.23,0,0,1,193.59,502.31Z"/><path class="cls-3" d="M193.59,511.64a3.24,3.24,0,1,1-3.23-3.24A3.23,3.23,0,0,1,193.59,511.64Z"/><path class="cls-3" d="M185,447.47a3.24,3.24,0,1,1-3.24-3.24A3.24,3.24,0,0,1,185,447.47Z"/><path class="cls-3" d="M185,466.12a3.24,3.24,0,1,1-3.24-3.23A3.25,3.25,0,0,1,185,466.12Z"/><path class="cls-3" d="M185,456.79a3.24,3.24,0,1,1-3.24-3.23A3.25,3.25,0,0,1,185,456.79Z"/><path class="cls-3" d="M185,483.65a3.24,3.24,0,1,1-3.24-3.24A3.24,3.24,0,0,1,185,483.65Z"/><path class="cls-3" d="M185,474.32a3.24,3.24,0,1,1-3.24-3.24A3.24,3.24,0,0,1,185,474.32Z"/><path class="cls-3" d="M185,493.42a3.24,3.24,0,1,1-3.24-3.24A3.25,3.25,0,0,1,185,493.42Z"/><path class="cls-3" d="M185,502.31a3.24,3.24,0,1,1-3.24-3.24A3.24,3.24,0,0,1,185,502.31Z"/><path class="cls-3" d="M185,511.64a3.24,3.24,0,1,1-3.24-3.24A3.24,3.24,0,0,1,185,511.64Z"/><path class="cls-3" d="M175.28,466.12a3.24,3.24,0,1,1-3.24-3.23A3.24,3.24,0,0,1,175.28,466.12Z"/><path class="cls-3" d="M175.28,456.79a3.24,3.24,0,1,1-3.24-3.23A3.24,3.24,0,0,1,175.28,456.79Z"/><path class="cls-3" d="M175.28,483.65a3.24,3.24,0,1,1-3.24-3.24A3.23,3.23,0,0,1,175.28,483.65Z"/><path class="cls-3" d="M175.28,474.32a3.24,3.24,0,1,1-3.24-3.24A3.24,3.24,0,0,1,175.28,474.32Z"/><path class="cls-3" d="M175.28,493.42a3.24,3.24,0,1,1-3.24-3.24A3.24,3.24,0,0,1,175.28,493.42Z"/><path class="cls-3" d="M175.28,502.31a3.24,3.24,0,1,1-3.24-3.24A3.24,3.24,0,0,1,175.28,502.31Z"/><path class="cls-3" d="M175.28,511.64A3.24,3.24,0,1,1,172,508.4,3.24,3.24,0,0,1,175.28,511.64Z"/><path class="cls-3" d="M166,466.12a3.24,3.24,0,1,1-3.24-3.23A3.24,3.24,0,0,1,166,466.12Z"/><path class="cls-3" d="M166,456.79a3.24,3.24,0,1,1-3.24-3.23A3.24,3.24,0,0,1,166,456.79Z"/><path class="cls-3" d="M166,483.65a3.24,3.24,0,1,1-3.24-3.24A3.23,3.23,0,0,1,166,483.65Z"/><path class="cls-3" d="M166,474.32a3.24,3.24,0,1,1-3.24-3.24A3.24,3.24,0,0,1,166,474.32Z"/><path class="cls-3" d="M166,493.42a3.24,3.24,0,1,1-3.24-3.24A3.24,3.24,0,0,1,166,493.42Z"/><path class="cls-3" d="M166,502.31a3.24,3.24,0,1,1-3.24-3.24A3.24,3.24,0,0,1,166,502.31Z"/><path class="cls-3" d="M166,511.64a3.24,3.24,0,1,1-3.24-3.24A3.24,3.24,0,0,1,166,511.64Z"/><path class="cls-3" d="M157,466.12a3.24,3.24,0,1,1-3.24-3.23A3.24,3.24,0,0,1,157,466.12Z"/><path class="cls-3" d="M157,483.65a3.24,3.24,0,1,1-3.24-3.24A3.23,3.23,0,0,1,157,483.65Z"/><path class="cls-3" d="M157,474.32a3.24,3.24,0,1,1-3.24-3.24A3.24,3.24,0,0,1,157,474.32Z"/><path class="cls-3" d="M157,493.42a3.24,3.24,0,1,1-3.24-3.24A3.24,3.24,0,0,1,157,493.42Z"/><path class="cls-3" d="M157,502.31a3.24,3.24,0,1,1-3.24-3.24A3.24,3.24,0,0,1,157,502.31Z"/><path class="cls-3" d="M157,511.64a3.24,3.24,0,1,1-3.24-3.24A3.24,3.24,0,0,1,157,511.64Z"/><path class="cls-3" d="M147.64,466.12a3.24,3.24,0,1,1-3.24-3.23A3.24,3.24,0,0,1,147.64,466.12Z"/><path class="cls-3" d="M147.64,483.65a3.24,3.24,0,1,1-3.24-3.24A3.23,3.23,0,0,1,147.64,483.65Z"/><path class="cls-3" d="M147.64,474.32a3.24,3.24,0,1,1-3.24-3.24A3.24,3.24,0,0,1,147.64,474.32Z"/><path class="cls-3" d="M147.64,493.42a3.24,3.24,0,1,1-3.24-3.24A3.24,3.24,0,0,1,147.64,493.42Z"/><path class="cls-3" d="M147.64,502.31a3.24,3.24,0,1,1-3.24-3.24A3.24,3.24,0,0,1,147.64,502.31Z"/><path class="cls-3" d="M147.64,511.64a3.24,3.24,0,1,1-3.24-3.24A3.24,3.24,0,0,1,147.64,511.64Z"/><path class="cls-3" d="M138.31,483.65a3.24,3.24,0,1,1-3.24-3.24A3.23,3.23,0,0,1,138.31,483.65Z"/><path class="cls-3" d="M138.31,474.32a3.24,3.24,0,1,1-3.24-3.24A3.24,3.24,0,0,1,138.31,474.32Z"/><path class="cls-3" d="M138.31,493.42a3.24,3.24,0,1,1-3.24-3.24A3.24,3.24,0,0,1,138.31,493.42Z"/><path class="cls-3" d="M138.31,502.31a3.24,3.24,0,1,1-3.24-3.24A3.24,3.24,0,0,1,138.31,502.31Z"/><path class="cls-3" d="M138.31,511.64a3.24,3.24,0,1,1-3.24-3.24A3.24,3.24,0,0,1,138.31,511.64Z"/><path class="cls-3" d="M157,521.31a3.24,3.24,0,1,1-3.24-3.24A3.24,3.24,0,0,1,157,521.31Z"/><path class="cls-3" d="M147.64,521.31a3.24,3.24,0,1,1-3.24-3.24A3.24,3.24,0,0,1,147.64,521.31Z"/><path class="cls-3" d="M138.31,521.31a3.24,3.24,0,1,1-3.24-3.24A3.24,3.24,0,0,1,138.31,521.31Z"/><path class="cls-3" d="M212.53,511.64a3.24,3.24,0,1,1-3.23-3.24A3.23,3.23,0,0,1,212.53,511.64Z"/><path class="cls-3" d="M221.72,511.64a3.24,3.24,0,1,1-3.24-3.24A3.24,3.24,0,0,1,221.72,511.64Z"/><path class="cls-3" d="M231,511.64a3.24,3.24,0,1,1-3.24-3.24A3.24,3.24,0,0,1,231,511.64Z"/><path class="cls-3" d="M240.33,511.64a3.24,3.24,0,1,1-3.23-3.24A3.23,3.23,0,0,1,240.33,511.64Z"/><path class="cls-3" d="M249.52,511.64a3.24,3.24,0,1,1-3.24-3.24A3.24,3.24,0,0,1,249.52,511.64Z"/><path class="cls-3" d="M212.53,502.31a3.24,3.24,0,1,1-3.23-3.24A3.23,3.23,0,0,1,212.53,502.31Z"/><path class="cls-3" d="M221.72,502.31a3.24,3.24,0,1,1-3.24-3.24A3.24,3.24,0,0,1,221.72,502.31Z"/><path class="cls-3" d="M203.41,511.64a3.24,3.24,0,1,1-3.24-3.24A3.24,3.24,0,0,1,203.41,511.64Z"/><path class="cls-3" d="M203.41,502.31a3.24,3.24,0,1,1-3.24-3.24A3.24,3.24,0,0,1,203.41,502.31Z"/><path class="cls-3" d="M231,502.31a3.24,3.24,0,1,1-3.24-3.24A3.24,3.24,0,0,1,231,502.31Z"/><path class="cls-3" d="M240.33,502.31a3.24,3.24,0,1,1-3.23-3.24A3.23,3.23,0,0,1,240.33,502.31Z"/><path class="cls-3" d="M249.52,502.31a3.24,3.24,0,1,1-3.24-3.24A3.24,3.24,0,0,1,249.52,502.31Z"/><path class="cls-3" d="M231,530.74a3.24,3.24,0,1,1-3.24-3.24A3.23,3.23,0,0,1,231,530.74Z"/><path class="cls-3" d="M240.33,530.74a3.24,3.24,0,1,1-3.23-3.24A3.23,3.23,0,0,1,240.33,530.74Z"/><path class="cls-3" d="M249.52,530.74a3.24,3.24,0,1,1-3.24-3.24A3.23,3.23,0,0,1,249.52,530.74Z"/><path class="cls-3" d="M212.53,521.41a3.24,3.24,0,1,1-3.23-3.24A3.24,3.24,0,0,1,212.53,521.41Z"/><path class="cls-3" d="M231,521.41a3.24,3.24,0,1,1-3.24-3.24A3.24,3.24,0,0,1,231,521.41Z"/><path class="cls-3" d="M240.33,521.41a3.24,3.24,0,1,1-3.23-3.24A3.24,3.24,0,0,1,240.33,521.41Z"/><path class="cls-3" d="M249.52,521.41a3.24,3.24,0,1,1-3.24-3.24A3.24,3.24,0,0,1,249.52,521.41Z"/><path class="cls-3" d="M231,540.07a3.24,3.24,0,1,1-3.24-3.24A3.24,3.24,0,0,1,231,540.07Z"/><path class="cls-3" d="M240.33,540.07a3.24,3.24,0,1,1-3.23-3.24A3.23,3.23,0,0,1,240.33,540.07Z"/><path class="cls-3" d="M249.52,540.07a3.24,3.24,0,1,1-3.24-3.24A3.24,3.24,0,0,1,249.52,540.07Z"/><path class="cls-3" d="M296.3,410.15a3.24,3.24,0,1,1-3.24-3.24A3.24,3.24,0,0,1,296.3,410.15Z"/><path class="cls-3" d="M305.65,410.15a3.24,3.24,0,1,1-3.24-3.24A3.24,3.24,0,0,1,305.65,410.15Z"/><path class="cls-3" d="M277.85,428.36a3.24,3.24,0,1,1-3.24-3.23A3.24,3.24,0,0,1,277.85,428.36Z"/><path class="cls-3" d="M268.72,428.36a3.24,3.24,0,1,1-3.23-3.23A3.23,3.23,0,0,1,268.72,428.36Z"/><path class="cls-3" d="M268.72,419a3.24,3.24,0,1,1-3.23-3.23A3.23,3.23,0,0,1,268.72,419Z"/><path class="cls-3" d="M258.91,372.83a3.24,3.24,0,1,1-3.24-3.24A3.23,3.23,0,0,1,258.91,372.83Z"/><path class="cls-3" d="M277.85,447.47a3.24,3.24,0,1,1-3.24-3.24A3.24,3.24,0,0,1,277.85,447.47Z"/><path class="cls-3" d="M277.85,438.14a3.24,3.24,0,1,1-3.24-3.24A3.24,3.24,0,0,1,277.85,438.14Z"/><path class="cls-3" d="M268.72,447.47a3.24,3.24,0,1,1-3.23-3.24A3.23,3.23,0,0,1,268.72,447.47Z"/><path class="cls-3" d="M268.72,438.14a3.24,3.24,0,1,1-3.23-3.24A3.23,3.23,0,0,1,268.72,438.14Z"/><path class="cls-3" d="M258.91,391.48a3.24,3.24,0,1,1-3.24-3.23A3.24,3.24,0,0,1,258.91,391.48Z"/><path class="cls-3" d="M258.91,382.16a3.24,3.24,0,1,1-3.24-3.24A3.24,3.24,0,0,1,258.91,382.16Z"/><path class="cls-3" d="M277.85,466.12a3.24,3.24,0,1,1-3.24-3.23A3.24,3.24,0,0,1,277.85,466.12Z"/><path class="cls-3" d="M287,466.12a3.24,3.24,0,1,1-3.23-3.23A3.23,3.23,0,0,1,287,466.12Z"/><path class="cls-3" d="M277.85,456.79a3.24,3.24,0,1,1-3.24-3.23A3.24,3.24,0,0,1,277.85,456.79Z"/><path class="cls-3" d="M287,456.79a3.24,3.24,0,1,1-3.23-3.23A3.23,3.23,0,0,1,287,456.79Z"/><path class="cls-3" d="M268.72,466.12a3.24,3.24,0,1,1-3.23-3.23A3.23,3.23,0,0,1,268.72,466.12Z"/><path class="cls-3" d="M268.72,456.79a3.24,3.24,0,1,1-3.23-3.23A3.23,3.23,0,0,1,268.72,456.79Z"/><path class="cls-3" d="M258.91,399.68a3.24,3.24,0,1,1-3.24-3.23A3.24,3.24,0,0,1,258.91,399.68Z"/><path class="cls-3" d="M267.89,391.48a3.24,3.24,0,1,1-3.23-3.23A3.24,3.24,0,0,1,267.89,391.48Z"/><path class="cls-3" d="M267.89,382.16a3.24,3.24,0,1,1-3.23-3.24A3.23,3.23,0,0,1,267.89,382.16Z"/><path class="cls-3" d="M267.89,399.68a3.24,3.24,0,1,1-3.23-3.23A3.24,3.24,0,0,1,267.89,399.68Z"/><path class="cls-3" d="M277.17,391.48a3.24,3.24,0,1,1-3.24-3.23A3.24,3.24,0,0,1,277.17,391.48Z"/><path class="cls-3" d="M277.17,382.16a3.24,3.24,0,1,1-3.24-3.24A3.24,3.24,0,0,1,277.17,382.16Z"/><path class="cls-3" d="M277.17,399.68a3.24,3.24,0,1,1-3.24-3.23A3.24,3.24,0,0,1,277.17,399.68Z"/><path class="cls-3" d="M286.55,391.48a3.24,3.24,0,1,1-3.23-3.23A3.24,3.24,0,0,1,286.55,391.48Z"/><path class="cls-3" d="M286.55,399.68a3.24,3.24,0,1,1-3.23-3.23A3.24,3.24,0,0,1,286.55,399.68Z"/><path class="cls-3" d="M295.53,399.68a3.24,3.24,0,1,1-3.23-3.23A3.23,3.23,0,0,1,295.53,399.68Z"/><path class="cls-3" d="M304.81,391.48a3.24,3.24,0,1,1-3.23-3.23A3.24,3.24,0,0,1,304.81,391.48Z"/><path class="cls-3" d="M314.83,382.16a3.24,3.24,0,1,1-3.23-3.24A3.23,3.23,0,0,1,314.83,382.16Z"/><path class="cls-3" d="M321.75,392.18a3.24,3.24,0,1,1-3.24-3.24A3.24,3.24,0,0,1,321.75,392.18Z"/><path class="cls-3" d="M277.85,483.65a3.24,3.24,0,1,1-3.24-3.24A3.23,3.23,0,0,1,277.85,483.65Z"/><path class="cls-3" d="M287,483.65a3.24,3.24,0,1,1-3.23-3.24A3.22,3.22,0,0,1,287,483.65Z"/><path class="cls-3" d="M296.3,483.65a3.24,3.24,0,1,1-3.24-3.24A3.23,3.23,0,0,1,296.3,483.65Z"/><path class="cls-3" d="M277.85,474.32a3.24,3.24,0,1,1-3.24-3.24A3.24,3.24,0,0,1,277.85,474.32Z"/><path class="cls-3" d="M287,474.32a3.24,3.24,0,1,1-3.23-3.24A3.23,3.23,0,0,1,287,474.32Z"/><path class="cls-3" d="M268.72,483.65a3.24,3.24,0,1,1-3.23-3.24A3.22,3.22,0,0,1,268.72,483.65Z"/><path class="cls-3" d="M239.91,483.65a3.24,3.24,0,1,1-3.24-3.24A3.23,3.23,0,0,1,239.91,483.65Z"/><path class="cls-3" d="M249.3,447.47a3.24,3.24,0,1,1-3.24-3.24A3.24,3.24,0,0,1,249.3,447.47Z"/><path class="cls-3" d="M258.64,447.47a3.24,3.24,0,1,1-3.23-3.24A3.23,3.23,0,0,1,258.64,447.47Z"/><path class="cls-3" d="M249.3,466.12a3.24,3.24,0,1,1-3.24-3.23A3.24,3.24,0,0,1,249.3,466.12Z"/><path class="cls-3" d="M258.64,466.12a3.24,3.24,0,1,1-3.23-3.23A3.24,3.24,0,0,1,258.64,466.12Z"/><path class="cls-3" d="M249.3,456.79a3.24,3.24,0,1,1-3.24-3.23A3.24,3.24,0,0,1,249.3,456.79Z"/><path class="cls-3" d="M258.64,456.79a3.24,3.24,0,1,1-3.23-3.23A3.24,3.24,0,0,1,258.64,456.79Z"/><path class="cls-3" d="M249.3,483.65a3.24,3.24,0,1,1-3.24-3.24A3.23,3.23,0,0,1,249.3,483.65Z"/><path class="cls-3" d="M249.3,474.32a3.24,3.24,0,1,1-3.24-3.24A3.24,3.24,0,0,1,249.3,474.32Z"/><path class="cls-3" d="M258.64,474.32a3.24,3.24,0,1,1-3.23-3.24A3.23,3.23,0,0,1,258.64,474.32Z"/><path class="cls-3" d="M258.22,483.65a3.24,3.24,0,1,1-3.24-3.24A3.23,3.23,0,0,1,258.22,483.65Z"/><path class="cls-3" d="M268.72,474.32a3.24,3.24,0,1,1-3.23-3.24A3.23,3.23,0,0,1,268.72,474.32Z"/><path class="cls-3" d="M296.3,474.32a3.24,3.24,0,1,1-3.24-3.24A3.24,3.24,0,0,1,296.3,474.32Z"/><path class="cls-3" d="M258.91,493.42a3.24,3.24,0,1,1-3.24-3.24A3.24,3.24,0,0,1,258.91,493.42Z"/><path class="cls-3" d="M277.85,493.42a3.24,3.24,0,1,1-3.24-3.24A3.24,3.24,0,0,1,277.85,493.42Z"/><path class="cls-3" d="M287,493.42a3.24,3.24,0,1,1-3.23-3.24A3.23,3.23,0,0,1,287,493.42Z"/><path class="cls-3" d="M296.3,493.42a3.24,3.24,0,1,1-3.24-3.24A3.24,3.24,0,0,1,296.3,493.42Z"/><path class="cls-3" d="M268.72,493.42a3.24,3.24,0,1,1-3.23-3.24A3.23,3.23,0,0,1,268.72,493.42Z"/><path class="cls-3" d="M258.91,511.64a3.24,3.24,0,1,1-3.24-3.24A3.24,3.24,0,0,1,258.91,511.64Z"/><path class="cls-3" d="M258.91,502.31a3.24,3.24,0,1,1-3.24-3.24A3.24,3.24,0,0,1,258.91,502.31Z"/><path class="cls-3" d="M277.85,511.64a3.24,3.24,0,1,1-3.24-3.24A3.24,3.24,0,0,1,277.85,511.64Z"/><path class="cls-3" d="M287,511.64a3.24,3.24,0,1,1-3.23-3.24A3.23,3.23,0,0,1,287,511.64Z"/><path class="cls-3" d="M277.85,502.31a3.24,3.24,0,1,1-3.24-3.24A3.24,3.24,0,0,1,277.85,502.31Z"/><path class="cls-3" d="M287,502.31a3.24,3.24,0,1,1-3.23-3.24A3.23,3.23,0,0,1,287,502.31Z"/><path class="cls-3" d="M268.72,511.64a3.24,3.24,0,1,1-3.23-3.24A3.23,3.23,0,0,1,268.72,511.64Z"/><path class="cls-3" d="M268.72,502.31a3.24,3.24,0,1,1-3.23-3.24A3.23,3.23,0,0,1,268.72,502.31Z"/><path class="cls-3" d="M296.3,502.31a3.24,3.24,0,1,1-3.24-3.24A3.24,3.24,0,0,1,296.3,502.31Z"/><path class="cls-3" d="M258.91,530.74a3.24,3.24,0,1,1-3.24-3.24A3.23,3.23,0,0,1,258.91,530.74Z"/><path class="cls-3" d="M258.91,521.41a3.24,3.24,0,1,1-3.24-3.24A3.24,3.24,0,0,1,258.91,521.41Z"/><path class="cls-3" d="M277.85,521.41a3.24,3.24,0,1,1-3.24-3.24A3.24,3.24,0,0,1,277.85,521.41Z"/><path class="cls-3" d="M268.72,530.74a3.24,3.24,0,1,1-3.23-3.24A3.22,3.22,0,0,1,268.72,530.74Z"/><path class="cls-3" d="M268.72,521.41a3.24,3.24,0,1,1-3.23-3.24A3.23,3.23,0,0,1,268.72,521.41Z"/><path class="cls-3" d="M258.91,540.07a3.24,3.24,0,1,1-3.24-3.24A3.24,3.24,0,0,1,258.91,540.07Z"/><path class="cls-3" d="M336,540a2.92,2.92,0,1,1-2.92-2.92A2.92,2.92,0,0,1,336,540Z"/><path class="cls-3" d="M326.65,474.53a2.92,2.92,0,1,1-2.92-2.92A2.92,2.92,0,0,1,326.65,474.53Z"/><path class="cls-3" d="M319.79,465.48a2.92,2.92,0,1,1-2.92-2.91A2.93,2.93,0,0,1,319.79,465.48Z"/><path class="cls-3" d="M327.71,548.81a2.92,2.92,0,1,1-2.91-2.92A2.91,2.91,0,0,1,327.71,548.81Z"/><path class="cls-3" d="M73.55,281.26A3.24,3.24,0,1,1,70.31,278,3.24,3.24,0,0,1,73.55,281.26Z"/><path class="cls-3" d="M82.74,281.26A3.24,3.24,0,1,1,79.5,278,3.24,3.24,0,0,1,82.74,281.26Z"/><path class="cls-3" d="M92,281.26A3.24,3.24,0,1,1,88.77,278,3.24,3.24,0,0,1,92,281.26Z"/><path class="cls-3" d="M73.55,271.93a3.24,3.24,0,1,1-3.24-3.24A3.24,3.24,0,0,1,73.55,271.93Z"/><path class="cls-3" d="M82.74,271.93a3.24,3.24,0,1,1-3.24-3.24A3.24,3.24,0,0,1,82.74,271.93Z"/><path class="cls-3" d="M92,271.93a3.24,3.24,0,1,1-3.24-3.24A3.24,3.24,0,0,1,92,271.93Z"/><path class="cls-3" d="M110.94,281.26a3.24,3.24,0,1,1-3.23-3.23A3.24,3.24,0,0,1,110.94,281.26Z"/><path class="cls-3" d="M101.82,281.26A3.24,3.24,0,1,1,98.59,278,3.24,3.24,0,0,1,101.82,281.26Z"/><path class="cls-3" d="M101.82,271.93a3.24,3.24,0,1,1-3.23-3.24A3.23,3.23,0,0,1,101.82,271.93Z"/><path class="cls-3" d="M147.38,345.88a3.24,3.24,0,1,1-3.23-3.24A3.23,3.23,0,0,1,147.38,345.88Z"/><path class="cls-3" d="M156.57,345.88a3.24,3.24,0,1,1-3.23-3.24A3.23,3.23,0,0,1,156.57,345.88Z"/><path class="cls-3" d="M165.84,345.88a3.24,3.24,0,1,1-3.24-3.24A3.24,3.24,0,0,1,165.84,345.88Z"/><path class="cls-3" d="M165.84,336.89a3.24,3.24,0,1,1-3.24-3.23A3.24,3.24,0,0,1,165.84,336.89Z"/><path class="cls-3" d="M147.38,364.53a3.24,3.24,0,1,1-3.23-3.23A3.23,3.23,0,0,1,147.38,364.53Z"/><path class="cls-3" d="M156.57,364.53a3.24,3.24,0,1,1-3.23-3.23A3.24,3.24,0,0,1,156.57,364.53Z"/><path class="cls-3" d="M165.84,364.53a3.24,3.24,0,1,1-3.24-3.23A3.24,3.24,0,0,1,165.84,364.53Z"/><path class="cls-3" d="M175.17,364.53a3.24,3.24,0,1,1-3.24-3.23A3.24,3.24,0,0,1,175.17,364.53Z"/><path class="cls-3" d="M175.17,373.52a3.24,3.24,0,1,1-3.24-3.24A3.24,3.24,0,0,1,175.17,373.52Z"/><path class="cls-3" d="M183.87,373.52a3.24,3.24,0,1,1-3.23-3.24A3.24,3.24,0,0,1,183.87,373.52Z"/><path class="cls-3" d="M175.17,382.16a3.24,3.24,0,1,1-3.24-3.24A3.23,3.23,0,0,1,175.17,382.16Z"/><path class="cls-3" d="M184.5,382.16a3.24,3.24,0,1,1-3.24-3.24A3.23,3.23,0,0,1,184.5,382.16Z"/><path class="cls-3" d="M147.38,355.21a3.24,3.24,0,1,1-3.23-3.24A3.23,3.23,0,0,1,147.38,355.21Z"/><path class="cls-3" d="M156.57,355.21a3.24,3.24,0,1,1-3.23-3.24A3.23,3.23,0,0,1,156.57,355.21Z"/><path class="cls-3" d="M138.26,364.53A3.24,3.24,0,1,1,135,361.3,3.24,3.24,0,0,1,138.26,364.53Z"/><path class="cls-3" d="M138.26,355.21A3.24,3.24,0,1,1,135,352,3.23,3.23,0,0,1,138.26,355.21Z"/><path class="cls-3" d="M165.84,355.21A3.24,3.24,0,1,1,162.6,352,3.24,3.24,0,0,1,165.84,355.21Z"/><path class="cls-3" d="M147.38,372.73a3.24,3.24,0,1,1-3.23-3.24A3.22,3.22,0,0,1,147.38,372.73Z"/><path class="cls-3" d="M156.57,372.73a3.24,3.24,0,1,1-3.23-3.24A3.23,3.23,0,0,1,156.57,372.73Z"/><path class="cls-3" d="M138.26,372.73a3.24,3.24,0,1,1-3.23-3.24A3.23,3.23,0,0,1,138.26,372.73Z"/><path class="cls-3" d="M147.38,400.37a3.24,3.24,0,1,1-3.23-3.23A3.23,3.23,0,0,1,147.38,400.37Z"/><path class="cls-3" d="M138.26,400.37a3.24,3.24,0,1,1-3.23-3.23A3.24,3.24,0,0,1,138.26,400.37Z"/><path class="cls-3" d="M120,392.08a3.24,3.24,0,1,1-3.24-3.23A3.25,3.25,0,0,1,120,392.08Z"/><path class="cls-3" d="M82.74,299.91a3.24,3.24,0,1,1-3.24-3.23A3.24,3.24,0,0,1,82.74,299.91Z"/><path class="cls-3" d="M92,299.91a3.24,3.24,0,1,1-3.24-3.23A3.24,3.24,0,0,1,92,299.91Z"/><path class="cls-3" d="M82.74,290.59a3.24,3.24,0,1,1-3.24-3.24A3.25,3.25,0,0,1,82.74,290.59Z"/><path class="cls-3" d="M92,290.59a3.24,3.24,0,1,1-3.24-3.24A3.25,3.25,0,0,1,92,290.59Z"/><path class="cls-3" d="M83.1,355.11a3.24,3.24,0,1,1-3.23-3.23A3.23,3.23,0,0,1,83.1,355.11Z"/><path class="cls-3" d="M92.29,355.11a3.24,3.24,0,1,1-3.23-3.23A3.24,3.24,0,0,1,92.29,355.11Z"/><path class="cls-3" d="M101.56,355.11a3.24,3.24,0,1,1-3.24-3.23A3.24,3.24,0,0,1,101.56,355.11Z"/><path class="cls-3" d="M101.56,372.64a3.24,3.24,0,1,1-3.24-3.23A3.24,3.24,0,0,1,101.56,372.64Z"/><path class="cls-3" d="M92.29,363.31a3.24,3.24,0,1,1-3.23-3.23A3.24,3.24,0,0,1,92.29,363.31Z"/><path class="cls-3" d="M101.56,363.31a3.24,3.24,0,1,1-3.24-3.23A3.24,3.24,0,0,1,101.56,363.31Z"/><path class="cls-3" d="M101.56,382.41a3.24,3.24,0,1,1-3.24-3.23A3.24,3.24,0,0,1,101.56,382.41Z"/><path class="cls-3" d="M110.54,372.64a3.24,3.24,0,1,1-3.23-3.23A3.24,3.24,0,0,1,110.54,372.64Z"/><path class="cls-3" d="M110.54,382.41a3.24,3.24,0,1,1-3.23-3.23A3.24,3.24,0,0,1,110.54,382.41Z"/><path class="cls-3" d="M110.94,299.91a3.24,3.24,0,1,1-3.23-3.23A3.24,3.24,0,0,1,110.94,299.91Z"/><path class="cls-3" d="M120.13,299.91a3.24,3.24,0,1,1-3.24-3.23A3.24,3.24,0,0,1,120.13,299.91Z"/><path class="cls-3" d="M110.94,290.59a3.24,3.24,0,1,1-3.23-3.24A3.24,3.24,0,0,1,110.94,290.59Z"/><path class="cls-3" d="M120.13,290.59a3.24,3.24,0,1,1-3.24-3.24A3.25,3.25,0,0,1,120.13,290.59Z"/><path class="cls-3" d="M101.82,299.91a3.24,3.24,0,1,1-3.23-3.23A3.24,3.24,0,0,1,101.82,299.91Z"/><path class="cls-3" d="M101.82,290.59a3.24,3.24,0,1,1-3.23-3.24A3.24,3.24,0,0,1,101.82,290.59Z"/><path class="cls-3" d="M82.74,308.56a3.24,3.24,0,1,1-3.24-3.24A3.23,3.23,0,0,1,82.74,308.56Z"/><path class="cls-3" d="M110.94,308.56a3.24,3.24,0,1,1-3.23-3.24A3.23,3.23,0,0,1,110.94,308.56Z"/><path class="cls-3" d="M120.13,308.56a3.24,3.24,0,1,1-3.24-3.24A3.23,3.23,0,0,1,120.13,308.56Z"/><path class="cls-3" d="M129.4,308.56a3.24,3.24,0,1,1-3.24-3.24A3.23,3.23,0,0,1,129.4,308.56Z"/><path class="cls-3" d="M101.82,308.56a3.24,3.24,0,1,1-3.23-3.24A3.23,3.23,0,0,1,101.82,308.56Z"/><path class="cls-3" d="M92,327.66a3.24,3.24,0,1,1-3.24-3.24A3.24,3.24,0,0,1,92,327.66Z"/><path class="cls-3" d="M82.74,318.33a3.24,3.24,0,1,1-3.24-3.23A3.24,3.24,0,0,1,82.74,318.33Z"/><path class="cls-3" d="M82.74,346.32a3.24,3.24,0,1,1-3.24-3.24A3.25,3.25,0,0,1,82.74,346.32Z"/><path class="cls-3" d="M92,337a3.24,3.24,0,1,1-3.24-3.24A3.23,3.23,0,0,1,92,337Z"/><path class="cls-3" d="M110.94,318a3.24,3.24,0,1,1-3.23-3.23A3.24,3.24,0,0,1,110.94,318Z"/><path class="cls-3" d="M101.82,346.32a3.24,3.24,0,1,1-3.23-3.24A3.24,3.24,0,0,1,101.82,346.32Z"/><path class="cls-3" d="M101.82,337a3.24,3.24,0,1,1-3.23-3.24A3.23,3.23,0,0,1,101.82,337Z"/><path class="cls-3" d="M166.36,179.32a3.24,3.24,0,1,1-3.24-3.23A3.24,3.24,0,0,1,166.36,179.32Z"/><circle class="cls-4" cx="117.04" cy="132.66" r="3.24"/><path class="cls-3" d="M129.47,132.66a3.24,3.24,0,1,1-3.24-3.23A3.24,3.24,0,0,1,129.47,132.66Z"/><path class="cls-3" d="M138.73,132.66a3.24,3.24,0,1,1-3.23-3.23A3.23,3.23,0,0,1,138.73,132.66Z"/><path class="cls-3" d="M148.08,132.66a3.24,3.24,0,1,1-3.23-3.23A3.24,3.24,0,0,1,148.08,132.66Z"/><path class="cls-3" d="M157.27,132.66a3.24,3.24,0,1,1-3.24-3.23A3.24,3.24,0,0,1,157.27,132.66Z"/><path class="cls-3" d="M101.47,132.66a3.23,3.23,0,1,1-3.23-3.23A3.23,3.23,0,0,1,101.47,132.66Z"/><path class="cls-3" d="M110.74,132.66a3.24,3.24,0,1,1-3.23-3.23A3.24,3.24,0,0,1,110.74,132.66Z"/><path class="cls-3" d="M166.51,77.78a3.24,3.24,0,1,1-3.23-3.24A3.23,3.23,0,0,1,166.51,77.78Z"/><path class="cls-3" d="M166.51,87.13a3.24,3.24,0,1,1-3.23-3.24A3.23,3.23,0,0,1,166.51,87.13Z"/><path class="cls-3" d="M175.7,77.78a3.24,3.24,0,1,1-3.24-3.24A3.23,3.23,0,0,1,175.7,77.78Z"/><path class="cls-3" d="M175.7,87.13a3.24,3.24,0,1,1-3.24-3.24A3.24,3.24,0,0,1,175.7,87.13Z"/><path class="cls-3" d="M120.28,77.78A3.24,3.24,0,1,1,117,74.54,3.23,3.23,0,0,1,120.28,77.78Z"/><path class="cls-3" d="M120.28,87.13A3.24,3.24,0,1,1,117,83.89,3.24,3.24,0,0,1,120.28,87.13Z"/><path class="cls-3" d="M129.47,77.78a3.24,3.24,0,1,1-3.24-3.24A3.23,3.23,0,0,1,129.47,77.78Z"/><path class="cls-3" d="M129.47,87.13a3.24,3.24,0,1,1-3.24-3.24A3.24,3.24,0,0,1,129.47,87.13Z"/><path class="cls-3" d="M138.73,77.78a3.24,3.24,0,1,1-3.23-3.24A3.22,3.22,0,0,1,138.73,77.78Z"/><path class="cls-3" d="M138.73,87.13a3.24,3.24,0,1,1-3.23-3.24A3.23,3.23,0,0,1,138.73,87.13Z"/><path class="cls-3" d="M148.08,77.78a3.24,3.24,0,1,1-3.23-3.24A3.23,3.23,0,0,1,148.08,77.78Z"/><path class="cls-3" d="M148.08,87.13a3.24,3.24,0,1,1-3.23-3.24A3.23,3.23,0,0,1,148.08,87.13Z"/><path class="cls-3" d="M157.27,77.78A3.24,3.24,0,1,1,154,74.54,3.23,3.23,0,0,1,157.27,77.78Z"/><path class="cls-3" d="M157.27,87.13A3.24,3.24,0,1,1,154,83.89,3.24,3.24,0,0,1,157.27,87.13Z"/><path class="cls-3" d="M101.47,77.78a3.23,3.23,0,1,1-3.23-3.24A3.22,3.22,0,0,1,101.47,77.78Z"/><path class="cls-3" d="M101.47,87.13a3.23,3.23,0,1,1-3.23-3.24A3.23,3.23,0,0,1,101.47,87.13Z"/><path class="cls-3" d="M110.74,77.78a3.24,3.24,0,1,1-3.23-3.24A3.23,3.23,0,0,1,110.74,77.78Z"/><path class="cls-3" d="M110.74,87.13a3.24,3.24,0,1,1-3.23-3.24A3.23,3.23,0,0,1,110.74,87.13Z"/><path class="cls-3" d="M166.51,58.69a3.24,3.24,0,1,1-3.23-3.23A3.24,3.24,0,0,1,166.51,58.69Z"/><path class="cls-3" d="M166.51,68a3.24,3.24,0,1,1-3.23-3.23A3.23,3.23,0,0,1,166.51,68Z"/><path class="cls-3" d="M175.7,58.69a3.24,3.24,0,1,1-3.24-3.23A3.24,3.24,0,0,1,175.7,58.69Z"/><path class="cls-3" d="M175.7,68a3.24,3.24,0,1,1-3.24-3.23A3.23,3.23,0,0,1,175.7,68Z"/><path class="cls-3" d="M120.28,58.69A3.24,3.24,0,1,1,117,55.46,3.24,3.24,0,0,1,120.28,58.69Z"/><circle class="cls-4" cx="117.04" cy="68.04" r="3.23"/><path class="cls-3" d="M129.47,58.69a3.24,3.24,0,1,1-3.24-3.23A3.24,3.24,0,0,1,129.47,58.69Z"/><path class="cls-3" d="M129.47,68a3.24,3.24,0,1,1-3.24-3.23A3.23,3.23,0,0,1,129.47,68Z"/><path class="cls-3" d="M138.73,58.69a3.24,3.24,0,1,1-3.23-3.23A3.23,3.23,0,0,1,138.73,58.69Z"/><path class="cls-3" d="M138.73,68a3.24,3.24,0,1,1-3.23-3.23A3.22,3.22,0,0,1,138.73,68Z"/><path class="cls-3" d="M148.08,58.69a3.24,3.24,0,1,1-3.23-3.23A3.24,3.24,0,0,1,148.08,58.69Z"/><path class="cls-3" d="M148.08,68a3.24,3.24,0,1,1-3.23-3.23A3.23,3.23,0,0,1,148.08,68Z"/><path class="cls-3" d="M157.27,58.69A3.24,3.24,0,1,1,154,55.46,3.24,3.24,0,0,1,157.27,58.69Z"/><path class="cls-3" d="M157.27,68A3.24,3.24,0,1,1,154,64.81,3.23,3.23,0,0,1,157.27,68Z"/><path class="cls-3" d="M184.75,49.47a3.24,3.24,0,1,1-3.24-3.24A3.24,3.24,0,0,1,184.75,49.47Z"/><path class="cls-3" d="M194,49.47a3.24,3.24,0,1,1-3.23-3.24A3.23,3.23,0,0,1,194,49.47Z"/><path class="cls-3" d="M203.36,49.47a3.24,3.24,0,1,1-3.24-3.24A3.24,3.24,0,0,1,203.36,49.47Z"/><path class="cls-3" d="M212.54,49.47a3.24,3.24,0,1,1-3.23-3.24A3.23,3.23,0,0,1,212.54,49.47Z"/><path class="cls-3" d="M221.79,49.47a3.24,3.24,0,1,1-3.24-3.24A3.24,3.24,0,0,1,221.79,49.47Z"/><path class="cls-3" d="M231,49.47a3.24,3.24,0,1,1-3.24-3.24A3.24,3.24,0,0,1,231,49.47Z"/><path class="cls-3" d="M231.13,77.78a3.24,3.24,0,1,1-3.24-3.24A3.23,3.23,0,0,1,231.13,77.78Z"/><path class="cls-3" d="M231.13,87.13a3.24,3.24,0,1,1-3.24-3.24A3.24,3.24,0,0,1,231.13,87.13Z"/><path class="cls-3" d="M240.31,77.78a3.24,3.24,0,1,1-3.23-3.24A3.23,3.23,0,0,1,240.31,77.78Z"/><path class="cls-3" d="M240.31,87.13a3.24,3.24,0,1,1-3.23-3.24A3.23,3.23,0,0,1,240.31,87.13Z"/><path class="cls-3" d="M240.31,105.77a3.24,3.24,0,1,1-3.23-3.24A3.23,3.23,0,0,1,240.31,105.77Z"/><path class="cls-3" d="M240.31,115.12a3.24,3.24,0,1,1-3.23-3.24A3.23,3.23,0,0,1,240.31,115.12Z"/><path class="cls-3" d="M184.9,77.78a3.24,3.24,0,1,1-3.24-3.24A3.23,3.23,0,0,1,184.9,77.78Z"/><path class="cls-3" d="M184.9,87.13a3.24,3.24,0,1,1-3.24-3.24A3.24,3.24,0,0,1,184.9,87.13Z"/><path class="cls-3" d="M194.08,77.78a3.23,3.23,0,1,1-3.23-3.24A3.22,3.22,0,0,1,194.08,77.78Z"/><path class="cls-3" d="M194.08,87.13a3.23,3.23,0,1,1-3.23-3.24A3.23,3.23,0,0,1,194.08,87.13Z"/><path class="cls-3" d="M203.35,77.78a3.24,3.24,0,1,1-3.23-3.24A3.23,3.23,0,0,1,203.35,77.78Z"/><path class="cls-3" d="M212.7,77.78a3.24,3.24,0,1,1-3.24-3.24A3.23,3.23,0,0,1,212.7,77.78Z"/><path class="cls-3" d="M221.89,77.78a3.24,3.24,0,1,1-3.24-3.24A3.24,3.24,0,0,1,221.89,77.78Z"/><path class="cls-3" d="M231.13,58.69a3.24,3.24,0,1,1-3.24-3.23A3.24,3.24,0,0,1,231.13,58.69Z"/><path class="cls-3" d="M231.13,68a3.24,3.24,0,1,1-3.24-3.23A3.23,3.23,0,0,1,231.13,68Z"/><path class="cls-3" d="M240.31,58.69a3.24,3.24,0,1,1-3.23-3.23A3.24,3.24,0,0,1,240.31,58.69Z"/><path class="cls-3" d="M240.31,68a3.24,3.24,0,1,1-3.23-3.23A3.23,3.23,0,0,1,240.31,68Z"/><path class="cls-3" d="M249.29,77.78a3.23,3.23,0,1,1-3.23-3.24A3.22,3.22,0,0,1,249.29,77.78Z"/><path class="cls-3" d="M258.63,77.78a3.24,3.24,0,1,1-3.24-3.24A3.23,3.23,0,0,1,258.63,77.78Z"/><path class="cls-3" d="M267.26,77.78A3.23,3.23,0,1,1,264,74.54,3.22,3.22,0,0,1,267.26,77.78Z"/><path class="cls-3" d="M277.11,67.93a3.24,3.24,0,1,1-3.23-3.23A3.23,3.23,0,0,1,277.11,67.93Z"/><path class="cls-3" d="M249.29,87.13a3.23,3.23,0,1,1-3.23-3.24A3.23,3.23,0,0,1,249.29,87.13Z"/><path class="cls-3" d="M222.14,96.11a3.24,3.24,0,1,1-3.24-3.24A3.24,3.24,0,0,1,222.14,96.11Z"/><path class="cls-3" d="M231.33,96.11a3.24,3.24,0,1,1-3.24-3.24A3.24,3.24,0,0,1,231.33,96.11Z"/><path class="cls-3" d="M231.13,105.44a3.24,3.24,0,1,1-3.24-3.24A3.24,3.24,0,0,1,231.13,105.44Z"/><path class="cls-3" d="M231.33,114.42a3.24,3.24,0,1,1-3.24-3.23A3.24,3.24,0,0,1,231.33,114.42Z"/><path class="cls-3" d="M249.29,58.69a3.23,3.23,0,1,1-3.23-3.23A3.23,3.23,0,0,1,249.29,58.69Z"/><path class="cls-3" d="M258.51,58.69a3.24,3.24,0,1,1-3.24-3.23A3.24,3.24,0,0,1,258.51,58.69Z"/><path class="cls-3" d="M249.29,68a3.23,3.23,0,1,1-3.23-3.23A3.22,3.22,0,0,1,249.29,68Z"/><path class="cls-3" d="M184.9,58.69a3.24,3.24,0,1,1-3.24-3.23A3.24,3.24,0,0,1,184.9,58.69Z"/><path class="cls-3" d="M184.9,68a3.24,3.24,0,1,1-3.24-3.23A3.23,3.23,0,0,1,184.9,68Z"/><path class="cls-3" d="M194.08,58.69a3.23,3.23,0,1,1-3.23-3.23A3.23,3.23,0,0,1,194.08,58.69Z"/><path class="cls-3" d="M194.08,68a3.23,3.23,0,1,1-3.23-3.23A3.22,3.22,0,0,1,194.08,68Z"/><path class="cls-3" d="M203.35,58.69a3.24,3.24,0,1,1-3.23-3.23A3.24,3.24,0,0,1,203.35,58.69Z"/><path class="cls-3" d="M203.35,68a3.24,3.24,0,1,1-3.23-3.23A3.23,3.23,0,0,1,203.35,68Z"/><path class="cls-3" d="M212.7,58.69a3.24,3.24,0,1,1-3.24-3.23A3.24,3.24,0,0,1,212.7,58.69Z"/><path class="cls-3" d="M212.7,68a3.24,3.24,0,1,1-3.24-3.23A3.23,3.23,0,0,1,212.7,68Z"/><path class="cls-3" d="M221.89,58.69a3.24,3.24,0,1,1-3.24-3.23A3.25,3.25,0,0,1,221.89,58.69Z"/><path class="cls-3" d="M221.89,68a3.24,3.24,0,1,1-3.24-3.23A3.24,3.24,0,0,1,221.89,68Z"/><path class="cls-3" d="M101.47,58.69a3.23,3.23,0,1,1-3.23-3.23A3.23,3.23,0,0,1,101.47,58.69Z"/><path class="cls-3" d="M101.47,68a3.23,3.23,0,1,1-3.23-3.23A3.22,3.22,0,0,1,101.47,68Z"/><path class="cls-3" d="M110.74,58.69a3.24,3.24,0,1,1-3.23-3.23A3.24,3.24,0,0,1,110.74,58.69Z"/><path class="cls-3" d="M110.74,68a3.24,3.24,0,1,1-3.23-3.23A3.23,3.23,0,0,1,110.74,68Z"/><path class="cls-3" d="M36.51,141.62a3.24,3.24,0,1,1-3.23-3.23A3.23,3.23,0,0,1,36.51,141.62Z"/><path class="cls-3" d="M36.51,151a3.24,3.24,0,1,1-3.23-3.23A3.23,3.23,0,0,1,36.51,151Z"/><path class="cls-3" d="M45.7,141.62a3.24,3.24,0,1,1-3.24-3.23A3.24,3.24,0,0,1,45.7,141.62Z"/><path class="cls-3" d="M45.7,151a3.24,3.24,0,1,1-3.24-3.23A3.24,3.24,0,0,1,45.7,151Z"/><path class="cls-3" d="M55,141.62a3.24,3.24,0,1,1-3.24-3.23A3.24,3.24,0,0,1,55,141.62Z"/><path class="cls-3" d="M55,151a3.24,3.24,0,1,1-3.24-3.23A3.24,3.24,0,0,1,55,151Z"/><path class="cls-3" d="M64.31,141.62a3.24,3.24,0,1,1-3.23-3.23A3.24,3.24,0,0,1,64.31,141.62Z"/><path class="cls-3" d="M64.31,151a3.24,3.24,0,1,1-3.23-3.23A3.24,3.24,0,0,1,64.31,151Z"/><path class="cls-3" d="M8.52,327.38a3.24,3.24,0,1,1-3.23-3.23A3.23,3.23,0,0,1,8.52,327.38Z"/></g></svg>